Manrope-Regular.ufo
<glyph name="numbersign" format="2">
  <advance width="920"/>
  <unicode hex="0023"/>
  <note>
numbersign
</note>
  <outline>
    <contour>
      <point x="206" y="0" type="line"/>
      <point x="278" y="0" type="line"/>
      <point x="336" y="217" type="line"/>
      <point x="503" y="217" type="line"/>
      <point x="446" y="0" type="line"/>
      <point x="518" y="0" type="line"/>
      <point x="576" y="217" type="line"/>
      <point x="780" y="217" type="line"/>
      <point x="798" y="288" type="line"/>
      <point x="595" y="288" type="line"/>
      <point x="638" y="448" type="line"/>
      <point x="842" y="448" type="line"/>
      <point x="860" y="518" type="line"/>
      <point x="657" y="518" type="line"/>
      <point x="711" y="720" type="line"/>
      <point x="638" y="720" type="line"/>
      <point x="584" y="518" type="line"/>
      <point x="417" y="518" type="line"/>
      <point x="471" y="720" type="line"/>
      <point x="398" y="720" type="line"/>
      <point x="344" y="518" type="line"/>
      <point x="141" y="518" type="line"/>
      <point x="122" y="448" type="line"/>
      <point x="325" y="448" type="line"/>
      <point x="283" y="288" type="line"/>
      <point x="79" y="288" type="line"/>
      <point x="60" y="217" type="line"/>
      <point x="263" y="217" type="line"/>
    </contour>
    <contour>
      <point x="355" y="288" type="line"/>
      <point x="398" y="448" type="line"/>
      <point x="565" y="448" type="line"/>
      <point x="522" y="288" type="line"/>
    </contour>
  </outline>
</glyph>
<glyph name="dollar" format="2">
  <advance width="574"/>
  <unicode hex="0024"/>
  <note>
dollar
</note>
  <outline>
    <contour>
      <point x="248" y="-99" type="line"/>
      <point x="321" y="-99" type="line"/>
      <point x="321" y="20" type="line"/>
      <point x="248" y="20" type="line"/>
    </contour>
    <contour>
      <point x="248" y="701" type="line"/>
      <point x="321" y="701" type="line"/>
      <point x="321" y="820" type="line"/>
      <point x="248" y="820" type="line"/>
    </contour>
    <contour>
      <point x="294" y="-15" type="curve" smooth="yes"/>
      <point x="430" y="-15"/>
      <point x="544" y="56"/>
      <point x="544" y="196" type="curve" smooth="yes"/>
      <point x="544" y="335"/>
      <point x="431" y="369"/>
      <point x="377" y="385" type="curve" smooth="yes"/>
      <point x="243" y="426" type="line" smooth="yes"/>
      <point x="185" y="445"/>
      <point x="121" y="468"/>
      <point x="121" y="539" type="curve" smooth="yes"/>
      <point x="121" y="614"/>
      <point x="192" y="665"/>
      <point x="281" y="664" type="curve" smooth="yes"/>
      <point x="375" y="664"/>
      <point x="452" y="606"/>
      <point x="467" y="511" type="curve"/>
      <point x="540" y="524" type="line"/>
      <point x="517" y="659"/>
      <point x="413" y="734"/>
      <point x="281" y="735" type="curve" smooth="yes"/>
      <point x="151" y="735"/>
      <point x="48" y="662"/>
      <point x="48" y="536" type="curve" smooth="yes"/>
      <point x="48" y="411"/>
      <point x="152" y="377"/>
      <point x="194" y="364" type="curve" smooth="yes"/>
      <point x="354" y="315" type="line" smooth="yes"/>
      <point x="408" y="298"/>
      <point x="473" y="276"/>
      <point x="473" y="194" type="curve" smooth="yes"/>
      <point x="473" y="103"/>
      <point x="391" y="55"/>
      <point x="297" y="55" type="curve" smooth="yes"/>
      <point x="197" y="55"/>
      <point x="116" y="110"/>
      <point x="93" y="205" type="curve"/>
      <point x="21" y="193" type="line"/>
      <point x="46" y="61"/>
      <point x="155" y="-15"/>
    </contour>
  </outline>
</glyph>
<glyph name="ampersand" format="2">
  <advance width="651"/>
  <unicode hex="0026"/>
  <note>
ampersand
</note>
  <outline>
    <contour>
      <point x="302" y="-15" type="curve" smooth="yes"/>
      <point x="342" y="-15"/>
      <point x="383" y="-11"/>
      <point x="420" y="5" type="curve" smooth="yes"/>
      <point x="453" y="18"/>
      <point x="489" y="41"/>
      <point x="512" y="70" type="curve"/>
      <point x="591" y="-5" type="line"/>
      <point x="639" y="47" type="line"/>
      <point x="547" y="133" type="line"/>
      <point x="553" y="154"/>
      <point x="557" y="186"/>
      <point x="557" y="239" type="curve" smooth="yes"/>
      <point x="557" y="349" type="line"/>
      <point x="488" y="349" type="line"/>
      <point x="489" y="244" type="line" smooth="yes"/>
      <point x="489" y="226"/>
      <point x="488" y="208"/>
      <point x="485" y="190" type="curve"/>
      <point x="258" y="402" type="line" smooth="yes"/>
      <point x="239" y="419"/>
      <point x="220" y="435"/>
      <point x="206" y="451" type="curve" smooth="yes"/>
      <point x="180" y="481"/>
      <point x="166" y="503"/>
      <point x="166" y="544" type="curve" smooth="yes"/>
      <point x="166" y="591"/>
      <point x="186" y="627"/>
      <point x="226" y="647" type="curve" smooth="yes"/>
      <point x="249" y="658"/>
      <point x="276" y="664"/>
      <point x="304" y="664" type="curve" smooth="yes"/>
      <point x="337" y="664"/>
      <point x="371" y="657"/>
      <point x="397" y="637" type="curve" smooth="yes"/>
      <point x="413" y="625"/>
      <point x="425" y="610"/>
      <point x="432" y="592" type="curve"/>
      <point x="503" y="613" type="line"/>
      <point x="492" y="641"/>
      <point x="473" y="668"/>
      <point x="449" y="688" type="curve" smooth="yes"/>
      <point x="411" y="720"/>
      <point x="356" y="734"/>
      <point x="302" y="734" type="curve" smooth="yes"/>
      <point x="267" y="734"/>
      <point x="231" y="729"/>
      <point x="197" y="713" type="curve" smooth="yes"/>
      <point x="130" y="684"/>
      <point x="91" y="618"/>
      <point x="91" y="543" type="curve" smooth="yes"/>
      <point x="91" y="479"/>
      <point x="117" y="441"/>
      <point x="167" y="390" type="curve"/>
      <point x="142" y="378"/>
      <point x="116" y="363"/>
      <point x="97" y="339" type="curve" smooth="yes"/>
      <point x="64" y="300"/>
      <point x="49" y="247"/>
      <point x="50" y="197" type="curve" smooth="yes"/>
      <point x="52" y="144"/>
      <point x="69" y="95"/>
      <point x="104" y="57" type="curve" smooth="yes"/>
      <point x="150" y="7"/>
      <point x="221" y="-15"/>
    </contour>
    <contour>
      <point x="302" y="56" type="curve" smooth="yes"/>
      <point x="249" y="56"/>
      <point x="191" y="72"/>
      <point x="159" y="108" type="curve"/>
      <point x="138" y="132"/>
      <point x="126" y="164"/>
      <point x="126" y="200" type="curve" smooth="yes"/>
      <point x="125" y="235"/>
      <point x="134" y="267"/>
      <point x="154" y="292" type="curve" smooth="yes"/>
      <point x="171" y="312"/>
      <point x="196" y="327"/>
      <point x="224" y="336" type="curve"/>
      <point x="458" y="122" type="line"/>
      <point x="448" y="109"/>
      <point x="433" y="93"/>
      <point x="398" y="74" type="curve" smooth="yes"/>
      <point x="370" y="59"/>
      <point x="340" y="56"/>
    </contour>
  </outline>
</glyph>
<glyph name="parenleft" format="2">
  <advance width="426"/>
  <unicode hex="0028"/>
  <note>
parenleft
</note>
  <outline>
    <contour>
      <point x="328" y="-179" type="curve"/>
      <point x="383" y="-137" type="line"/>
      <point x="267" y="-2"/>
      <point x="208" y="165"/>
      <point x="208" y="330" type="curve" smooth="yes"/>
      <point x="208" y="497"/>
      <point x="266" y="659"/>
      <point x="383" y="797" type="curve"/>
      <point x="328" y="839" type="line"/>
      <point x="211" y="705"/>
      <point x="139" y="515"/>
      <point x="140" y="330" type="curve" smooth="yes"/>
      <point x="139" y="145"/>
      <point x="211" y="-45"/>
    </contour>
  </outline>
</glyph>
<glyph name="asterisk" format="2">
  <advance width="437"/>
  <unicode hex="002A"/>
  <note>
asterisk
</note>
  <outline>
    <contour>
      <point x="130" y="390" type="line"/>
      <point x="203" y="495" type="line"/>
      <point x="276" y="390" type="line"/>
      <point x="331" y="430" type="line"/>
      <point x="253" y="532" type="line"/>
      <point x="377" y="569" type="line"/>
      <point x="356" y="634" type="line"/>
      <point x="234" y="591" type="line"/>
      <point x="237" y="720" type="line"/>
      <point x="169" y="720" type="line"/>
      <point x="172" y="591" type="line"/>
      <point x="51" y="634" type="line"/>
      <point x="30" y="569" type="line"/>
      <point x="153" y="532" type="line"/>
      <point x="75" y="430" type="line"/>
    </contour>
  </outline>
</glyph>
<glyph name="comma" format="2">
  <advance width="265"/>
  <unicode hex="002C"/>
  <note>
comma
</note>
  <outline>
    <contour>
      <point x="60" y="-104" type="line"/>
      <point x="112" y="-115"/>
      <point x="145" y="-81"/>
      <point x="145" y="-20" type="curve" smooth="yes"/>
      <point x="145" y="105" type="line"/>
      <point x="60" y="105" type="line"/>
      <point x="60" y="0" type="line"/>
      <point x="105" y="0" type="line"/>
      <point x="108" y="-37"/>
      <point x="104" y="-71"/>
      <point x="65" y="-68" type="curve"/>
    </contour>
  </outline>
</glyph>
<glyph name="zero" format="2">
  <advance width="610"/>
  <unicode hex="0030"/>
  <outline>
    <contour>
      <point x="305" y="-15" type="curve" smooth="yes"/>
      <point x="438" y="-15"/>
      <point x="540" y="87"/>
      <point x="540" y="220" type="curve" smooth="yes"/>
      <point x="540" y="500" type="line" smooth="yes"/>
      <point x="540" y="633"/>
      <point x="438" y="735"/>
      <point x="305" y="735" type="curve" smooth="yes"/>
      <point x="172" y="735"/>
      <point x="70" y="633"/>
      <point x="70" y="500" type="curve" smooth="yes"/>
      <point x="70" y="220" type="line" smooth="yes"/>
      <point x="70" y="87"/>
      <point x="172" y="-15"/>
    </contour>
    <contour>
      <point x="305" y="56" type="curve" smooth="yes"/>
      <point x="216" y="56"/>
      <point x="144" y="128"/>
      <point x="144" y="217" type="curve" smooth="yes"/>
      <point x="144" y="504" type="line" smooth="yes"/>
      <point x="144" y="592"/>
      <point x="216" y="664"/>
      <point x="305" y="664" type="curve" smooth="yes"/>
      <point x="394" y="664"/>
      <point x="466" y="592"/>
      <point x="466" y="504" type="curve" smooth="yes"/>
      <point x="466" y="217" type="line" smooth="yes"/>
      <point x="466" y="128"/>
      <point x="394" y="56"/>
    </contour>
  </outline>
</glyph>
<glyph name="one" format="2">
  <advance width="390"/>
  <unicode hex="0031"/>
  <note>
one
</note>
  <outline>
    <contour>
      <point x="196" y="0" type="line"/>
      <point x="270" y="0" type="line"/>
      <point x="270" y="720" type="line"/>
      <point x="196" y="720" type="line"/>
      <point x="60" y="639" type="line"/>
      <point x="60" y="556" type="line"/>
      <point x="196" y="638" type="line"/>
    </contour>
  </outline>
</glyph>
<glyph name="two" format="2">
  <advance width="570"/>
  <unicode hex="0032"/>
  <note>
two
</note>
  <outline>
    <contour>
      <point x="50" y="0" type="line"/>
      <point x="520" y="0" type="line"/>
      <point x="520" y="71" type="line"/>
      <point x="117" y="71" type="line"/>
      <point x="129" y="41" type="line"/>
      <point x="418" y="302" type="line" smooth="yes"/>
      <point x="488" y="364"/>
      <point x="520" y="415"/>
      <point x="520" y="505" type="curve" smooth="yes"/>
      <point x="520" y="633"/>
      <point x="420" y="735"/>
      <point x="289" y="735" type="curve" smooth="yes"/>
      <point x="156" y="735"/>
      <point x="55" y="637"/>
      <point x="55" y="506" type="curve"/>
      <point x="129" y="506" type="line"/>
      <point x="129" y="591"/>
      <point x="197" y="664"/>
      <point x="288" y="664" type="curve" smooth="yes"/>
      <point x="377" y="664"/>
      <point x="445" y="594"/>
      <point x="445" y="506" type="curve" smooth="yes"/>
      <point x="445" y="455"/>
      <point x="432" y="412"/>
      <point x="376" y="362" type="curve" smooth="yes"/>
      <point x="51" y="68" type="line"/>
    </contour>
  </outline>
</glyph>
<glyph name="three" format="2">
  <advance width="553"/>
  <unicode hex="0033"/>
  <note>
three
</note>
  <outline>
    <contour>
      <point x="263" y="-14" type="curve" smooth="yes"/>
      <point x="396" y="-14"/>
      <point x="493" y="81"/>
      <point x="493" y="220" type="curve" smooth="yes"/>
      <point x="493" y="365"/>
      <point x="389" y="464"/>
      <point x="240" y="445" type="curve"/>
      <point x="241" y="415" type="line"/>
      <point x="485" y="649" type="line"/>
      <point x="485" y="720" type="line"/>
      <point x="69" y="720" type="line"/>
      <point x="69" y="649" type="line"/>
      <point x="435" y="649" type="line"/>
      <point x="423" y="680" type="line"/>
      <point x="144" y="421" type="line"/>
      <point x="181" y="363" type="line"/>
      <point x="205" y="375"/>
      <point x="235" y="383"/>
      <point x="261" y="383" type="curve" smooth="yes"/>
      <point x="355" y="383"/>
      <point x="417" y="318"/>
      <point x="417" y="220" type="curve" smooth="yes"/>
      <point x="417" y="123"/>
      <point x="359" y="58"/>
      <point x="263" y="56" type="curve" smooth="yes"/>
      <point x="193" y="55"/>
      <point x="134" y="92"/>
      <point x="110" y="164" type="curve"/>
      <point x="40" y="143" type="line"/>
      <point x="70" y="45"/>
      <point x="157" y="-14"/>
    </contour>
  </outline>
</glyph>
<glyph name="four" format="2">
  <advance width="590"/>
  <unicode hex="0034"/>
  <note>
four
</note>
  <outline>
    <contour>
      <point x="387" y="0" type="line"/>
      <point x="461" y="0" type="line"/>
      <point x="461" y="139" type="line"/>
      <point x="540" y="139" type="line"/>
      <point x="540" y="210" type="line"/>
      <point x="461" y="210" type="line"/>
      <point x="461" y="420" type="line"/>
      <point x="387" y="420" type="line"/>
      <point x="387" y="210" type="line"/>
      <point x="133" y="210" type="line"/>
      <point x="374" y="720" type="line"/>
      <point x="291" y="720" type="line"/>
      <point x="50" y="210" type="line"/>
      <point x="50" y="139" type="line"/>
      <point x="387" y="139" type="line"/>
    </contour>
  </outline>
</glyph>
<glyph name="five" format="2">
  <advance width="578"/>
  <unicode hex="0035"/>
  <note>
five
</note>
  <outline>
    <contour>
      <point x="283" y="-15" type="curve" smooth="yes"/>
      <point x="416" y="-15"/>
      <point x="528" y="94"/>
      <point x="528" y="226" type="curve" smooth="yes"/>
      <point x="528" y="360"/>
      <point x="424" y="464"/>
      <point x="291" y="464" type="curve" smooth="yes"/>
      <point x="226" y="464"/>
      <point x="164" y="436"/>
      <point x="124" y="389" type="curve"/>
      <point x="142" y="364" type="line"/>
      <point x="162" y="684" type="line"/>
      <point x="125" y="650" type="line"/>
      <point x="477" y="650" type="line"/>
      <point x="477" y="720" type="line"/>
      <point x="93" y="720" type="line"/>
      <point x="71" y="346" type="line"/>
      <point x="138" y="317" type="line"/>
      <point x="167" y="362"/>
      <point x="217" y="396"/>
      <point x="284" y="396" type="curve" smooth="yes"/>
      <point x="376" y="396"/>
      <point x="454" y="322"/>
      <point x="454" y="226" type="curve" smooth="yes"/>
      <point x="454" y="134"/>
      <point x="380" y="57"/>
      <point x="284" y="57" type="curve" smooth="yes"/>
      <point x="211" y="57"/>
      <point x="140" y="106"/>
      <point x="120" y="183" type="curve"/>
      <point x="50" y="164" type="line"/>
      <point x="79" y="60"/>
      <point x="170" y="-15"/>
    </contour>
  </outline>
</glyph>
<glyph name="six" format="2">
  <advance width="621"/>
  <unicode hex="0036"/>
  <note>
six
</note>
  <outline>
    <contour>
      <point x="314" y="-15" type="curve" smooth="yes"/>
      <point x="447" y="-15"/>
      <point x="557" y="92"/>
      <point x="557" y="226" type="curve" smooth="yes"/>
      <point x="557" y="359"/>
      <point x="454" y="464"/>
      <point x="321" y="464" type="curve" smooth="yes"/>
      <point x="239" y="464"/>
      <point x="168" y="420"/>
      <point x="126" y="354" type="curve"/>
      <point x="144" y="333" type="line"/>
      <point x="144" y="490" type="line" smooth="yes"/>
      <point x="144" y="582"/>
      <point x="218" y="664"/>
      <point x="319" y="664" type="curve" smooth="yes"/>
      <point x="379" y="664"/>
      <point x="432" y="633"/>
      <point x="463" y="586" type="curve"/>
      <point x="519" y="632" type="line"/>
      <point x="474" y="696"/>
      <point x="401" y="735"/>
      <point x="319" y="735" type="curve" smooth="yes"/>
      <point x="176" y="735"/>
      <point x="70" y="628"/>
      <point x="70" y="483" type="curve" smooth="yes"/>
      <point x="70" y="233" type="line" smooth="yes"/>
      <point x="70" y="93"/>
      <point x="178" y="-15"/>
    </contour>
    <contour>
      <point x="314" y="56" type="curve" smooth="yes"/>
      <point x="220" y="56"/>
      <point x="144" y="132"/>
      <point x="144" y="226" type="curve" smooth="yes"/>
      <point x="144" y="320"/>
      <point x="220" y="395"/>
      <point x="314" y="395" type="curve" smooth="yes"/>
      <point x="408" y="395"/>
      <point x="483" y="320"/>
      <point x="483" y="226" type="curve" smooth="yes"/>
      <point x="483" y="132"/>
      <point x="408" y="56"/>
    </contour>
  </outline>
</glyph>
<glyph name="seven" format="2">
  <advance width="502"/>
  <unicode hex="0037"/>
  <note>
seven
</note>
  <outline>
    <contour>
      <point x="109" y="0" type="line"/>
      <point x="188" y="0" type="line"/>
      <point x="452" y="649" type="line"/>
      <point x="452" y="720" type="line"/>
      <point x="40" y="720" type="line"/>
      <point x="40" y="649" type="line"/>
      <point x="373" y="649" type="line"/>
    </contour>
  </outline>
</glyph>
<glyph name="eight" format="2">
  <advance width="580"/>
  <unicode hex="0038"/>
  <note>
eight
</note>
  <outline>
    <contour>
      <point x="290" y="-15" type="curve" smooth="yes"/>
      <point x="425" y="-15"/>
      <point x="520" y="71"/>
      <point x="520" y="202" type="curve" smooth="yes"/>
      <point x="520" y="291"/>
      <point x="476" y="365"/>
      <point x="387" y="400" type="curve"/>
      <point x="390" y="372" type="line"/>
      <point x="466" y="400"/>
      <point x="502" y="466"/>
      <point x="502" y="541" type="curve" smooth="yes"/>
      <point x="502" y="662"/>
      <point x="414" y="735"/>
      <point x="290" y="735" type="curve" smooth="yes"/>
      <point x="166" y="735"/>
      <point x="77" y="662"/>
      <point x="77" y="541" type="curve" smooth="yes"/>
      <point x="77" y="466"/>
      <point x="116" y="399"/>
      <point x="190" y="371" type="curve"/>
      <point x="191" y="401" type="line"/>
      <point x="102" y="364"/>
      <point x="60" y="291"/>
      <point x="60" y="202" type="curve" smooth="yes"/>
      <point x="60" y="71"/>
      <point x="154" y="-15"/>
    </contour>
    <contour>
      <point x="290" y="56" type="curve" smooth="yes"/>
      <point x="199" y="56"/>
      <point x="137" y="107"/>
      <point x="137" y="202" type="curve" smooth="yes"/>
      <point x="137" y="298"/>
      <point x="198" y="349"/>
      <point x="290" y="349" type="curve" smooth="yes"/>
      <point x="382" y="349"/>
      <point x="442" y="298"/>
      <point x="442" y="202" type="curve" smooth="yes"/>
      <point x="442" y="107"/>
      <point x="380" y="56"/>
    </contour>
    <contour>
      <point x="290" y="420" type="curve" smooth="yes"/>
      <point x="210" y="420"/>
      <point x="155" y="461"/>
      <point x="155" y="541" type="curve" smooth="yes"/>
      <point x="155" y="622"/>
      <point x="210" y="663"/>
      <point x="290" y="663" type="curve" smooth="yes"/>
      <point x="370" y="663"/>
      <point x="424" y="622"/>
      <point x="424" y="541" type="curve" smooth="yes"/>
      <point x="424" y="461"/>
      <point x="370" y="420"/>
    </contour>
  </outline>
</glyph>
<glyph name="less" format="2">
  <advance width="614"/>
  <unicode hex="003C"/>
  <note>
less
</note>
  <outline>
    <contour>
      <point x="375" y="80" type="line"/>
      <point x="421" y="126" type="line"/>
      <point x="231" y="315" type="line"/>
      <point x="421" y="504" type="line"/>
      <point x="375" y="550" type="line"/>
      <point x="140" y="315" type="line"/>
    </contour>
  </outline>
</glyph>
<glyph name="equal" format="2">
  <advance width="750"/>
  <unicode hex="003D"/>
  <note>
equal
</note>
  <outline>
    <contour>
      <point x="120" y="414" type="line"/>
      <point x="630" y="414" type="line"/>
      <point x="630" y="477" type="line"/>
      <point x="120" y="477" type="line"/>
    </contour>
    <contour>
      <point x="120" y="243" type="line"/>
      <point x="630" y="243" type="line"/>
      <point x="630" y="306" type="line"/>
      <point x="120" y="306" type="line"/>
    </contour>
  </outline>
</glyph>
<glyph name="question" format="2">
  <advance width="524"/>
  <unicode hex="003F"/>
  <note>
question
</note>
  <outline>
    <contour>
      <point x="211" y="196" type="curve"/>
      <point x="289" y="196" type="line"/>
      <point x="289" y="240"/>
      <point x="287" y="265"/>
      <point x="304" y="296" type="curve" smooth="yes"/>
      <point x="326" y="336"/>
      <point x="380" y="363"/>
      <point x="415" y="400" type="curve" smooth="yes"/>
      <point x="451" y="437"/>
      <point x="474" y="487"/>
      <point x="474" y="542" type="curve" smooth="yes"/>
      <point x="474" y="591"/>
      <point x="459" y="636"/>
      <point x="427" y="671" type="curve" smooth="yes"/>
      <point x="387" y="716"/>
      <point x="325" y="735"/>
      <point x="260" y="735" type="curve" smooth="yes"/>
      <point x="207" y="735"/>
      <point x="151" y="719"/>
      <point x="112" y="683" type="curve" smooth="yes"/>
      <point x="73" y="649"/>
      <point x="53" y="595"/>
      <point x="50" y="542" type="curve"/>
      <point x="126" y="542" type="line"/>
      <point x="126" y="576"/>
      <point x="135" y="607"/>
      <point x="158" y="628" type="curve" smooth="yes"/>
      <point x="181" y="652"/>
      <point x="219" y="664"/>
      <point x="261" y="664" type="curve" smooth="yes"/>
      <point x="302" y="664"/>
      <point x="343" y="654"/>
      <point x="370" y="622" type="curve" smooth="yes"/>
      <point x="387" y="602"/>
      <point x="396" y="575"/>
      <point x="396" y="542" type="curve" smooth="yes"/>
      <point x="396" y="507"/>
      <point x="389" y="477"/>
      <point x="363" y="448" type="curve" smooth="yes"/>
      <point x="320" y="402"/>
      <point x="264" y="382"/>
      <point x="235" y="325" type="curve" smooth="yes"/>
      <point x="213" y="285"/>
      <point x="211" y="248"/>
    </contour>
    <contour>
      <point x="211" y="0" type="line"/>
      <point x="289" y="0" type="line"/>
      <point x="289" y="98" type="line"/>
      <point x="211" y="98" type="line"/>
    </contour>
  </outline>
</glyph>
<glyph name="at" format="2">
  <advance width="913"/>
  <unicode hex="0040"/>
  <note>
at
</note>
  <outline>
    <contour>
      <point x="458" y="-105" type="curve" smooth="yes"/>
      <point x="525" y="-105"/>
      <point x="593" y="-91"/>
      <point x="651" y="-58" type="curve"/>
      <point x="625" y="0" type="line"/>
      <point x="576" y="-29"/>
      <point x="518" y="-42"/>
      <point x="460" y="-42" type="curve" smooth="yes"/>
      <point x="268" y="-42"/>
      <point x="149" y="68"/>
      <point x="147" y="266" type="curve" smooth="yes"/>
      <point x="145" y="487"/>
      <point x="293" y="580"/>
      <point x="455" y="580" type="curve" smooth="yes"/>
      <point x="624" y="580"/>
      <point x="762" y="486"/>
      <point x="765" y="269" type="curve" smooth="yes"/>
      <point x="767" y="205"/>
      <point x="749" y="133"/>
      <point x="685" y="133" type="curve" smooth="yes"/>
      <point x="645" y="133"/>
      <point x="606" y="163"/>
      <point x="606" y="216" type="curve"/>
      <point x="606" y="411" type="line"/>
      <point x="553" y="411" type="line"/>
      <point x="553" y="346" type="line"/>
      <point x="573" y="368" type="line"/>
      <point x="548" y="408"/>
      <point x="495" y="425"/>
      <point x="453" y="425" type="curve" smooth="yes"/>
      <point x="363" y="425"/>
      <point x="297" y="362"/>
      <point x="298" y="269" type="curve" smooth="yes"/>
      <point x="300" y="174"/>
      <point x="361" y="114"/>
      <point x="452" y="114" type="curve" smooth="yes"/>
      <point x="500" y="114"/>
      <point x="552" y="134"/>
      <point x="575" y="173" type="curve"/>
      <point x="550" y="178" type="line"/>
      <point x="555" y="119"/>
      <point x="619" y="70"/>
      <point x="686" y="70" type="curve" smooth="yes"/>
      <point x="784" y="70"/>
      <point x="833" y="157"/>
      <point x="833" y="269" type="curve" smooth="yes"/>
      <point x="833" y="507"/>
      <point x="674" y="645"/>
      <point x="452" y="645" type="curve" smooth="yes"/>
      <point x="236" y="645"/>
      <point x="77" y="504"/>
      <point x="80" y="265" type="curve" smooth="yes"/>
      <point x="83" y="37"/>
      <point x="227" y="-105"/>
    </contour>
    <contour>
      <point x="455" y="178" type="curve" smooth="yes"/>
      <point x="399" y="178"/>
      <point x="364" y="210"/>
      <point x="364" y="270" type="curve" smooth="yes"/>
      <point x="364" y="328"/>
      <point x="396" y="363"/>
      <point x="456" y="363" type="curve" smooth="yes"/>
      <point x="509" y="363"/>
      <point x="543" y="331"/>
      <point x="543" y="270" type="curve" smooth="yes"/>
      <point x="543" y="207"/>
      <point x="509" y="178"/>
    </contour>
  </outline>
</glyph>
<glyph name="A" format="2">
  <advance width="634"/>
  <unicode hex="0041"/>
  <note>
A
</note>
  <outline>
    <contour>
      <point x="20" y="0" type="line"/>
      <point x="97" y="0" type="line"/>
      <point x="330" y="679" type="line"/>
      <point x="302" y="679" type="line"/>
      <point x="537" y="0" type="line"/>
      <point x="614" y="0" type="line"/>
      <point x="366" y="720" type="line"/>
      <point x="268" y="720" type="line"/>
    </contour>
    <contour>
      <point x="131" y="175" type="line"/>
      <point x="503" y="175" type="line"/>
      <point x="503" y="244" type="line"/>
      <point x="131" y="244" type="line"/>
    </contour>
  </outline>
</glyph>
<glyph name="B" format="2">
  <advance width="613"/>
  <unicode hex="0042"/>
  <note>
B
</note>
  <outline>
    <contour>
      <point x="70" y="0" type="line"/>
      <point x="371" y="0" type="line" smooth="yes"/>
      <point x="498" y="0"/>
      <point x="584" y="77"/>
      <point x="584" y="202" type="curve" smooth="yes"/>
      <point x="584" y="297"/>
      <point x="527" y="366"/>
      <point x="433" y="393" type="curve"/>
      <point x="435" y="369" type="line"/>
      <point x="504" y="392"/>
      <point x="549" y="457"/>
      <point x="549" y="535" type="curve" smooth="yes"/>
      <point x="549" y="636"/>
      <point x="469" y="720"/>
      <point x="348" y="720" type="curve" smooth="yes"/>
      <point x="70" y="720" type="line"/>
    </contour>
    <contour>
      <point x="144" y="71" type="line"/>
      <point x="144" y="343" type="line"/>
      <point x="366" y="343" type="line" smooth="yes"/>
      <point x="447" y="343"/>
      <point x="507" y="281"/>
      <point x="507" y="201" type="curve" smooth="yes"/>
      <point x="507" y="119"/>
      <point x="441" y="71"/>
      <point x="353" y="71" type="curve" smooth="yes"/>
    </contour>
    <contour>
      <point x="144" y="413" type="line"/>
      <point x="144" y="650" type="line"/>
      <point x="347" y="650" type="line" smooth="yes"/>
      <point x="420" y="650"/>
      <point x="473" y="604"/>
      <point x="473" y="536" type="curve" smooth="yes"/>
      <point x="473" y="463"/>
      <point x="417" y="413"/>
      <point x="347" y="413" type="curve" smooth="yes"/>
    </contour>
  </outline>
</glyph>
<glyph name="C" format="2">
  <advance width="710"/>
  <unicode hex="0043"/>
  <note>
C
</note>
  <outline>
    <contour>
      <point x="359" y="-15" type="curve" smooth="yes"/>
      <point x="516" y="-15"/>
      <point x="631" y="70"/>
      <point x="668" y="215" type="curve"/>
      <point x="596" y="234" type="line"/>
      <point x="563" y="122"/>
      <point x="480" y="56"/>
      <point x="360" y="56" type="curve" smooth="yes"/>
      <point x="199" y="56"/>
      <point x="108" y="173"/>
      <point x="108" y="359" type="curve" smooth="yes"/>
      <point x="108" y="538"/>
      <point x="194" y="666"/>
      <point x="362" y="664" type="curve" smooth="yes"/>
      <point x="484" y="662"/>
      <point x="572" y="591"/>
      <point x="598" y="476" type="curve"/>
      <point x="673" y="487" type="line"/>
      <point x="638" y="643"/>
      <point x="521" y="735"/>
      <point x="360" y="735" type="curve" smooth="yes"/>
      <point x="151" y="735"/>
      <point x="31" y="582"/>
      <point x="30" y="361" type="curve" smooth="yes"/>
      <point x="29" y="148"/>
      <point x="142" y="-15"/>
    </contour>
  </outline>
</glyph>
<glyph name="D" format="2">
  <advance width="671"/>
  <unicode hex="0044"/>
  <note>
D
</note>
  <outline>
    <contour>
      <point x="70" y="0" type="line"/>
      <point x="288" y="0" type="line" smooth="yes"/>
      <point x="303" y="0"/>
      <point x="347" y="0"/>
      <point x="381" y="5" type="curve" smooth="yes"/>
      <point x="545" y="27"/>
      <point x="628" y="176"/>
      <point x="628" y="360" type="curve" smooth="yes"/>
      <point x="628" y="544"/>
      <point x="545" y="693"/>
      <point x="381" y="715" type="curve" smooth="yes"/>
      <point x="347" y="720"/>
      <point x="303" y="720"/>
      <point x="288" y="720" type="curve" smooth="yes"/>
      <point x="70" y="720" type="line"/>
    </contour>
    <contour>
      <point x="146" y="71" type="line"/>
      <point x="146" y="649" type="line"/>
      <point x="288" y="649" type="line" smooth="yes"/>
      <point x="314" y="649"/>
      <point x="351" y="648"/>
      <point x="374" y="644" type="curve" smooth="yes"/>
      <point x="499" y="622"/>
      <point x="550" y="505"/>
      <point x="550" y="360" type="curve" smooth="yes"/>
      <point x="550" y="216"/>
      <point x="500" y="99"/>
      <point x="374" y="76" type="curve" smooth="yes"/>
      <point x="351" y="72"/>
      <point x="316" y="71"/>
      <point x="288" y="71" type="curve" smooth="yes"/>
    </contour>
  </outline>
</glyph>
<glyph name="E" format="2">
  <advance width="570"/>
  <unicode hex="0045"/>
  <note>
E
</note>
  <outline>
    <contour>
      <point x="70" y="0" type="line"/>
      <point x="520" y="0" type="line"/>
      <point x="520" y="70" type="line"/>
      <point x="143" y="70" type="line"/>
      <point x="143" y="330" type="line"/>
      <point x="460" y="330" type="line"/>
      <point x="460" y="400" type="line"/>
      <point x="143" y="400" type="line"/>
      <point x="143" y="650" type="line"/>
      <point x="520" y="650" type="line"/>
      <point x="520" y="720" type="line"/>
      <point x="70" y="720" type="line"/>
    </contour>
  </outline>
</glyph>
<glyph name="G" format="2">
  <advance width="705"/>
  <unicode hex="0047"/>
  <note>
G
</note>
  <outline>
    <contour>
      <point x="359" y="-15" type="curve" smooth="yes"/>
      <point x="570" y="-15"/>
      <point x="675" y="130"/>
      <point x="675" y="324" type="curve" smooth="yes"/>
      <point x="675" y="331"/>
      <point x="675" y="351"/>
      <point x="673" y="367" type="curve"/>
      <point x="430" y="367" type="line"/>
      <point x="430" y="304" type="line"/>
      <point x="596" y="304" type="line"/>
      <point x="589" y="151"/>
      <point x="516" y="55"/>
      <point x="362" y="56" type="curve" smooth="yes"/>
      <point x="193" y="56"/>
      <point x="107" y="180"/>
      <point x="108" y="360" type="curve" smooth="yes"/>
      <point x="109" y="540"/>
      <point x="193" y="664"/>
      <point x="362" y="664" type="curve" smooth="yes"/>
      <point x="468" y="663"/>
      <point x="541" y="607"/>
      <point x="573" y="519" type="curve"/>
      <point x="646" y="537" type="line"/>
      <point x="608" y="657"/>
      <point x="512" y="734"/>
      <point x="359" y="734" type="curve" smooth="yes"/>
      <point x="153" y="734"/>
      <point x="30" y="586"/>
      <point x="30" y="360" type="curve" smooth="yes"/>
      <point x="30" y="132"/>
      <point x="155" y="-15"/>
    </contour>
  </outline>
</glyph>
<glyph name="H" format="2">
  <advance width="685"/>
  <unicode hex="0048"/>
  <note>
H
</note>
  <outline>
    <contour>
      <point x="70" y="0" type="line"/>
      <point x="143" y="0" type="line"/>
      <point x="143" y="325" type="line"/>
      <point x="541" y="325" type="line"/>
      <point x="541" y="0" type="line"/>
      <point x="615" y="0" type="line"/>
      <point x="615" y="720" type="line"/>
      <point x="541" y="720" type="line"/>
      <point x="541" y="395" type="line"/>
      <point x="143" y="395" type="line"/>
      <point x="143" y="720" type="line"/>
      <point x="70" y="720" type="line"/>
    </contour>
  </outline>
</glyph>
<glyph name="J" format="2">
  <advance width="464"/>
  <unicode hex="004A"/>
  <note>
J
</note>
  <outline>
    <contour>
      <point x="193" y="-14" type="curve" smooth="yes"/>
      <point x="263" y="-14"/>
      <point x="325" y="15"/>
      <point x="360" y="76" type="curve" smooth="yes"/>
      <point x="386" y="121"/>
      <point x="383" y="162"/>
      <point x="383" y="221" type="curve" smooth="yes"/>
      <point x="383" y="720" type="line"/>
      <point x="309" y="720" type="line"/>
      <point x="309" y="221" type="line" smooth="yes"/>
      <point x="309" y="174"/>
      <point x="309" y="142"/>
      <point x="294" y="114" type="curve" smooth="yes"/>
      <point x="273" y="72"/>
      <point x="229" y="56"/>
      <point x="192" y="56" type="curve" smooth="yes"/>
      <point x="133" y="56"/>
      <point x="85" y="97"/>
      <point x="73" y="150" type="curve"/>
      <point x="0" y="133" type="line"/>
      <point x="24" y="43"/>
      <point x="97" y="-14"/>
    </contour>
  </outline>
</glyph>
<glyph name="K" format="2">
  <advance width="594"/>
  <unicode hex="004B"/>
  <note>
K
</note>
  <outline>
    <contour>
      <point x="70" y="0" type="line"/>
      <point x="143" y="0" type="line"/>
      <point x="143" y="360" type="line"/>
      <point x="498" y="0" type="line"/>
      <point x="594" y="0" type="line"/>
      <point x="230" y="372" type="line"/>
      <point x="566" y="720" type="line"/>
      <point x="472" y="720" type="line"/>
      <point x="143" y="380" type="line"/>
      <point x="143" y="720" type="line"/>
      <point x="70" y="720" type="line"/>
    </contour>
  </outline>
</glyph>
<glyph name="L" format="2">
  <advance width="510"/>
  <unicode hex="004C"/>
  <note>
L
</note>
  <outline>
    <contour>
      <point x="80" y="0" type="line"/>
      <point x="495" y="0" type="line"/>
      <point x="495" y="70" type="line"/>
      <point x="153" y="70" type="line"/>
      <point x="153" y="720" type="line"/>
      <point x="80" y="720" type="line"/>
    </contour>
  </outline>
</glyph>
<glyph name="M" format="2">
  <advance width="841"/>
  <unicode hex="004D"/>
  <note>
M
</note>
  <outline>
    <contour>
      <point x="70" y="0" type="line"/>
      <point x="140" y="0" type="line"/>
      <point x="140" y="556" type="line"/>
      <point x="397" y="0" type="line"/>
      <point x="444" y="0" type="line"/>
      <point x="700" y="556" type="line"/>
      <point x="700" y="1" type="line"/>
      <point x="771" y="1" type="line"/>
      <point x="771" y="720" type="line"/>
      <point x="702" y="720" type="line"/>
      <point x="421" y="115" type="line"/>
      <point x="137" y="720" type="line"/>
      <point x="70" y="720" type="line"/>
    </contour>
  </outline>
</glyph>
<glyph name="N" format="2">
  <advance width="684"/>
  <unicode hex="004E"/>
  <note>
N
</note>
  <outline>
    <contour>
      <point x="70" y="0" type="line"/>
      <point x="144" y="0" type="line"/>
      <point x="144" y="591" type="line"/>
      <point x="540" y="0" type="line"/>
      <point x="614" y="0" type="line"/>
      <point x="614" y="720" type="line"/>
      <point x="540" y="720" type="line"/>
      <point x="540" y="130" type="line"/>
      <point x="144" y="720" type="line"/>
      <point x="70" y="720" type="line"/>
    </contour>
  </outline>
</glyph>
<glyph name="O" format="2">
  <advance width="723"/>
  <unicode hex="004F"/>
  <outline>
    <contour>
      <point x="362" y="-15" type="curve" smooth="yes"/>
      <point x="577" y="-15"/>
      <point x="693" y="139"/>
      <point x="693" y="360" type="curve" smooth="yes"/>
      <point x="693" y="581"/>
      <point x="577" y="734"/>
      <point x="362" y="734" type="curve" smooth="yes"/>
      <point x="146" y="734"/>
      <point x="30" y="581"/>
      <point x="30" y="360" type="curve" smooth="yes"/>
      <point x="30" y="139"/>
      <point x="146" y="-15"/>
    </contour>
    <contour>
      <point x="362" y="56" type="curve" smooth="yes"/>
      <point x="193" y="56"/>
      <point x="107" y="180"/>
      <point x="108" y="360" type="curve" smooth="yes"/>
      <point x="109" y="540"/>
      <point x="193" y="664"/>
      <point x="362" y="664" type="curve" smooth="yes"/>
      <point x="531" y="663"/>
      <point x="617" y="540"/>
      <point x="615" y="360" type="curve" smooth="yes"/>
      <point x="614" y="180"/>
      <point x="531" y="55"/>
    </contour>
  </outline>
</glyph>
<glyph name="P" format="2">
  <advance width="604"/>
  <unicode hex="0050"/>
  <note>
P
</note>
  <outline>
    <contour>
      <point x="70" y="0" type="line"/>
      <point x="143" y="0" type="line"/>
      <point x="143" y="273" type="line"/>
      <point x="348" y="273" type="line" smooth="yes"/>
      <point x="362" y="273"/>
      <point x="380" y="274"/>
      <point x="399" y="277" type="curve" smooth="yes"/>
      <point x="511" y="295"/>
      <point x="574" y="384"/>
      <point x="574" y="497" type="curve" smooth="yes"/>
      <point x="574" y="609"/>
      <point x="511" y="699"/>
      <point x="399" y="716" type="curve" smooth="yes"/>
      <point x="380" y="719"/>
      <point x="362" y="720"/>
      <point x="348" y="720" type="curve" smooth="yes"/>
      <point x="70" y="720" type="line"/>
    </contour>
    <contour>
      <point x="143" y="344" type="line"/>
      <point x="143" y="650" type="line"/>
      <point x="346" y="650" type="line" smooth="yes"/>
      <point x="358" y="650"/>
      <point x="375" y="649"/>
      <point x="391" y="645" type="curve" smooth="yes"/>
      <point x="464" y="630"/>
      <point x="498" y="564"/>
      <point x="498" y="497" type="curve" smooth="yes"/>
      <point x="498" y="430"/>
      <point x="464" y="364"/>
      <point x="391" y="348" type="curve" smooth="yes"/>
      <point x="375" y="345"/>
      <point x="358" y="344"/>
      <point x="346" y="344" type="curve" smooth="yes"/>
    </contour>
  </outline>
</glyph>
<glyph name="Q" format="2">
  <advance width="723"/>
  <unicode hex="0051"/>
  <note>
Q
</note>
  <outline>
    <contour>
      <point x="636" y="-14" type="line"/>
      <point x="685" y="36" type="line"/>
      <point x="494" y="227" type="line"/>
      <point x="444" y="177" type="line"/>
    </contour>
    <component base="O"/>
  </outline>
</glyph>
<glyph name="R" format="2">
  <advance width="631"/>
  <unicode hex="0052"/>
  <note>
R
</note>
  <outline>
    <contour>
      <point x="70" y="0" type="line"/>
      <point x="143" y="0" type="line"/>
      <point x="143" y="273" type="line"/>
      <point x="383" y="273" type="line"/>
      <point x="408" y="279" type="line"/>
      <point x="515" y="300"/>
      <point x="574" y="388"/>
      <point x="574" y="497" type="curve" smooth="yes"/>
      <point x="574" y="609"/>
      <point x="511" y="699"/>
      <point x="399" y="716" type="curve" smooth="yes"/>
      <point x="380" y="719"/>
      <point x="362" y="720"/>
      <point x="348" y="720" type="curve" smooth="yes"/>
      <point x="70" y="720" type="line"/>
    </contour>
    <contour>
      <point x="506" y="0" type="line"/>
      <point x="591" y="0" type="line"/>
      <point x="435" y="320" type="line"/>
      <point x="364" y="293" type="line"/>
    </contour>
    <contour>
      <point x="143" y="344" type="line"/>
      <point x="143" y="650" type="line"/>
      <point x="346" y="650" type="line" smooth="yes"/>
      <point x="358" y="650"/>
      <point x="375" y="649"/>
      <point x="391" y="645" type="curve" smooth="yes"/>
      <point x="464" y="630"/>
      <point x="498" y="564"/>
      <point x="498" y="497" type="curve" smooth="yes"/>
      <point x="498" y="430"/>
      <point x="464" y="364"/>
      <point x="391" y="348" type="curve" smooth="yes"/>
      <point x="375" y="345"/>
      <point x="358" y="344"/>
      <point x="346" y="344" type="curve" smooth="yes"/>
    </contour>
  </outline>
</glyph>
<glyph name="S" format="2">
  <advance width="616"/>
  <unicode hex="0053"/>
  <note>
S
</note>
  <outline>
    <contour>
      <point x="320" y="-15" type="curve" smooth="yes"/>
      <point x="463" y="-15"/>
      <point x="583" y="56"/>
      <point x="583" y="197" type="curve" smooth="yes"/>
      <point x="583" y="332"/>
      <point x="471" y="367"/>
      <point x="408" y="385" type="curve" smooth="yes"/>
      <point x="267" y="426" type="line" smooth="yes"/>
      <point x="196" y="447"/>
      <point x="139" y="472"/>
      <point x="139" y="539" type="curve" smooth="yes"/>
      <point x="139" y="614"/>
      <point x="214" y="665"/>
      <point x="307" y="664" type="curve" smooth="yes"/>
      <point x="404" y="664"/>
      <point x="487" y="607"/>
      <point x="502" y="511" type="curve"/>
      <point x="579" y="524" type="line"/>
      <point x="555" y="658"/>
      <point x="447" y="734"/>
      <point x="308" y="735" type="curve" smooth="yes"/>
      <point x="170" y="735"/>
      <point x="61" y="662"/>
      <point x="61" y="536" type="curve" smooth="yes"/>
      <point x="61" y="412"/>
      <point x="168" y="378"/>
      <point x="215" y="364" type="curve" smooth="yes"/>
      <point x="383" y="315" type="line" smooth="yes"/>
      <point x="449" y="295"/>
      <point x="508" y="270"/>
      <point x="508" y="194" type="curve" smooth="yes"/>
      <point x="508" y="103"/>
      <point x="421" y="55"/>
      <point x="323" y="55" type="curve" smooth="yes"/>
      <point x="219" y="55"/>
      <point x="133" y="109"/>
      <point x="109" y="205" type="curve"/>
      <point x="33" y="193" type="line"/>
      <point x="59" y="61"/>
      <point x="174" y="-15"/>
    </contour>
  </outline>
</glyph>
<glyph name="T" format="2">
  <advance width="597"/>
  <unicode hex="0054"/>
  <note>
T
</note>
  <outline>
    <contour>
      <point x="262" y="0" type="line"/>
      <point x="335" y="0" type="line"/>
      <point x="335" y="650" type="line"/>
      <point x="587" y="650" type="line"/>
      <point x="587" y="720" type="line"/>
      <point x="10" y="720" type="line"/>
      <point x="10" y="650" type="line"/>
      <point x="262" y="650" type="line"/>
    </contour>
  </outline>
</glyph>
<glyph name="U" format="2">
  <advance width="702"/>
  <unicode hex="0055"/>
  <note>
U
</note>
  <outline>
    <contour>
      <point x="351" y="-15" type="curve" smooth="yes"/>
      <point x="516" y="-15"/>
      <point x="632" y="94"/>
      <point x="632" y="260" type="curve" smooth="yes"/>
      <point x="632" y="720" type="line"/>
      <point x="558" y="720" type="line"/>
      <point x="558" y="270" type="line" smooth="yes"/>
      <point x="558" y="120"/>
      <point x="444" y="54"/>
      <point x="351" y="54" type="curve" smooth="yes"/>
      <point x="258" y="54"/>
      <point x="144" y="119"/>
      <point x="144" y="270" type="curve" smooth="yes"/>
      <point x="144" y="720" type="line"/>
      <point x="70" y="720" type="line"/>
      <point x="70" y="260" type="line" smooth="yes"/>
      <point x="70" y="94"/>
      <point x="186" y="-15"/>
    </contour>
  </outline>
</glyph>
<glyph name="V" format="2">
  <advance width="604"/>
  <unicode hex="0056"/>
  <note>
V
</note>
  <outline>
    <contour>
      <point x="253" y="0" type="line"/>
      <point x="351" y="0" type="line"/>
      <point x="599" y="720" type="line"/>
      <point x="522" y="720" type="line"/>
      <point x="301" y="83" type="line"/>
      <point x="82" y="720" type="line"/>
      <point x="5" y="720" type="line"/>
    </contour>
  </outline>
</glyph>
<glyph name="W" format="2">
  <advance width="936"/>
  <unicode hex="0057"/>
  <note>
W
</note>
  <outline>
    <contour>
      <point x="224" y="0" type="line"/>
      <point x="298" y="0" type="line"/>
      <point x="467" y="591" type="line"/>
      <point x="637" y="0" type="line"/>
      <point x="711" y="0" type="line"/>
      <point x="919" y="720" type="line"/>
      <point x="842" y="720" type="line"/>
      <point x="674" y="126" type="line"/>
      <point x="506" y="720" type="line"/>
      <point x="429" y="720" type="line"/>
      <point x="261" y="126" type="line"/>
      <point x="93" y="720" type="line"/>
      <point x="17" y="720" type="line"/>
    </contour>
  </outline>
</glyph>
<glyph name="X" format="2">
  <advance width="606"/>
  <unicode hex="0058"/>
  <note>
X
</note>
  <outline>
    <contour>
      <point x="10" y="0" type="line"/>
      <point x="99" y="0" type="line"/>
      <point x="303" y="303" type="line"/>
      <point x="507" y="0" type="line"/>
      <point x="596" y="0" type="line"/>
      <point x="347" y="365" type="line"/>
      <point x="590" y="720" type="line"/>
      <point x="501" y="720" type="line"/>
      <point x="303" y="426" type="line"/>
      <point x="105" y="720" type="line"/>
      <point x="16" y="720" type="line"/>
      <point x="259" y="365" type="line"/>
    </contour>
  </outline>
</glyph>
<glyph name="Y" format="2">
  <advance width="556"/>
  <unicode hex="0059"/>
  <note>
Y
</note>
  <outline>
    <contour>
      <point x="241" y="0" type="line"/>
      <point x="315" y="0" type="line"/>
      <point x="315" y="302" type="line"/>
      <point x="556" y="720" type="line"/>
      <point x="471" y="720" type="line"/>
      <point x="278" y="386" type="line"/>
      <point x="85" y="720" type="line"/>
      <point x="0" y="720" type="line"/>
      <point x="241" y="302" type="line"/>
    </contour>
  </outline>
</glyph>
<glyph name="Z" format="2">
  <advance width="614"/>
  <unicode hex="005A"/>
  <note>
Z
</note>
  <outline>
    <contour>
      <point x="50" y="0" type="line"/>
      <point x="561" y="0" type="line"/>
      <point x="561" y="70" type="line"/>
      <point x="173" y="70" type="line"/>
      <point x="564" y="703" type="line"/>
      <point x="564" y="720" type="line"/>
      <point x="60" y="720" type="line"/>
      <point x="60" y="650" type="line"/>
      <point x="443" y="650" type="line"/>
      <point x="50" y="16" type="line"/>
    </contour>
  </outline>
</glyph>
<glyph name="bracketleft" format="2">
  <advance width="407"/>
  <unicode hex="005B"/>
  <outline>
    <contour>
      <point x="140" y="-218" type="line"/>
      <point x="327" y="-218" type="line"/>
      <point x="327" y="-150" type="line"/>
      <point x="208" y="-150" type="line"/>
      <point x="208" y="820" type="line"/>
      <point x="327" y="820" type="line"/>
      <point x="327" y="888" type="line"/>
      <point x="140" y="888" type="line"/>
    </contour>
  </outline>
</glyph>
<glyph name="a" format="2">
  <advance width="556"/>
  <unicode hex="0061"/>
  <note>
a
</note>
  <outline>
    <contour>
      <point x="227" y="-15" type="curve" smooth="yes"/>
      <point x="326" y="-15"/>
      <point x="407" y="31"/>
      <point x="445" y="113" type="curve"/>
      <point x="430" y="132" type="line"/>
      <point x="430" y="0" type="line"/>
      <point x="496" y="0" type="line"/>
      <point x="496" y="333" type="line"/>
      <point x="496" y="358"/>
      <point x="494" y="388"/>
      <point x="486" y="418" type="curve" smooth="yes"/>
      <point x="462" y="504"/>
      <point x="394" y="555"/>
      <point x="282" y="555" type="curve" smooth="yes"/>
      <point x="173" y="555"/>
      <point x="86" y="501"/>
      <point x="60" y="408" type="curve"/>
      <point x="130" y="386" type="line"/>
      <point x="151" y="458"/>
      <point x="211" y="486"/>
      <point x="279" y="486" type="curve" smooth="yes"/>
      <point x="384" y="486"/>
      <point x="428" y="422"/>
      <point x="422" y="321" type="curve"/>
      <point x="434" y="335" type="line"/>
      <point x="271" y="315" type="line" smooth="yes"/>
      <point x="196" y="306"/>
      <point x="40" y="285"/>
      <point x="40" y="144" type="curve" smooth="yes"/>
      <point x="40" y="49"/>
      <point x="111" y="-15"/>
    </contour>
    <contour>
      <point x="234" y="48" type="curve" smooth="yes"/>
      <point x="159" y="48"/>
      <point x="114" y="85"/>
      <point x="114" y="143" type="curve" smooth="yes"/>
      <point x="114" y="242"/>
      <point x="245" y="256"/>
      <point x="316" y="264" type="curve" smooth="yes"/>
      <point x="447" y="278" type="line"/>
      <point x="423" y="295" type="line"/>
      <point x="424" y="255"/>
      <point x="424" y="189"/>
      <point x="401" y="141" type="curve" smooth="yes"/>
      <point x="374" y="87"/>
      <point x="310" y="48"/>
    </contour>
  </outline>
</glyph>
<glyph name="c" format="2">
  <advance width="554"/>
  <unicode hex="0063"/>
  <note>
c
</note>
  <outline>
    <contour>
      <point x="294" y="-15" type="curve" smooth="yes"/>
      <point x="401" y="-15"/>
      <point x="480" y="36"/>
      <point x="520" y="133" type="curve"/>
      <point x="447" y="154" type="line"/>
      <point x="419" y="90"/>
      <point x="367" y="55"/>
      <point x="294" y="55" type="curve" smooth="yes"/>
      <point x="178" y="55"/>
      <point x="119" y="141"/>
      <point x="118" y="270" type="curve" smooth="yes"/>
      <point x="119" y="396"/>
      <point x="175" y="485"/>
      <point x="294" y="485" type="curve" smooth="yes"/>
      <point x="365" y="485"/>
      <point x="423" y="447"/>
      <point x="448" y="382" type="curve"/>
      <point x="520" y="406" type="line"/>
      <point x="490" y="498"/>
      <point x="404" y="555"/>
      <point x="295" y="555" type="curve" smooth="yes"/>
      <point x="133" y="555"/>
      <point x="42" y="440"/>
      <point x="40" y="270" type="curve" smooth="yes"/>
      <point x="42" y="103"/>
      <point x="131" y="-15"/>
    </contour>
  </outline>
</glyph>
<glyph name="d" format="2">
  <advance width="592"/>
  <unicode hex="0064"/>
  <note>
d
</note>
  <outline>
    <contour>
      <point x="280" y="-15" type="curve" smooth="yes"/>
      <point x="429" y="-15"/>
      <point x="510" y="109"/>
      <point x="510" y="271" type="curve" smooth="yes"/>
      <point x="510" y="434"/>
      <point x="429" y="555"/>
      <point x="277" y="555" type="curve" smooth="yes"/>
      <point x="128" y="555"/>
      <point x="40" y="432"/>
      <point x="40" y="271" type="curve" smooth="yes"/>
      <point x="40" y="109"/>
      <point x="128" y="-15"/>
    </contour>
    <contour>
      <point x="287" y="53" type="curve" smooth="yes"/>
      <point x="174" y="53"/>
      <point x="118" y="148"/>
      <point x="118" y="271" type="curve" smooth="yes"/>
      <point x="118" y="393"/>
      <point x="172" y="487"/>
      <point x="289" y="487" type="curve" smooth="yes"/>
      <point x="401" y="487"/>
      <point x="456" y="397"/>
      <point x="456" y="271" type="curve" smooth="yes"/>
      <point x="456" y="145"/>
      <point x="402" y="53"/>
    </contour>
    <contour>
      <point x="456" y="0" type="line"/>
      <point x="522" y="0" type="line"/>
      <point x="522" y="720" type="line"/>
      <point x="449" y="720" type="line"/>
      <point x="449" y="407" type="line"/>
      <point x="456" y="407" type="line"/>
    </contour>
  </outline>
</glyph>
<glyph name="e" format="2">
  <advance width="585"/>
  <unicode hex="0065"/>
  <note>
e
</note>
  <outline>
    <contour>
      <point x="298" y="-15" type="curve" smooth="yes"/>
      <point x="403" y="-15"/>
      <point x="491" y="38"/>
      <point x="534" y="133" type="curve"/>
      <point x="465" y="159" type="line"/>
      <point x="431" y="90"/>
      <point x="372" y="55"/>
      <point x="296" y="55" type="curve" smooth="yes"/>
      <point x="179" y="55"/>
      <point x="118" y="140"/>
      <point x="118" y="270" type="curve" smooth="yes"/>
      <point x="118" y="397"/>
      <point x="173" y="489"/>
      <point x="296" y="488" type="curve" smooth="yes"/>
      <point x="416" y="489"/>
      <point x="466" y="407"/>
      <point x="469" y="275" type="curve"/>
      <point x="469" y="249" type="line"/>
      <point x="544" y="249" type="line"/>
      <point x="549" y="430"/>
      <point x="466" y="555"/>
      <point x="296" y="555" type="curve" smooth="yes"/>
      <point x="136" y="555"/>
      <point x="40" y="439"/>
      <point x="40" y="268" type="curve" smooth="yes"/>
      <point x="40" y="103"/>
      <point x="136" y="-15"/>
    </contour>
    <contour>
      <point x="92" y="249" type="line"/>
      <point x="505" y="249" type="line"/>
      <point x="505" y="312" type="line"/>
      <point x="92" y="312" type="line"/>
    </contour>
  </outline>
</glyph>
<glyph name="f" format="2">
  <advance width="355"/>
  <unicode hex="0066"/>
  <note>
f
</note>
  <outline>
    <contour>
      <point x="124" y="0" type="line"/>
      <point x="197" y="0" type="line"/>
      <point x="197" y="588" type="line" smooth="yes"/>
      <point x="197" y="647"/>
      <point x="224" y="673"/>
      <point x="281" y="673" type="curve" smooth="yes"/>
      <point x="345" y="673" type="line"/>
      <point x="345" y="735" type="line"/>
      <point x="276" y="735" type="line" smooth="yes"/>
      <point x="234" y="735"/>
      <point x="190" y="731"/>
      <point x="157" y="696" type="curve" smooth="yes"/>
      <point x="127" y="663"/>
      <point x="124" y="622"/>
      <point x="124" y="580" type="curve" smooth="yes"/>
    </contour>
    <contour>
      <point x="30" y="477" type="line"/>
      <point x="345" y="477" type="line"/>
      <point x="345" y="540" type="line"/>
      <point x="30" y="540" type="line"/>
    </contour>
  </outline>
</glyph>
<glyph name="g" format="2">
  <advance width="592"/>
  <unicode hex="0067"/>
  <note>
g
</note>
  <outline>
    <contour>
      <point x="284" y="-255" type="curve" smooth="yes"/>
      <point x="417" y="-255"/>
      <point x="497" y="-199"/>
      <point x="516" y="-79" type="curve" smooth="yes"/>
      <point x="521" y="-51"/>
      <point x="522" y="-23"/>
      <point x="522" y="8" type="curve" smooth="yes"/>
      <point x="522" y="540" type="line"/>
      <point x="456" y="540" type="line"/>
      <point x="456" y="153" type="line"/>
      <point x="448" y="153" type="line"/>
      <point x="448" y="8" type="line" smooth="yes"/>
      <point x="449" y="-118"/>
      <point x="402" y="-183"/>
      <point x="285" y="-183" type="curve" smooth="yes"/>
      <point x="227" y="-183"/>
      <point x="168" y="-159"/>
      <point x="138" y="-99" type="curve"/>
      <point x="71" y="-136" type="line"/>
      <point x="118" y="-220"/>
      <point x="202" y="-255"/>
    </contour>
    <contour>
      <point x="280" y="-15" type="curve" smooth="yes"/>
      <point x="429" y="-15"/>
      <point x="510" y="109"/>
      <point x="510" y="271" type="curve" smooth="yes"/>
      <point x="510" y="434"/>
      <point x="429" y="555"/>
      <point x="277" y="555" type="curve" smooth="yes"/>
      <point x="128" y="555"/>
      <point x="40" y="432"/>
      <point x="40" y="271" type="curve" smooth="yes"/>
      <point x="40" y="109"/>
      <point x="128" y="-15"/>
    </contour>
    <contour>
      <point x="287" y="53" type="curve" smooth="yes"/>
      <point x="174" y="53"/>
      <point x="118" y="148"/>
      <point x="118" y="271" type="curve" smooth="yes"/>
      <point x="118" y="393"/>
      <point x="172" y="487"/>
      <point x="289" y="487" type="curve" smooth="yes"/>
      <point x="401" y="487"/>
      <point x="456" y="397"/>
      <point x="456" y="271" type="curve" smooth="yes"/>
      <point x="456" y="145"/>
      <point x="402" y="53"/>
    </contour>
  </outline>
</glyph>
<glyph name="h" format="2">
  <advance width="594"/>
  <unicode hex="0068"/>
  <note>
h
</note>
  <outline>
    <contour>
      <point x="460" y="0" type="line"/>
      <point x="534" y="0" type="line"/>
      <point x="534" y="297" type="line" smooth="yes"/>
      <point x="534" y="419"/>
      <point x="479" y="553"/>
      <point x="318" y="553" type="curve" smooth="yes"/>
      <point x="185" y="553"/>
      <point x="92" y="466"/>
      <point x="92" y="300" type="curve"/>
      <point x="144" y="288" type="line"/>
      <point x="144" y="410"/>
      <point x="200" y="483"/>
      <point x="303" y="483" type="curve" smooth="yes"/>
      <point x="417" y="483"/>
      <point x="460" y="395"/>
      <point x="460" y="276" type="curve" smooth="yes"/>
    </contour>
    <contour>
      <point x="70" y="0" type="line"/>
      <point x="144" y="0" type="line"/>
      <point x="144" y="313" type="line"/>
      <point x="136" y="313" type="line"/>
      <point x="136" y="720" type="line"/>
      <point x="70" y="720" type="line"/>
    </contour>
  </outline>
</glyph>
<glyph name="i" format="2">
  <advance width="233"/>
  <unicode hex="0069"/>
  <note>
i
</note>
  <outline>
    <contour>
      <point x="80" y="649" type="line"/>
      <point x="153" y="649" type="line"/>
      <point x="153" y="732" type="line"/>
      <point x="80" y="732" type="line"/>
    </contour>
    <component base="idotless"/>
  </outline>
</glyph>
<glyph name="j" format="2">
  <advance width="250"/>
  <unicode hex="006A"/>
  <note>
j
</note>
  <outline>
    <contour>
      <point x="-10" y="-240" type="line"/>
      <point x="43" y="-240" type="line" smooth="yes"/>
      <point x="131" y="-240"/>
      <point x="174" y="-196"/>
      <point x="174" y="-106" type="curve" smooth="yes"/>
      <point x="174" y="540" type="line"/>
      <point x="100" y="540" type="line"/>
      <point x="100" y="-87" type="line" smooth="yes"/>
      <point x="100" y="-146"/>
      <point x="69" y="-169"/>
      <point x="21" y="-169" type="curve" smooth="yes"/>
      <point x="-10" y="-169" type="line"/>
    </contour>
    <contour>
      <point x="100" y="631" type="line"/>
      <point x="174" y="631" type="line"/>
      <point x="174" y="713" type="line"/>
      <point x="100" y="713" type="line"/>
    </contour>
  </outline>
</glyph>
<glyph name="k" format="2">
  <advance width="496"/>
  <unicode hex="006B"/>
  <note>
k
</note>
  <outline>
    <contour>
      <point x="70" y="0" type="line"/>
      <point x="144" y="0" type="line"/>
      <point x="144" y="260" type="line"/>
      <point x="409" y="0" type="line"/>
      <point x="516" y="0" type="line"/>
      <point x="230" y="270" type="line"/>
      <point x="483" y="540" type="line"/>
      <point x="385" y="540" type="line"/>
      <point x="144" y="280" type="line"/>
      <point x="144" y="720" type="line"/>
      <point x="70" y="720" type="line"/>
    </contour>
  </outline>
</glyph>
<glyph name="m" format="2">
  <advance width="848"/>
  <unicode hex="006D"/>
  <note>
m
</note>
  <outline>
    <contour>
      <point x="714" y="0" type="line"/>
      <point x="788" y="0" type="line"/>
      <point x="788" y="368" type="line" smooth="yes"/>
      <point x="788" y="482"/>
      <point x="718" y="554"/>
      <point x="609" y="554" type="curve" smooth="yes"/>
      <point x="501" y="554"/>
      <point x="419" y="477"/>
      <point x="422" y="361" type="curve"/>
      <point x="466" y="348" type="line"/>
      <point x="466" y="449"/>
      <point x="530" y="489"/>
      <point x="592" y="489" type="curve" smooth="yes"/>
      <point x="663" y="489"/>
      <point x="715" y="438"/>
      <point x="715" y="354" type="curve" smooth="yes"/>
    </contour>
    <contour>
      <point x="70" y="0" type="line"/>
      <point x="144" y="0" type="line"/>
      <point x="144" y="407" type="line"/>
      <point x="136" y="407" type="line"/>
      <point x="136" y="540" type="line"/>
      <point x="70" y="540" type="line"/>
    </contour>
    <contour>
      <point x="393" y="0" type="line"/>
      <point x="465" y="0" type="line"/>
      <point x="466" y="366" type="line" smooth="yes"/>
      <point x="466" y="487"/>
      <point x="391" y="554"/>
      <point x="288" y="554" type="curve" smooth="yes"/>
      <point x="180" y="554"/>
      <point x="100" y="477"/>
      <point x="100" y="372" type="curve"/>
      <point x="144" y="348" type="line"/>
      <point x="144" y="433"/>
      <point x="194" y="489"/>
      <point x="269" y="489" type="curve" smooth="yes"/>
      <point x="343" y="489"/>
      <point x="393" y="435"/>
      <point x="393" y="350" type="curve" smooth="yes"/>
    </contour>
  </outline>
</glyph>
<glyph name="n" format="2">
  <advance width="594"/>
  <unicode hex="006E"/>
  <note>
n
</note>
  <outline>
    <contour>
      <point x="460" y="0" type="line"/>
      <point x="534" y="0" type="line"/>
      <point x="534" y="297" type="line" smooth="yes"/>
      <point x="534" y="419"/>
      <point x="479" y="553"/>
      <point x="318" y="553" type="curve" smooth="yes"/>
      <point x="185" y="553"/>
      <point x="92" y="466"/>
      <point x="92" y="300" type="curve"/>
      <point x="144" y="288" type="line"/>
      <point x="144" y="410"/>
      <point x="200" y="483"/>
      <point x="303" y="483" type="curve" smooth="yes"/>
      <point x="417" y="483"/>
      <point x="460" y="395"/>
      <point x="460" y="276" type="curve" smooth="yes"/>
    </contour>
    <contour>
      <point x="70" y="0" type="line"/>
      <point x="144" y="0" type="line"/>
      <point x="144" y="407" type="line"/>
      <point x="136" y="407" type="line"/>
      <point x="136" y="540" type="line"/>
      <point x="70" y="540" type="line"/>
    </contour>
  </outline>
</glyph>
<glyph name="o" format="2">
  <advance width="592"/>
  <unicode hex="006F"/>
  <note>
o
</note>
  <outline>
    <contour>
      <point x="296" y="-15" type="curve" smooth="yes"/>
      <point x="456" y="-15"/>
      <point x="552" y="101"/>
      <point x="552" y="271" type="curve" smooth="yes"/>
      <point x="552" y="438"/>
      <point x="457" y="555"/>
      <point x="296" y="555" type="curve" smooth="yes"/>
      <point x="138" y="555"/>
      <point x="40" y="440"/>
      <point x="40" y="271" type="curve" smooth="yes"/>
      <point x="40" y="103"/>
      <point x="135" y="-15"/>
    </contour>
    <contour>
      <point x="296" y="55" type="curve" smooth="yes"/>
      <point x="179" y="55"/>
      <point x="118" y="140"/>
      <point x="118" y="271" type="curve" smooth="yes"/>
      <point x="118" y="397"/>
      <point x="175" y="485"/>
      <point x="296" y="485" type="curve" smooth="yes"/>
      <point x="414" y="485"/>
      <point x="474" y="401"/>
      <point x="474" y="271" type="curve" smooth="yes"/>
      <point x="474" y="143"/>
      <point x="415" y="55"/>
    </contour>
  </outline>
</glyph>
<glyph name="p" format="2">
  <advance width="592"/>
  <unicode hex="0070"/>
  <note>
p
</note>
  <outline>
    <contour>
      <point x="313" y="-15" type="curve" smooth="yes"/>
      <point x="464" y="-15"/>
      <point x="552" y="109"/>
      <point x="552" y="271" type="curve" smooth="yes"/>
      <point x="552" y="432"/>
      <point x="464" y="555"/>
      <point x="316" y="555" type="curve" smooth="yes"/>
      <point x="164" y="555"/>
      <point x="82" y="434"/>
      <point x="82" y="271" type="curve" smooth="yes"/>
      <point x="82" y="109"/>
      <point x="164" y="-15"/>
    </contour>
    <contour>
      <point x="70" y="-240" type="line"/>
      <point x="144" y="-240" type="line"/>
      <point x="144" y="133" type="line"/>
      <point x="136" y="133" type="line"/>
      <point x="136" y="540" type="line"/>
      <point x="70" y="540" type="line"/>
    </contour>
    <contour>
      <point x="305" y="53" type="curve" smooth="yes"/>
      <point x="190" y="53"/>
      <point x="136" y="145"/>
      <point x="136" y="271" type="curve" smooth="yes"/>
      <point x="136" y="397"/>
      <point x="191" y="487"/>
      <point x="304" y="487" type="curve" smooth="yes"/>
      <point x="420" y="487"/>
      <point x="474" y="393"/>
      <point x="474" y="271" type="curve" smooth="yes"/>
      <point x="474" y="148"/>
      <point x="418" y="53"/>
    </contour>
  </outline>
</glyph>
<glyph name="r" format="2">
  <advance width="361"/>
  <unicode hex="0072"/>
  <note>
r
</note>
  <outline>
    <contour>
      <point x="70" y="0" type="line"/>
      <point x="144" y="0" type="line"/>
      <point x="144" y="269" type="line" smooth="yes"/>
      <point x="144" y="334"/>
      <point x="152" y="404"/>
      <point x="206" y="447" type="curve" smooth="yes"/>
      <point x="246" y="478"/>
      <point x="296" y="481"/>
      <point x="336" y="471" type="curve"/>
      <point x="336" y="540" type="line"/>
      <point x="288" y="552"/>
      <point x="220" y="541"/>
      <point x="178" y="505" type="curve" smooth="yes"/>
      <point x="155" y="487"/>
      <point x="135" y="459"/>
      <point x="123" y="427" type="curve"/>
      <point x="136" y="410" type="line"/>
      <point x="136" y="540" type="line"/>
      <point x="70" y="540" type="line"/>
    </contour>
  </outline>
</glyph>
<glyph name="s" format="2">
  <advance width="525"/>
  <unicode hex="0073"/>
  <note>
s
</note>
  <outline>
    <contour>
      <point x="272" y="-14" type="curve" smooth="yes"/>
      <point x="397" y="-14"/>
      <point x="484" y="43"/>
      <point x="484" y="150" type="curve" smooth="yes"/>
      <point x="484" y="251"/>
      <point x="405" y="280"/>
      <point x="289" y="310" type="curve" smooth="yes"/>
      <point x="192" y="334"/>
      <point x="131" y="350"/>
      <point x="131" y="405" type="curve" smooth="yes"/>
      <point x="131" y="456"/>
      <point x="184" y="490"/>
      <point x="261" y="488" type="curve" smooth="yes"/>
      <point x="329" y="487"/>
      <point x="396" y="457"/>
      <point x="408" y="384" type="curve"/>
      <point x="483" y="398" type="line"/>
      <point x="472" y="493"/>
      <point x="381" y="555"/>
      <point x="262" y="555" type="curve" smooth="yes"/>
      <point x="155" y="555"/>
      <point x="57" y="505"/>
      <point x="57" y="401" type="curve" smooth="yes"/>
      <point x="57" y="310"/>
      <point x="132" y="282"/>
      <point x="248" y="251" type="curve" smooth="yes"/>
      <point x="356" y="221"/>
      <point x="408" y="209"/>
      <point x="408" y="149" type="curve" smooth="yes"/>
      <point x="408" y="85"/>
      <point x="351" y="53"/>
      <point x="276" y="53" type="curve" smooth="yes"/>
      <point x="204" y="53"/>
      <point x="133" y="82"/>
      <point x="115" y="153" type="curve"/>
      <point x="40" y="141" type="line"/>
      <point x="61" y="33"/>
      <point x="158" y="-14"/>
    </contour>
  </outline>
</glyph>
<glyph name="t" format="2">
  <advance width="401"/>
  <unicode hex="0074"/>
  <note>
t
</note>
  <outline>
    <contour>
      <point x="364" y="0" type="curve"/>
      <point x="364" y="64" type="line"/>
      <point x="287" y="52"/>
      <point x="234" y="57"/>
      <point x="210" y="101" type="curve" smooth="yes"/>
      <point x="197" y="125"/>
      <point x="199" y="153"/>
      <point x="199" y="198" type="curve" smooth="yes"/>
      <point x="199" y="690" type="line"/>
      <point x="125" y="690" type="line"/>
      <point x="125" y="196" type="line" smooth="yes"/>
      <point x="125" y="143"/>
      <point x="123" y="104"/>
      <point x="143" y="64" type="curve" smooth="yes"/>
      <point x="178" y="-7"/>
      <point x="273" y="-19"/>
    </contour>
    <contour>
      <point x="10" y="477" type="line"/>
      <point x="364" y="477" type="line"/>
      <point x="364" y="540" type="line"/>
      <point x="10" y="540" type="line"/>
    </contour>
  </outline>
</glyph>
<glyph name="u" format="2">
  <advance width="594"/>
  <unicode hex="0075"/>
  <note>
u
</note>
  <outline>
    <contour>
      <point x="276" y="-13" type="curve" smooth="yes"/>
      <point x="409" y="-13"/>
      <point x="502" y="74"/>
      <point x="502" y="240" type="curve"/>
      <point x="450" y="252" type="line"/>
      <point x="450" y="130"/>
      <point x="394" y="57"/>
      <point x="291" y="57" type="curve" smooth="yes"/>
      <point x="177" y="57"/>
      <point x="134" y="145"/>
      <point x="134" y="264" type="curve" smooth="yes"/>
      <point x="134" y="540" type="line"/>
      <point x="60" y="540" type="line"/>
      <point x="60" y="243" type="line" smooth="yes"/>
      <point x="60" y="121"/>
      <point x="115" y="-13"/>
    </contour>
    <contour>
      <point x="458" y="0" type="line"/>
      <point x="524" y="0" type="line"/>
      <point x="524" y="540" type="line"/>
      <point x="450" y="540" type="line"/>
      <point x="450" y="133" type="line"/>
      <point x="458" y="133" type="line"/>
    </contour>
  </outline>
</glyph>
<glyph name="v" format="2">
  <advance width="508"/>
  <unicode hex="0076"/>
  <outline>
    <contour>
      <point x="216" y="0" type="line"/>
      <point x="292" y="0" type="line"/>
      <point x="488" y="540" type="line"/>
      <point x="413" y="540" type="line"/>
      <point x="254" y="96" type="line"/>
      <point x="95" y="540" type="line"/>
      <point x="20" y="540" type="line"/>
    </contour>
  </outline>
</glyph>
<glyph name="w" format="2">
  <advance width="767"/>
  <unicode hex="0077"/>
  <note>
w
</note>
  <outline>
    <contour>
      <point x="185" y="0" type="line"/>
      <point x="249" y="0" type="line"/>
      <point x="384" y="430" type="line"/>
      <point x="515" y="0" type="line"/>
      <point x="582" y="0" type="line"/>
      <point x="747" y="540" type="line"/>
      <point x="674" y="540" type="line"/>
      <point x="546" y="121" type="line"/>
      <point x="417" y="540" type="line"/>
      <point x="350" y="540" type="line"/>
      <point x="222" y="121" type="line"/>
      <point x="94" y="540" type="line"/>
      <point x="20" y="540" type="line"/>
    </contour>
  </outline>
</glyph>
<glyph name="x" format="2">
  <advance width="527"/>
  <unicode hex="0078"/>
  <note>
x
</note>
  <outline>
    <contour>
      <point x="10" y="0" type="line"/>
      <point x="99" y="0" type="line"/>
      <point x="264" y="217" type="line"/>
      <point x="428" y="0" type="line"/>
      <point x="517" y="0" type="line"/>
      <point x="306" y="273" type="line"/>
      <point x="512" y="540" type="line"/>
      <point x="424" y="540" type="line"/>
      <point x="264" y="329" type="line"/>
      <point x="103" y="540" type="line"/>
      <point x="15" y="540" type="line"/>
      <point x="221" y="273" type="line"/>
    </contour>
  </outline>
</glyph>
<glyph name="y" format="2">
  <advance width="527"/>
  <unicode hex="0079"/>
  <note>
y
</note>
  <outline>
    <contour>
      <point x="147" y="-240" type="line"/>
      <point x="220" y="-240" type="line"/>
      <point x="511" y="540" type="line"/>
      <point x="435" y="540" type="line"/>
      <point x="256" y="54" type="line"/>
      <point x="288" y="54" type="line"/>
      <point x="94" y="540" type="line"/>
      <point x="17" y="540" type="line"/>
      <point x="253" y="-41" type="line"/>
      <point x="252" y="43" type="line"/>
    </contour>
  </outline>
</glyph>
<glyph name="z" format="2">
  <advance width="530"/>
  <unicode hex="007A"/>
  <note>
z
</note>
  <outline>
    <contour>
      <point x="20" y="0" type="line"/>
      <point x="470" y="0" type="line"/>
      <point x="470" y="69" type="line"/>
      <point x="142" y="69" type="line"/>
      <point x="490" y="523" type="line"/>
      <point x="490" y="540" type="line"/>
      <point x="46" y="540" type="line"/>
      <point x="46" y="471" type="line"/>
      <point x="368" y="471" type="line"/>
      <point x="20" y="16" type="line"/>
    </contour>
  </outline>
</glyph>
<glyph name="braceleft" format="2">
  <advance width="420"/>
  <unicode hex="007B"/>
  <outline>
    <contour>
      <point x="317" y="-218" type="curve" smooth="yes"/>
      <point x="376" y="-218" type="line"/>
      <point x="376" y="-148" type="line"/>
      <point x="320" y="-148" type="line" smooth="yes"/>
      <point x="291" y="-148"/>
      <point x="268" y="-125"/>
      <point x="268" y="-96" type="curve" smooth="yes"/>
      <point x="268" y="226" type="line" smooth="yes"/>
      <point x="268" y="251"/>
      <point x="261" y="275"/>
      <point x="246" y="296" type="curve" smooth="yes"/>
      <point x="218" y="335" type="line"/>
      <point x="246" y="374" type="line" smooth="yes"/>
      <point x="261" y="395"/>
      <point x="268" y="418"/>
      <point x="268" y="444" type="curve" smooth="yes"/>
      <point x="268" y="766" type="line" smooth="yes"/>
      <point x="268" y="794"/>
      <point x="291" y="817"/>
      <point x="320" y="817" type="curve" smooth="yes"/>
      <point x="376" y="817" type="line"/>
      <point x="376" y="888" type="line"/>
      <point x="317" y="888" type="line" smooth="yes"/>
      <point x="247" y="888"/>
      <point x="198" y="838"/>
      <point x="198" y="769" type="curve" smooth="yes"/>
      <point x="198" y="444" type="line" smooth="yes"/>
      <point x="198" y="433"/>
      <point x="194" y="423"/>
      <point x="189" y="414" type="curve" smooth="yes"/>
      <point x="146" y="355" type="line" smooth="yes"/>
      <point x="138" y="343"/>
      <point x="138" y="327"/>
      <point x="146" y="315" type="curve" smooth="yes"/>
      <point x="189" y="256" type="line" smooth="yes"/>
      <point x="194" y="247"/>
      <point x="198" y="237"/>
      <point x="198" y="226" type="curve" smooth="yes"/>
      <point x="198" y="-100" type="line" smooth="yes"/>
      <point x="198" y="-168"/>
      <point x="247" y="-218"/>
    </contour>
  </outline>
</glyph>
<glyph name="cent" format="2">
  <advance width="554"/>
  <unicode hex="00A2"/>
  <outline>
    <contour>
      <point x="265" y="-30" type="line"/>
      <point x="328" y="-30" type="line"/>
      <point x="328" y="62" type="line"/>
      <point x="418" y="72"/>
      <point x="484" y="122"/>
      <point x="520" y="208" type="curve"/>
      <point x="447" y="229" type="line"/>
      <point x="419" y="165"/>
      <point x="367" y="130"/>
      <point x="294" y="130" type="curve" smooth="yes"/>
      <point x="178" y="130"/>
      <point x="119" y="216"/>
      <point x="118" y="345" type="curve" smooth="yes"/>
      <point x="119" y="471"/>
      <point x="175" y="560"/>
      <point x="294" y="560" type="curve" smooth="yes"/>
      <point x="365" y="560"/>
      <point x="423" y="522"/>
      <point x="448" y="457" type="curve"/>
      <point x="520" y="481" type="line"/>
      <point x="493" y="563"/>
      <point x="421" y="617"/>
      <point x="328" y="628" type="curve"/>
      <point x="328" y="720" type="line"/>
      <point x="265" y="720" type="line"/>
      <point x="265" y="628" type="line"/>
      <point x="122" y="615"/>
      <point x="42" y="505"/>
      <point x="40" y="345" type="curve" smooth="yes"/>
      <point x="42" y="188"/>
      <point x="120" y="75"/>
      <point x="265" y="62" type="curve"/>
    </contour>
  </outline>
</glyph>
<glyph name="sterling" format="2">
  <advance width="556"/>
  <unicode hex="00A3"/>
  <outline>
    <contour>
      <point x="21" y="0" type="line"/>
      <point x="499" y="0" type="line"/>
      <point x="499" y="70" type="line"/>
      <point x="217" y="70" type="line"/>
      <point x="218" y="545" type="line" smooth="yes"/>
      <point x="218" y="617"/>
      <point x="263" y="664"/>
      <point x="332" y="664" type="curve" smooth="yes"/>
      <point x="392" y="664"/>
      <point x="431" y="622"/>
      <point x="458" y="536" type="curve"/>
      <point x="526" y="558" type="line"/>
      <point x="487" y="670"/>
      <point x="426" y="735"/>
      <point x="332" y="735" type="curve" smooth="yes"/>
      <point x="225" y="735"/>
      <point x="143" y="657"/>
      <point x="143" y="547" type="curve" smooth="yes"/>
      <point x="143" y="142" type="line" smooth="yes"/>
      <point x="143" y="103"/>
      <point x="111" y="70"/>
      <point x="72" y="70" type="curve" smooth="yes"/>
      <point x="21" y="70" type="line"/>
    </contour>
    <contour>
      <point x="21" y="330" type="line"/>
      <point x="399" y="330" type="line"/>
      <point x="399" y="401" type="line"/>
      <point x="21" y="401" type="line"/>
    </contour>
  </outline>
</glyph>
<glyph name="currency" format="2">
  <advance width="641"/>
  <unicode hex="00A4"/>
  <outline>
    <contour>
      <point x="321" y="98" type="curve" smooth="yes"/>
      <point x="466" y="98"/>
      <point x="584" y="216"/>
      <point x="584" y="361" type="curve" smooth="yes"/>
      <point x="584" y="505"/>
      <point x="466" y="623"/>
      <point x="321" y="623" type="curve" smooth="yes"/>
      <point x="177" y="623"/>
      <point x="59" y="505"/>
      <point x="59" y="361" type="curve" smooth="yes"/>
      <point x="59" y="216"/>
      <point x="177" y="98"/>
    </contour>
    <contour>
      <point x="80" y="70" type="line"/>
      <point x="187" y="176" type="line"/>
      <point x="136" y="226" type="line"/>
      <point x="30" y="120" type="line"/>
    </contour>
    <contour>
      <point x="137" y="493" type="line"/>
      <point x="186" y="544" type="line"/>
      <point x="80" y="650" type="line"/>
      <point x="30" y="600" type="line"/>
    </contour>
    <contour>
      <point x="561" y="70" type="line"/>
      <point x="611" y="120" type="line"/>
      <point x="505" y="226" type="line"/>
      <point x="455" y="176" type="line"/>
    </contour>
    <contour>
      <point x="321" y="164" type="curve" smooth="yes"/>
      <point x="212" y="164"/>
      <point x="125" y="254"/>
      <point x="125" y="360" type="curve" smooth="yes"/>
      <point x="125" y="469"/>
      <point x="212" y="557"/>
      <point x="321" y="557" type="curve" smooth="yes"/>
      <point x="427" y="557"/>
      <point x="517" y="469"/>
      <point x="517" y="360" type="curve" smooth="yes"/>
      <point x="517" y="254"/>
      <point x="429" y="164"/>
    </contour>
    <contour>
      <point x="505" y="494" type="line"/>
      <point x="611" y="600" type="line"/>
      <point x="561" y="650" type="line"/>
      <point x="455" y="544" type="line"/>
    </contour>
  </outline>
</glyph>
<glyph name="yen" format="2">
  <advance width="556"/>
  <unicode hex="00A5"/>
  <outline>
    <contour>
      <point x="88" y="258" type="line"/>
      <point x="468" y="258" type="line"/>
      <point x="468" y="321" type="line"/>
      <point x="88" y="321" type="line"/>
    </contour>
    <contour>
      <point x="88" y="113" type="line"/>
      <point x="468" y="113" type="line"/>
      <point x="468" y="176" type="line"/>
      <point x="88" y="176" type="line"/>
    </contour>
    <component base="Y"/>
  </outline>
</glyph>
<glyph name="brokenbar" format="2">
  <advance width="253"/>
  <unicode hex="00A6"/>
  <outline>
    <contour>
      <point x="90" y="351" type="line"/>
      <point x="163" y="351" type="line"/>
      <point x="163" y="720" type="line"/>
      <point x="90" y="720" type="line"/>
    </contour>
    <contour>
      <point x="90" y="-156" type="line"/>
      <point x="163" y="-156" type="line"/>
      <point x="163" y="213" type="line"/>
      <point x="90" y="213" type="line"/>
    </contour>
  </outline>
</glyph>
<glyph name="section" format="2">
  <advance width="525"/>
  <unicode hex="00A7"/>
  <outline>
    <contour>
      <point x="274" y="-154" type="curve" smooth="yes"/>
      <point x="386" y="-154"/>
      <point x="474" y="-97"/>
      <point x="474" y="10" type="curve" smooth="yes"/>
      <point x="474" y="111"/>
      <point x="396" y="139"/>
      <point x="279" y="170" type="curve" smooth="yes"/>
      <point x="188" y="193"/>
      <point x="121" y="208"/>
      <point x="121" y="266" type="curve" smooth="yes"/>
      <point x="121" y="316"/>
      <point x="171" y="350"/>
      <point x="241" y="368" type="curve"/>
      <point x="238" y="392" type="line"/>
      <point x="145" y="402"/>
      <point x="47" y="356"/>
      <point x="47" y="258" type="curve" smooth="yes"/>
      <point x="47" y="172"/>
      <point x="122" y="142"/>
      <point x="238" y="111" type="curve" smooth="yes"/>
      <point x="346" y="82"/>
      <point x="398" y="69"/>
      <point x="398" y="9" type="curve" smooth="yes"/>
      <point x="398" y="-55"/>
      <point x="341" y="-87"/>
      <point x="278" y="-87" type="curve" smooth="yes"/>
      <point x="220" y="-87"/>
      <point x="150" y="-59"/>
      <point x="132" y="13" type="curve"/>
      <point x="57" y="1" type="line"/>
      <point x="79" y="-109"/>
      <point x="175" y="-154"/>
    </contour>
    <contour>
      <point x="306" y="123" type="line"/>
      <point x="409" y="100"/>
      <point x="491" y="153"/>
      <point x="491" y="255" type="curve" smooth="yes"/>
      <point x="491" y="354"/>
      <point x="412" y="382"/>
      <point x="296" y="413" type="curve" smooth="yes"/>
      <point x="206" y="436"/>
      <point x="138" y="451"/>
      <point x="138" y="509" type="curve" smooth="yes"/>
      <point x="138" y="560"/>
      <point x="190" y="592"/>
      <point x="251" y="592" type="curve" smooth="yes"/>
      <point x="307" y="592"/>
      <point x="371" y="565"/>
      <point x="385" y="487" type="curve"/>
      <point x="460" y="501" type="line"/>
      <point x="448" y="597"/>
      <point x="359" y="658"/>
      <point x="255" y="658" type="curve" smooth="yes"/>
      <point x="162" y="658"/>
      <point x="63" y="608"/>
      <point x="63" y="504" type="curve" smooth="yes"/>
      <point x="63" y="414"/>
      <point x="139" y="385"/>
      <point x="255" y="354" type="curve" smooth="yes"/>
      <point x="363" y="325"/>
      <point x="415" y="312"/>
      <point x="415" y="252" type="curve" smooth="yes"/>
      <point x="415" y="189"/>
      <point x="358" y="153"/>
      <point x="306" y="149" type="curve"/>
    </contour>
  </outline>
</glyph>
<glyph name="copyright" format="2">
  <advance width="803"/>
  <unicode hex="00A9"/>
  <outline>
    <contour>
      <point x="402" y="-27" type="curve" smooth="yes"/>
      <point x="607" y="-27"/>
      <point x="773" y="140"/>
      <point x="773" y="345" type="curve" smooth="yes"/>
      <point x="773" y="550"/>
      <point x="607" y="717"/>
      <point x="402" y="717" type="curve" smooth="yes"/>
      <point x="196" y="717"/>
      <point x="30" y="550"/>
      <point x="30" y="345" type="curve" smooth="yes"/>
      <point x="30" y="140"/>
      <point x="196" y="-27"/>
    </contour>
    <contour>
      <point x="406" y="134" type="curve" smooth="yes"/>
      <point x="450" y="134"/>
      <point x="483" y="144"/>
      <point x="513" y="165" type="curve" smooth="yes"/>
      <point x="537" y="182"/>
      <point x="561" y="210"/>
      <point x="576" y="248" type="curve"/>
      <point x="514" y="265" type="line"/>
      <point x="504" y="243"/>
      <point x="492" y="226"/>
      <point x="474" y="213" type="curve" smooth="yes"/>
      <point x="455" y="200"/>
      <point x="432" y="194"/>
      <point x="406" y="194" type="curve" smooth="yes"/>
      <point x="367" y="194"/>
      <point x="334" y="209"/>
      <point x="312" y="238" type="curve" smooth="yes"/>
      <point x="292" y="266"/>
      <point x="283" y="306"/>
      <point x="283" y="347" type="curve" smooth="yes"/>
      <point x="283" y="384"/>
      <point x="290" y="424"/>
      <point x="312" y="453" type="curve" smooth="yes"/>
      <point x="335" y="482"/>
      <point x="368" y="498"/>
      <point x="406" y="498" type="curve" smooth="yes"/>
      <point x="430" y="498"/>
      <point x="453" y="492"/>
      <point x="472" y="478" type="curve" smooth="yes"/>
      <point x="492" y="464"/>
      <point x="507" y="444"/>
      <point x="515" y="424" type="curve"/>
      <point x="576" y="442" type="line"/>
      <point x="565" y="481"/>
      <point x="539" y="512"/>
      <point x="507" y="531" type="curve" smooth="yes"/>
      <point x="476" y="550"/>
      <point x="445" y="557"/>
      <point x="409" y="557" type="curve" smooth="yes"/>
      <point x="345" y="557"/>
      <point x="297" y="536"/>
      <point x="261" y="492" type="curve" smooth="yes"/>
      <point x="228" y="450"/>
      <point x="217" y="399"/>
      <point x="216" y="346" type="curve" smooth="yes"/>
      <point x="216" y="295"/>
      <point x="226" y="243"/>
      <point x="261" y="199" type="curve" smooth="yes"/>
      <point x="297" y="154"/>
      <point x="345" y="134"/>
    </contour>
    <contour>
      <point x="402" y="45" type="curve" smooth="yes"/>
      <point x="235" y="45"/>
      <point x="101" y="179"/>
      <point x="101" y="346" type="curve" smooth="yes"/>
      <point x="101" y="511"/>
      <point x="235" y="645"/>
      <point x="402" y="645" type="curve" smooth="yes"/>
      <point x="567" y="645"/>
      <point x="701" y="511"/>
      <point x="701" y="346" type="curve" smooth="yes"/>
      <point x="701" y="179"/>
      <point x="567" y="45"/>
    </contour>
  </outline>
</glyph>
<glyph name="guillemetleft" format="2">
  <advance width="536"/>
  <unicode hex="00AB"/>
  <outline>
    <contour>
      <point x="425" y="98" type="line"/>
      <point x="469" y="133" type="line"/>
      <point x="323" y="316" type="line"/>
      <point x="469" y="498" type="line"/>
      <point x="425" y="533" type="line"/>
      <point x="252" y="316" type="line"/>
    </contour>
    <contour>
      <point x="253" y="98" type="line"/>
      <point x="297" y="133" type="line"/>
      <point x="152" y="316" type="line"/>
      <point x="297" y="498" type="line"/>
      <point x="253" y="533" type="line"/>
      <point x="80" y="316" type="line"/>
    </contour>
  </outline>
</glyph>
<glyph name="registered" format="2">
  <advance width="625"/>
  <unicode hex="00AE"/>
  <outline>
    <contour>
      <point x="313" y="287" type="curve" smooth="yes"/>
      <point x="446" y="287"/>
      <point x="555" y="396"/>
      <point x="555" y="530" type="curve" smooth="yes"/>
      <point x="555" y="664"/>
      <point x="446" y="772"/>
      <point x="313" y="772" type="curve" smooth="yes"/>
      <point x="179" y="772"/>
      <point x="70" y="664"/>
      <point x="70" y="530" type="curve" smooth="yes"/>
      <point x="70" y="396"/>
      <point x="179" y="287"/>
    </contour>
    <contour>
      <point x="313" y="345" type="curve" smooth="yes"/>
      <point x="210" y="345"/>
      <point x="127" y="428"/>
      <point x="127" y="530" type="curve" smooth="yes"/>
      <point x="127" y="633"/>
      <point x="210" y="715"/>
      <point x="313" y="715" type="curve" smooth="yes"/>
      <point x="415" y="715"/>
      <point x="498" y="633"/>
      <point x="498" y="530" type="curve" smooth="yes"/>
      <point x="498" y="428"/>
      <point x="415" y="345"/>
    </contour>
    <contour>
      <point x="231" y="415" type="line"/>
      <point x="270" y="415" type="line"/>
      <point x="270" y="497" type="line"/>
      <point x="327" y="497" type="line"/>
      <point x="366" y="415" type="line"/>
      <point x="411" y="415" type="line"/>
      <point x="367" y="504" type="line"/>
      <point x="394" y="518"/>
      <point x="410" y="545"/>
      <point x="410" y="572" type="curve" smooth="yes"/>
      <point x="409" y="615"/>
      <point x="375" y="648"/>
      <point x="332" y="648" type="curve" smooth="yes"/>
      <point x="231" y="648" type="line"/>
    </contour>
    <contour>
      <point x="270" y="534" type="line"/>
      <point x="270" y="611" type="line"/>
      <point x="332" y="611" type="line" smooth="yes"/>
      <point x="351" y="611"/>
      <point x="370" y="596"/>
      <point x="370" y="572" type="curve" smooth="yes"/>
      <point x="370" y="551"/>
      <point x="352" y="534"/>
      <point x="332" y="534" type="curve" smooth="yes"/>
    </contour>
  </outline>
</glyph>
<glyph name="plusminus" format="2">
  <advance width="600"/>
  <unicode hex="00B1"/>
  <outline>
    <contour>
      <point x="269" y="220" type="line"/>
      <point x="332" y="220" type="line"/>
      <point x="332" y="349" type="line"/>
      <point x="540" y="349" type="line"/>
      <point x="540" y="412" type="line"/>
      <point x="332" y="412" type="line"/>
      <point x="332" y="540" type="line"/>
      <point x="269" y="540" type="line"/>
      <point x="269" y="412" type="line"/>
      <point x="60" y="412" type="line"/>
      <point x="60" y="349" type="line"/>
      <point x="269" y="349" type="line"/>
    </contour>
    <contour>
      <point x="60" y="79" type="line"/>
      <point x="540" y="79" type="line"/>
      <point x="540" y="142" type="line"/>
      <point x="60" y="142" type="line"/>
    </contour>
  </outline>
</glyph>
<glyph name="twosuperior" format="2">
  <advance width="400"/>
  <unicode hex="00B2"/>
  <outline>
    <contour>
      <point x="50" y="270" type="line"/>
      <point x="350" y="270" type="line"/>
      <point x="350" y="323" type="line"/>
      <point x="97" y="323" type="line"/>
      <point x="107" y="297" type="line"/>
      <point x="281" y="454" type="line" smooth="yes"/>
      <point x="327" y="495"/>
      <point x="350" y="525"/>
      <point x="350" y="584" type="curve" smooth="yes"/>
      <point x="350" y="667"/>
      <point x="287" y="730"/>
      <point x="203" y="730" type="curve" smooth="yes"/>
      <point x="116" y="730"/>
      <point x="52" y="670"/>
      <point x="52" y="585" type="curve"/>
      <point x="109" y="585" type="line"/>
      <point x="108" y="634"/>
      <point x="148" y="677"/>
      <point x="202" y="677" type="curve" smooth="yes"/>
      <point x="254" y="677"/>
      <point x="293" y="637"/>
      <point x="293" y="584" type="curve" smooth="yes"/>
      <point x="293" y="556"/>
      <point x="284" y="530"/>
      <point x="250" y="501" type="curve" smooth="yes"/>
      <point x="51" y="320" type="line"/>
    </contour>
  </outline>
</glyph>
<glyph name="threesuperior" format="2">
  <advance width="390"/>
  <unicode hex="00B3"/>
  <outline>
    <contour>
      <point x="182" y="260" type="curve" smooth="yes"/>
      <point x="267" y="260"/>
      <point x="330" y="321"/>
      <point x="330" y="407" type="curve" smooth="yes"/>
      <point x="330" y="496"/>
      <point x="267" y="559"/>
      <point x="171" y="548" type="curve"/>
      <point x="173" y="522" type="line"/>
      <point x="324" y="666" type="line"/>
      <point x="324" y="720" type="line"/>
      <point x="58" y="720" type="line"/>
      <point x="58" y="667" type="line"/>
      <point x="294" y="667" type="line"/>
      <point x="284" y="694" type="line"/>
      <point x="108" y="534" type="line"/>
      <point x="135" y="490" type="line"/>
      <point x="149" y="497"/>
      <point x="166" y="502"/>
      <point x="182" y="502" type="curve" smooth="yes"/>
      <point x="236" y="502"/>
      <point x="273" y="463"/>
      <point x="273" y="407" type="curve" smooth="yes"/>
      <point x="273" y="352"/>
      <point x="237" y="314"/>
      <point x="182" y="313" type="curve" smooth="yes"/>
      <point x="142" y="313"/>
      <point x="107" y="335"/>
      <point x="94" y="377" type="curve"/>
      <point x="40" y="362" type="line"/>
      <point x="59" y="299"/>
      <point x="116" y="260"/>
    </contour>
  </outline>
</glyph>
<glyph name="paragraph" format="2">
  <advance width="635"/>
  <unicode hex="00B6"/>
  <outline>
    <contour>
      <point x="344" y="-141" type="line"/>
      <point x="417" y="-141" type="line"/>
      <point x="417" y="720" type="line"/>
      <point x="299" y="720" type="line" smooth="yes"/>
      <point x="288" y="720"/>
      <point x="270" y="719"/>
      <point x="249" y="716" type="curve" smooth="yes"/>
      <point x="136" y="699"/>
      <point x="73" y="608"/>
      <point x="73" y="497" type="curve" smooth="yes"/>
      <point x="73" y="384"/>
      <point x="137" y="295"/>
      <point x="249" y="277" type="curve" smooth="yes"/>
      <point x="270" y="274"/>
      <point x="289" y="273"/>
      <point x="299" y="273" type="curve" smooth="yes"/>
      <point x="344" y="273" type="line"/>
    </contour>
    <contour>
      <point x="488" y="-141" type="line"/>
      <point x="561" y="-141" type="line"/>
      <point x="561" y="720" type="line"/>
      <point x="488" y="720" type="line"/>
    </contour>
  </outline>
</glyph>
<glyph name="periodcentered" format="2">
  <advance width="587"/>
  <unicode hex="00B7"/>
  <outline>
    <contour>
      <point x="295" y="262" type="curve" smooth="yes"/>
      <point x="323" y="262"/>
      <point x="347" y="284"/>
      <point x="347" y="315" type="curve" smooth="yes"/>
      <point x="347" y="346"/>
      <point x="323" y="368"/>
      <point x="295" y="368" type="curve" smooth="yes"/>
      <point x="264" y="368"/>
      <point x="240" y="346"/>
      <point x="240" y="315" type="curve" smooth="yes"/>
      <point x="240" y="284"/>
      <point x="264" y="262"/>
    </contour>
  </outline>
</glyph>
<glyph name="AE" format="2">
  <advance width="918"/>
  <unicode hex="00C6"/>
  <outline>
    <contour>
      <point x="20" y="0" type="line"/>
      <point x="97" y="0" type="line"/>
      <point x="146" y="142" type="line"/>
      <point x="418" y="142" type="line"/>
      <point x="418" y="0" type="line"/>
      <point x="868" y="0" type="line"/>
      <point x="868" y="70" type="line"/>
      <point x="492" y="70" type="line"/>
      <point x="492" y="330" type="line"/>
      <point x="808" y="330" type="line"/>
      <point x="808" y="400" type="line"/>
      <point x="492" y="400" type="line"/>
      <point x="492" y="650" type="line"/>
      <point x="868" y="650" type="line"/>
      <point x="868" y="720" type="line"/>
      <point x="268" y="720" type="line"/>
    </contour>
    <contour>
      <point x="168" y="211" type="line"/>
      <point x="320" y="647" type="line"/>
      <point x="418" y="647" type="line"/>
      <point x="418" y="211" type="line"/>
    </contour>
  </outline>
</glyph>
<glyph name="Thorn" format="2">
  <advance width="595"/>
  <unicode hex="00DE"/>
  <outline>
    <contour>
      <point x="70" y="0" type="line"/>
      <point x="144" y="0" type="line"/>
      <point x="144" y="137" type="line"/>
      <point x="340" y="137" type="line" smooth="yes"/>
      <point x="406" y="137"/>
      <point x="471" y="168"/>
      <point x="511" y="216" type="curve" smooth="yes"/>
      <point x="544" y="256"/>
      <point x="565" y="307"/>
      <point x="565" y="360" type="curve" smooth="yes"/>
      <point x="564" y="415"/>
      <point x="542" y="471"/>
      <point x="503" y="511" type="curve" smooth="yes"/>
      <point x="480" y="537"/>
      <point x="449" y="558"/>
      <point x="416" y="570" type="curve" smooth="yes"/>
      <point x="392" y="579"/>
      <point x="366" y="583"/>
      <point x="340" y="583" type="curve" smooth="yes"/>
      <point x="144" y="583" type="line"/>
      <point x="144" y="720" type="line"/>
      <point x="70" y="720" type="line"/>
    </contour>
    <contour>
      <point x="144" y="207" type="line"/>
      <point x="144" y="513" type="line"/>
      <point x="340" y="513" type="line" smooth="yes"/>
      <point x="378" y="513"/>
      <point x="418" y="494"/>
      <point x="445" y="467" type="curve" smooth="yes"/>
      <point x="472" y="439"/>
      <point x="488" y="400"/>
      <point x="489" y="360" type="curve" smooth="yes"/>
      <point x="490" y="325"/>
      <point x="476" y="290"/>
      <point x="454" y="263" type="curve" smooth="yes"/>
      <point x="426" y="229"/>
      <point x="382" y="207"/>
      <point x="340" y="207" type="curve" smooth="yes"/>
    </contour>
  </outline>
</glyph>
<glyph name="germandbls" format="2">
  <advance width="599"/>
  <unicode hex="00DF"/>
  <outline>
    <contour>
      <point x="313" y="-14" type="curve" smooth="yes"/>
      <point x="460" y="-14"/>
      <point x="539" y="72"/>
      <point x="539" y="205" type="curve" smooth="yes"/>
      <point x="539" y="317"/>
      <point x="453" y="383"/>
      <point x="389" y="394" type="curve"/>
      <point x="446" y="417"/>
      <point x="476" y="474"/>
      <point x="476" y="542" type="curve" smooth="yes"/>
      <point x="476" y="663"/>
      <point x="392" y="735"/>
      <point x="273" y="735" type="curve" smooth="yes"/>
      <point x="181" y="735"/>
      <point x="112" y="696"/>
      <point x="83" y="617" type="curve" smooth="yes"/>
      <point x="74" y="593"/>
      <point x="70" y="564"/>
      <point x="70" y="531" type="curve" smooth="yes"/>
      <point x="70" y="0" type="line"/>
      <point x="146" y="0" type="line"/>
      <point x="146" y="512" type="line" smooth="yes"/>
      <point x="146" y="541"/>
      <point x="149" y="570"/>
      <point x="157" y="593" type="curve" smooth="yes"/>
      <point x="175" y="643"/>
      <point x="222" y="665"/>
      <point x="274" y="665" type="curve" smooth="yes"/>
      <point x="349" y="665"/>
      <point x="400" y="619"/>
      <point x="400" y="542" type="curve" smooth="yes"/>
      <point x="400" y="463"/>
      <point x="342" y="425"/>
      <point x="273" y="417" type="curve"/>
      <point x="273" y="350" type="line"/>
      <point x="387" y="348"/>
      <point x="464" y="296"/>
      <point x="464" y="206" type="curve" smooth="yes"/>
      <point x="464" y="111"/>
      <point x="400" y="59"/>
      <point x="306" y="59" type="curve" smooth="yes"/>
      <point x="273" y="59"/>
      <point x="248" y="63"/>
      <point x="221" y="72" type="curve"/>
      <point x="221" y="0" type="line"/>
      <point x="248" y="-11"/>
      <point x="278" y="-14"/>
    </contour>
  </outline>
</glyph>
<glyph name="ae" format="2">
  <advance width="942"/>
  <unicode hex="00E6"/>
  <outline>
    <contour>
      <point x="669" y="-15" type="curve" smooth="yes"/>
      <point x="767" y="-15"/>
      <point x="851" y="38"/>
      <point x="891" y="133" type="curve"/>
      <point x="826" y="159" type="line"/>
      <point x="794" y="89"/>
      <point x="737" y="55"/>
      <point x="667" y="55" type="curve" smooth="yes"/>
      <point x="555" y="55"/>
      <point x="498" y="140"/>
      <point x="498" y="270" type="curve" smooth="yes"/>
      <point x="498" y="398"/>
      <point x="551" y="488"/>
      <point x="667" y="488" type="curve" smooth="yes"/>
      <point x="781" y="488"/>
      <point x="827" y="407"/>
      <point x="830" y="275" type="curve"/>
      <point x="830" y="249" type="line"/>
      <point x="901" y="249" type="line"/>
      <point x="906" y="431"/>
      <point x="827" y="555"/>
      <point x="668" y="555" type="curve" smooth="yes"/>
      <point x="515" y="555"/>
      <point x="425" y="439"/>
      <point x="425" y="268" type="curve" smooth="yes"/>
      <point x="425" y="103"/>
      <point x="515" y="-15"/>
    </contour>
    <contour>
      <point x="233" y="48" type="curve" smooth="yes"/>
      <point x="159" y="48"/>
      <point x="114" y="84"/>
      <point x="114" y="147" type="curve" smooth="yes"/>
      <point x="114" y="245"/>
      <point x="227" y="250"/>
      <point x="286" y="252" type="curve" smooth="yes"/>
      <point x="441" y="256" type="line"/>
      <point x="423" y="275" type="line"/>
      <point x="424" y="255"/>
      <point x="424" y="189"/>
      <point x="401" y="141" type="curve" smooth="yes"/>
      <point x="374" y="87"/>
      <point x="310" y="48"/>
    </contour>
    <contour>
      <point x="230" y="-15" type="curve" smooth="yes"/>
      <point x="325" y="-15"/>
      <point x="420" y="21"/>
      <point x="464" y="135" type="curve"/>
      <point x="496" y="333" type="line"/>
      <point x="496" y="358"/>
      <point x="494" y="388"/>
      <point x="486" y="418" type="curve" smooth="yes"/>
      <point x="462" y="504"/>
      <point x="394" y="555"/>
      <point x="282" y="555" type="curve" smooth="yes"/>
      <point x="173" y="555"/>
      <point x="86" y="501"/>
      <point x="60" y="408" type="curve"/>
      <point x="130" y="386" type="line"/>
      <point x="151" y="458"/>
      <point x="211" y="486"/>
      <point x="281" y="486" type="curve" smooth="yes"/>
      <point x="384" y="486"/>
      <point x="430" y="424"/>
      <point x="422" y="301" type="curve"/>
      <point x="434" y="314" type="line"/>
      <point x="277" y="308" type="line" smooth="yes"/>
      <point x="204" y="304"/>
      <point x="40" y="296"/>
      <point x="40" y="146" type="curve" smooth="yes"/>
      <point x="40" y="48"/>
      <point x="110" y="-15"/>
    </contour>
    <contour>
      <point x="474" y="249" type="line"/>
      <point x="864" y="249" type="line"/>
      <point x="864" y="312" type="line"/>
      <point x="474" y="312" type="line"/>
    </contour>
  </outline>
</glyph>
<glyph name="oslash" format="2">
  <advance width="592"/>
  <unicode hex="00F8"/>
  <outline>
    <contour>
      <point x="70" y="-5" type="line"/>
      <point x="572" y="495" type="line"/>
      <point x="522" y="545" type="line"/>
      <point x="20" y="45" type="line"/>
    </contour>
    <component base="o"/>
  </outline>
</glyph>
<glyph name="eogonek" format="2">
  <advance width="585"/>
  <unicode hex="0119"/>
  <outline>
    <contour>
      <point x="447" y="-231" type="curve" smooth="yes"/>
      <point x="466" y="-223"/>
      <point x="482" y="-210"/>
      <point x="493" y="-196" type="curve"/>
      <point x="460" y="-156" type="line"/>
      <point x="439" y="-175"/>
      <point x="407" y="-190"/>
      <point x="385" y="-167" type="curve" smooth="yes"/>
      <point x="372" y="-154"/>
      <point x="374" y="-136"/>
      <point x="378" y="-122" type="curve" smooth="yes"/>
      <point x="385" y="-98"/>
      <point x="400" y="-71"/>
      <point x="417" y="-43" type="curve" smooth="yes"/>
      <point x="434" y="-17"/>
      <point x="495" y="57"/>
      <point x="524" y="115" type="curve"/>
      <point x="468" y="117" type="line"/>
      <point x="440" y="64"/>
      <point x="384" y="7"/>
      <point x="366" y="-19" type="curve" smooth="yes"/>
      <point x="348" y="-43"/>
      <point x="330" y="-73"/>
      <point x="320" y="-103" type="curve" smooth="yes"/>
      <point x="307" y="-142"/>
      <point x="313" y="-181"/>
      <point x="338" y="-208" type="curve" smooth="yes"/>
      <point x="363" y="-237"/>
      <point x="407" y="-248"/>
    </contour>
    <component base="e"/>
  </outline>
</glyph>
<glyph name="Eng" format="2">
  <advance width="684"/>
  <unicode hex="014A"/>
  <outline>
    <contour>
      <point x="514" y="-199" type="curve" smooth="yes"/>
      <point x="573" y="-199"/>
      <point x="614" y="-175"/>
      <point x="614" y="-93" type="curve" smooth="yes"/>
      <point x="614" y="21" type="line"/>
      <point x="471" y="104" type="line"/>
      <point x="510" y="46" type="line" smooth="yes"/>
      <point x="539" y="2"/>
      <point x="549" y="-31"/>
      <point x="549" y="-63" type="curve" smooth="yes"/>
      <point x="549" y="-117"/>
      <point x="531" y="-135"/>
      <point x="493" y="-135" type="curve" smooth="yes"/>
      <point x="482" y="-135"/>
      <point x="470" y="-133"/>
      <point x="460" y="-132" type="curve"/>
      <point x="460" y="-192" type="line"/>
      <point x="477" y="-196"/>
      <point x="494" y="-199"/>
    </contour>
    <component base="N"/>
  </outline>
</glyph>
<glyph name="eng" format="2">
  <advance width="594"/>
  <unicode hex="014B"/>
  <outline>
    <contour>
      <point x="464" y="-197" type="curve" smooth="yes"/>
      <point x="506" y="-188"/>
      <point x="534" y="-157"/>
      <point x="534" y="-93" type="curve" smooth="yes"/>
      <point x="534" y="1" type="line"/>
      <point x="460" y="1" type="line"/>
      <point x="460" y="-59" type="line" smooth="yes"/>
      <point x="460" y="-133"/>
      <point x="433" y="-141"/>
      <point x="379" y="-133" type="curve"/>
      <point x="379" y="-192" type="line"/>
      <point x="405" y="-199"/>
      <point x="429" y="-202"/>
    </contour>
    <component base="n"/>
  </outline>
</glyph>
<glyph name="Tbar" format="2">
  <advance width="597"/>
  <unicode hex="0166"/>
  <outline>
    <contour>
      <point x="78" y="323" type="line"/>
      <point x="518" y="323" type="line"/>
      <point x="518" y="397" type="line"/>
      <point x="78" y="397" type="line"/>
    </contour>
    <component base="T"/>
  </outline>
</glyph>
<glyph name="florin" format="2">
  <advance width="703"/>
  <unicode hex="0192"/>
  <outline>
    <contour>
      <point x="148" y="-15" type="curve" smooth="yes"/>
      <point x="223" y="-15"/>
      <point x="320" y="27"/>
      <point x="347" y="189" type="curve" smooth="yes"/>
      <point x="406" y="548" type="line" smooth="yes"/>
      <point x="423" y="648"/>
      <point x="502" y="664"/>
      <point x="546" y="664" type="curve" smooth="yes"/>
      <point x="598" y="664"/>
      <point x="639" y="643"/>
      <point x="638" y="643" type="curve"/>
      <point x="673" y="704" type="line" smooth="yes"/>
      <point x="660" y="713"/>
      <point x="605" y="735"/>
      <point x="543" y="735" type="curve" smooth="yes"/>
      <point x="448" y="735"/>
      <point x="350" y="670"/>
      <point x="329" y="542" type="curve" smooth="yes"/>
      <point x="274" y="200" type="line" smooth="yes"/>
      <point x="256" y="91"/>
      <point x="197" y="56"/>
      <point x="145" y="56" type="curve" smooth="yes"/>
      <point x="103" y="56"/>
      <point x="60" y="75"/>
      <point x="52" y="78" type="curve"/>
      <point x="21" y="15" type="line"/>
      <point x="36" y="8"/>
      <point x="92" y="-15"/>
    </contour>
    <contour>
      <point x="118" y="329" type="line"/>
      <point x="601" y="329" type="line"/>
      <point x="601" y="392" type="line"/>
      <point x="118" y="392" type="line"/>
    </contour>
  </outline>
</glyph>
<glyph name="tildecomb" format="2">
  <unicode hex="0303"/>
  <outline>
    <contour>
      <point x="341" y="810" type="curve" smooth="yes"/>
      <point x="395" y="810"/>
      <point x="430" y="855"/>
      <point x="417" y="911" type="curve"/>
      <point x="367" y="911" type="line"/>
      <point x="374" y="889"/>
      <point x="365" y="869"/>
      <point x="341" y="869" type="curve" smooth="yes"/>
      <point x="301" y="869"/>
      <point x="254" y="917"/>
      <point x="198" y="917" type="curve" smooth="yes"/>
      <point x="145" y="917"/>
      <point x="110" y="874"/>
      <point x="123" y="818" type="curve"/>
      <point x="173" y="818" type="line"/>
      <point x="166" y="837"/>
      <point x="172" y="859"/>
      <point x="199" y="859" type="curve" smooth="yes"/>
      <point x="239" y="859"/>
      <point x="285" y="810"/>
    </contour>
  </outline>
</glyph>
<glyph name="brevecomb" format="2">
  <unicode hex="0306"/>
  <outline>
    <contour>
      <point x="249" y="780" type="curve" smooth="yes"/>
      <point x="320" y="780"/>
      <point x="378" y="838"/>
      <point x="378" y="909" type="curve"/>
      <point x="317" y="909" type="line"/>
      <point x="317" y="872"/>
      <point x="287" y="841"/>
      <point x="249" y="841" type="curve" smooth="yes"/>
      <point x="212" y="841"/>
      <point x="181" y="872"/>
      <point x="181" y="909" type="curve"/>
      <point x="120" y="909" type="line"/>
      <point x="120" y="838"/>
      <point x="178" y="780"/>
    </contour>
  </outline>
</glyph>
<glyph name="dieresiscomb" format="2">
  <unicode hex="0308"/>
  <outline>
    <contour>
      <point x="311" y="840" type="line"/>
      <point x="391" y="840" type="line"/>
      <point x="391" y="920" type="line"/>
      <point x="311" y="920" type="line"/>
    </contour>
    <contour>
      <point x="120" y="840" type="line"/>
      <point x="200" y="840" type="line"/>
      <point x="200" y="920" type="line"/>
      <point x="120" y="920" type="line"/>
    </contour>
  </outline>
</glyph>
<glyph name="ringcomb" format="2">
  <unicode hex="030A"/>
  <outline>
    <contour>
      <point x="241" y="662" type="curve" smooth="yes"/>
      <point x="306" y="662"/>
      <point x="359" y="715"/>
      <point x="359" y="780" type="curve" smooth="yes"/>
      <point x="359" y="844"/>
      <point x="306" y="898"/>
      <point x="241" y="898" type="curve" smooth="yes"/>
      <point x="177" y="898"/>
      <point x="123" y="844"/>
      <point x="123" y="780" type="curve" smooth="yes"/>
      <point x="123" y="715"/>
      <point x="177" y="662"/>
    </contour>
    <contour>
      <point x="241" y="720" type="curve" smooth="yes"/>
      <point x="208" y="720"/>
      <point x="181" y="747"/>
      <point x="181" y="780" type="curve" smooth="yes"/>
      <point x="181" y="813"/>
      <point x="208" y="840"/>
      <point x="241" y="840" type="curve" smooth="yes"/>
      <point x="275" y="840"/>
      <point x="301" y="813"/>
      <point x="301" y="780" type="curve" smooth="yes"/>
      <point x="301" y="747"/>
      <point x="275" y="720"/>
    </contour>
  </outline>
</glyph>
<glyph name="hungarumlautcomb" format="2">
  <unicode hex="030B"/>
  <outline>
    <contour>
      <point x="305" y="792" type="line"/>
      <point x="411" y="896" type="line"/>
      <point x="372" y="936" type="line"/>
      <point x="266" y="833" type="line"/>
    </contour>
    <contour>
      <point x="159" y="792" type="line"/>
      <point x="265" y="896" type="line"/>
      <point x="226" y="936" type="line"/>
      <point x="120" y="833" type="line"/>
    </contour>
  </outline>
</glyph>
<glyph name="caroncomb" format="2">
  <unicode hex="030C"/>
  <outline>
    <contour>
      <point x="262" y="786" type="line"/>
      <point x="404" y="878" type="line"/>
      <point x="373" y="930" type="line"/>
      <point x="262" y="858" type="line"/>
      <point x="151" y="930" type="line"/>
      <point x="120" y="878" type="line"/>
    </contour>
  </outline>
</glyph>
<glyph name="commaaccentcomb" format="2">
  <unicode hex="0326"/>
  <outline>
    <contour>
      <point x="120" y="-246" type="line"/>
      <point x="161" y="-246"/>
      <point x="203" y="-219"/>
      <point x="203" y="-163" type="curve" smooth="yes"/>
      <point x="203" y="-80" type="line"/>
      <point x="120" y="-80" type="line"/>
      <point x="120" y="-163" type="line"/>
      <point x="164" y="-163" type="line"/>
      <point x="166" y="-199"/>
      <point x="132" y="-207"/>
      <point x="120" y="-207" type="curve"/>
    </contour>
  </outline>
</glyph>
<glyph name="cedillacomb" format="2">
  <unicode hex="0327"/>
  <outline>
    <contour>
      <point x="184" y="-240" type="curve" smooth="yes"/>
      <point x="235" y="-240"/>
      <point x="278" y="-200"/>
      <point x="278" y="-146" type="curve" smooth="yes"/>
      <point x="278" y="-103"/>
      <point x="254" y="-75"/>
      <point x="218" y="-59" type="curve"/>
      <point x="243" y="11" type="line"/>
      <point x="189" y="10" type="line"/>
      <point x="152" y="-92" type="line"/>
      <point x="186" y="-103"/>
      <point x="218" y="-113"/>
      <point x="218" y="-143" type="curve" smooth="yes"/>
      <point x="218" y="-163"/>
      <point x="204" y="-182"/>
      <point x="178" y="-182" type="curve" smooth="yes"/>
      <point x="167" y="-182"/>
      <point x="153" y="-179"/>
      <point x="139" y="-174" type="curve"/>
      <point x="120" y="-224" type="line"/>
      <point x="139" y="-233"/>
      <point x="160" y="-240"/>
    </contour>
  </outline>
</glyph>
<glyph name="ogonekcomb" format="2">
  <unicode hex="0328"/>
  <outline>
    <contour>
      <point x="215" y="-241" type="curve" smooth="yes"/>
      <point x="246" y="-241"/>
      <point x="277" y="-226"/>
      <point x="300" y="-196" type="curve"/>
      <point x="268" y="-157" type="line"/>
      <point x="254" y="-172"/>
      <point x="237" y="-181"/>
      <point x="222" y="-181" type="curve" smooth="yes"/>
      <point x="201" y="-181"/>
      <point x="184" y="-164"/>
      <point x="184" y="-140" type="curve" smooth="yes"/>
      <point x="184" y="-97"/>
      <point x="236" y="-37"/>
      <point x="297" y="0" type="curve"/>
      <point x="257" y="44" type="line"/>
      <point x="181" y="-5"/>
      <point x="120" y="-79"/>
      <point x="120" y="-143" type="curve" smooth="yes"/>
      <point x="120" y="-195"/>
      <point x="162" y="-241"/>
    </contour>
  </outline>
</glyph>
<glyph name="slashshortcomb" format="2">
  <unicode hex="0337"/>
  <outline>
    <contour>
      <point x="45" y="204" type="line"/>
      <point x="341" y="374" type="line"/>
      <point x="341" y="455" type="line"/>
      <point x="45" y="286" type="line"/>
    </contour>
  </outline>
</glyph>
<glyph name="dieresistonos" format="2">
  <advance width="600"/>
  <unicode hex="0385"/>
  <outline>
    <contour>
      <point x="391" y="640" type="line"/>
      <point x="466" y="640" type="line"/>
      <point x="466" y="720" type="line"/>
      <point x="391" y="720" type="line"/>
    </contour>
    <contour>
      <point x="135" y="640" type="line"/>
      <point x="210" y="640" type="line"/>
      <point x="210" y="720" type="line"/>
      <point x="135" y="720" type="line"/>
    </contour>
    <component base="tonos" xOffset="17"/>
  </outline>
</glyph>
<glyph name="Delta" format="2">
  <advance width="634"/>
  <unicode hex="0394"/>
  <outline>
    <contour>
      <point x="75" y="0" type="line"/>
      <point x="559" y="0" type="line"/>
      <point x="559" y="70" type="line"/>
      <point x="75" y="70" type="line"/>
    </contour>
    <component base="Lambda" xOffset="15"/>
  </outline>
</glyph>
<glyph name="Xi" format="2">
  <advance width="691"/>
  <unicode hex="039E"/>
  <outline>
    <contour>
      <point x="70" y="650" type="line"/>
      <point x="621" y="650" type="line"/>
      <point x="621" y="720" type="line"/>
      <point x="70" y="720" type="line"/>
    </contour>
    <contour>
      <point x="70" y="0" type="line"/>
      <point x="621" y="0" type="line"/>
      <point x="621" y="70" type="line"/>
      <point x="70" y="70" type="line"/>
    </contour>
    <contour>
      <point x="120" y="325" type="line"/>
      <point x="571" y="325" type="line"/>
      <point x="571" y="395" type="line"/>
      <point x="120" y="395" type="line"/>
    </contour>
  </outline>
</glyph>
<glyph name="Psi" format="2">
  <advance width="715"/>
  <unicode hex="03A8"/>
  <outline>
    <contour>
      <point x="321" y="0" type="line"/>
      <point x="394" y="0" type="line"/>
      <point x="394" y="175" type="line"/>
      <point x="511" y="178"/>
      <point x="597" y="239"/>
      <point x="630" y="341" type="curve" smooth="yes"/>
      <point x="645" y="381"/>
      <point x="645" y="414"/>
      <point x="645" y="435" type="curve" smooth="yes"/>
      <point x="645" y="720" type="line"/>
      <point x="575" y="720" type="line"/>
      <point x="575" y="474" type="line" smooth="yes"/>
      <point x="575" y="455"/>
      <point x="575" y="419"/>
      <point x="567" y="384" type="curve" smooth="yes"/>
      <point x="547" y="299"/>
      <point x="483" y="244"/>
      <point x="394" y="244" type="curve"/>
      <point x="394" y="720" type="line"/>
      <point x="321" y="720" type="line"/>
      <point x="321" y="244" type="line"/>
      <point x="233" y="245"/>
      <point x="170" y="296"/>
      <point x="149" y="382" type="curve" smooth="yes"/>
      <point x="140" y="417"/>
      <point x="140" y="454"/>
      <point x="140" y="474" type="curve" smooth="yes"/>
      <point x="140" y="720" type="line"/>
      <point x="70" y="720" type="line"/>
      <point x="70" y="435" type="line" smooth="yes"/>
      <point x="70" y="415"/>
      <point x="71" y="380"/>
      <point x="85" y="340" type="curve" smooth="yes"/>
      <point x="118" y="239"/>
      <point x="203" y="179"/>
      <point x="321" y="175" type="curve"/>
    </contour>
  </outline>
</glyph>
<glyph name="Omega" format="2">
  <advance width="723"/>
  <unicode hex="03A9"/>
  <outline>
    <contour>
      <point x="33" y="0" type="line"/>
      <point x="271" y="0" type="line"/>
      <point x="271" y="70" type="line"/>
      <point x="199" y="107"/>
      <point x="108" y="207"/>
      <point x="108" y="365" type="curve" smooth="yes"/>
      <point x="108" y="526"/>
      <point x="203" y="664"/>
      <point x="362" y="664" type="curve" smooth="yes"/>
      <point x="522" y="664"/>
      <point x="619" y="524"/>
      <point x="615" y="361" type="curve" smooth="yes"/>
      <point x="612" y="210"/>
      <point x="526" y="108"/>
      <point x="454" y="70" type="curve"/>
      <point x="453" y="0" type="line"/>
      <point x="689" y="0" type="line"/>
      <point x="689" y="70" type="line"/>
      <point x="554" y="70" type="line"/>
      <point x="639" y="138"/>
      <point x="693" y="244"/>
      <point x="693" y="377" type="curve" smooth="yes"/>
      <point x="693" y="579"/>
      <point x="568" y="734"/>
      <point x="362" y="734" type="curve" smooth="yes"/>
      <point x="155" y="734"/>
      <point x="30" y="579"/>
      <point x="30" y="377" type="curve" smooth="yes"/>
      <point x="30" y="244"/>
      <point x="84" y="138"/>
      <point x="169" y="70" type="curve"/>
      <point x="33" y="70" type="line"/>
    </contour>
  </outline>
</glyph>
<glyph name="alpha" format="2">
  <advance width="609"/>
  <unicode hex="03B1"/>
  <outline>
    <contour>
      <point x="281" y="-15" type="curve" smooth="yes"/>
      <point x="385" y="-15"/>
      <point x="462" y="45"/>
      <point x="486" y="144" type="curve"/>
      <point x="473" y="171" type="line"/>
      <point x="473" y="0" type="line"/>
      <point x="539" y="0" type="line"/>
      <point x="539" y="540" type="line"/>
      <point x="473" y="540" type="line"/>
      <point x="473" y="371" type="line"/>
      <point x="486" y="397" type="line"/>
      <point x="462" y="495"/>
      <point x="387" y="555"/>
      <point x="283" y="555" type="curve" smooth="yes"/>
      <point x="128" y="555"/>
      <point x="40" y="432"/>
      <point x="40" y="270" type="curve" smooth="yes"/>
      <point x="40" y="109"/>
      <point x="128" y="-15"/>
    </contour>
    <contour>
      <point x="288" y="53" type="curve" smooth="yes"/>
      <point x="174" y="53"/>
      <point x="118" y="148"/>
      <point x="118" y="270" type="curve" smooth="yes"/>
      <point x="118" y="397"/>
      <point x="175" y="487"/>
      <point x="289" y="487" type="curve" smooth="yes"/>
      <point x="401" y="487"/>
      <point x="456" y="397"/>
      <point x="456" y="271" type="curve" smooth="yes"/>
      <point x="456" y="145"/>
      <point x="402" y="53"/>
    </contour>
  </outline>
</glyph>
<glyph name="beta" format="2">
  <advance width="568"/>
  <unicode hex="03B2"/>
  <outline>
    <contour>
      <point x="70" y="-240" type="line"/>
      <point x="143" y="-240" type="line"/>
      <point x="143" y="40" type="line"/>
      <point x="179" y="6"/>
      <point x="232" y="-15"/>
      <point x="301" y="-15" type="curve" smooth="yes"/>
      <point x="451" y="-15"/>
      <point x="538" y="73"/>
      <point x="538" y="199" type="curve" smooth="yes"/>
      <point x="538" y="318"/>
      <point x="458" y="381"/>
      <point x="389" y="394" type="curve"/>
      <point x="447" y="417"/>
      <point x="475" y="474"/>
      <point x="475" y="543" type="curve" smooth="yes"/>
      <point x="475" y="662"/>
      <point x="392" y="735"/>
      <point x="271" y="735" type="curve" smooth="yes"/>
      <point x="178" y="735"/>
      <point x="108" y="692"/>
      <point x="82" y="617" type="curve" smooth="yes"/>
      <point x="74" y="594"/>
      <point x="70" y="568"/>
      <point x="70" y="540" type="curve" smooth="yes"/>
    </contour>
    <contour>
      <point x="304" y="56" type="curve" smooth="yes"/>
      <point x="235" y="56"/>
      <point x="170" y="89"/>
      <point x="153" y="144" type="curve" smooth="yes"/>
      <point x="148" y="162"/>
      <point x="146" y="188"/>
      <point x="146" y="211" type="curve" smooth="yes"/>
      <point x="146" y="512" type="line" smooth="yes"/>
      <point x="146" y="535"/>
      <point x="147" y="567"/>
      <point x="157" y="593" type="curve" smooth="yes"/>
      <point x="175" y="644"/>
      <point x="222" y="665"/>
      <point x="273" y="665" type="curve" smooth="yes"/>
      <point x="348" y="665"/>
      <point x="400" y="619"/>
      <point x="400" y="543" type="curve" smooth="yes"/>
      <point x="400" y="463"/>
      <point x="344" y="425"/>
      <point x="273" y="417" type="curve"/>
      <point x="273" y="350" type="line"/>
      <point x="389" y="347"/>
      <point x="463" y="296"/>
      <point x="463" y="203" type="curve" smooth="yes"/>
      <point x="463" y="115"/>
      <point x="397" y="56"/>
    </contour>
  </outline>
</glyph>
<glyph name="delta" format="2">
  <advance width="592"/>
  <unicode hex="03B4"/>
  <outline>
    <contour>
      <point x="295" y="-14" type="curve" smooth="yes"/>
      <point x="456" y="-14"/>
      <point x="552" y="93"/>
      <point x="552" y="250" type="curve" smooth="yes"/>
      <point x="552" y="405"/>
      <point x="457" y="513"/>
      <point x="296" y="513" type="curve"/>
      <point x="296" y="492" type="line"/>
      <point x="135" y="509"/>
      <point x="40" y="399"/>
      <point x="40" y="244" type="curve" smooth="yes"/>
      <point x="40" y="90"/>
      <point x="135" y="-14"/>
    </contour>
    <contour>
      <point x="296" y="56" type="curve" smooth="yes"/>
      <point x="182" y="56"/>
      <point x="122" y="130"/>
      <point x="122" y="250" type="curve" smooth="yes"/>
      <point x="122" y="366"/>
      <point x="179" y="443"/>
      <point x="296" y="443" type="curve" smooth="yes"/>
      <point x="411" y="443"/>
      <point x="470" y="369"/>
      <point x="470" y="251" type="curve" smooth="yes"/>
      <point x="470" y="133"/>
      <point x="412" y="56"/>
    </contour>
    <contour>
      <point x="368" y="445" type="curve"/>
      <point x="395" y="497" type="line"/>
      <point x="276" y="537"/>
      <point x="190" y="558"/>
      <point x="190" y="615" type="curve" smooth="yes"/>
      <point x="190" y="644"/>
      <point x="211" y="661"/>
      <point x="241" y="668" type="curve" smooth="yes"/>
      <point x="255" y="672"/>
      <point x="272" y="673"/>
      <point x="292" y="673" type="curve" smooth="yes"/>
      <point x="461" y="673" type="line"/>
      <point x="461" y="735" type="line"/>
      <point x="276" y="735" type="line" smooth="yes"/>
      <point x="258" y="735"/>
      <point x="237" y="735"/>
      <point x="216" y="730" type="curve" smooth="yes"/>
      <point x="145" y="717"/>
      <point x="117" y="668"/>
      <point x="117" y="617" type="curve" smooth="yes"/>
      <point x="117" y="496"/>
      <point x="276" y="474"/>
    </contour>
  </outline>
</glyph>
<glyph name="zeta" format="2">
  <advance width="504"/>
  <unicode hex="03B6"/>
  <outline>
    <contour>
      <point x="422" y="-120" type="curve"/>
      <point x="488" y="-120" type="line"/>
      <point x="504" y="-9"/>
      <point x="459" y="45"/>
      <point x="393" y="61" type="curve" smooth="yes"/>
      <point x="363" y="68"/>
      <point x="320" y="69"/>
      <point x="303" y="69" type="curve" smooth="yes"/>
      <point x="185" y="70"/>
      <point x="117" y="91"/>
      <point x="117" y="189" type="curve" smooth="yes"/>
      <point x="117" y="254"/>
      <point x="147" y="315"/>
      <point x="259" y="428" type="curve" smooth="yes"/>
      <point x="353" y="519"/>
      <point x="430" y="598"/>
      <point x="491" y="659" type="curve"/>
      <point x="491" y="720" type="line"/>
      <point x="70" y="720" type="line"/>
      <point x="70" y="652" type="line"/>
      <point x="381" y="652" type="line"/>
      <point x="297" y="569"/>
      <point x="223" y="494"/>
      <point x="186" y="456" type="curve" smooth="yes"/>
      <point x="64" y="327"/>
      <point x="40" y="257"/>
      <point x="40" y="183" type="curve" smooth="yes"/>
      <point x="40" y="24"/>
      <point x="149" y="5"/>
      <point x="268" y="0" type="curve" smooth="yes"/>
      <point x="378" y="-4"/>
      <point x="428" y="-6"/>
    </contour>
  </outline>
</glyph>
<glyph name="theta" format="2">
  <advance width="637"/>
  <unicode hex="03B8"/>
  <outline>
    <contour>
      <point x="84" y="329" type="line"/>
      <point x="555" y="329" type="line"/>
      <point x="555" y="391" type="line"/>
      <point x="84" y="391" type="line"/>
    </contour>
    <component base="Oval-condensed"/>
  </outline>
</glyph>
<glyph name="iota" format="2">
  <advance width="355"/>
  <unicode hex="03B9"/>
  <outline>
    <contour>
      <point x="203" y="-5" type="curve" smooth="yes"/>
      <point x="235" y="-10"/>
      <point x="283" y="-9"/>
      <point x="319" y="0" type="curve"/>
      <point x="319" y="64" type="line"/>
      <point x="291" y="59"/>
      <point x="258" y="58"/>
      <point x="229" y="60" type="curve" smooth="yes"/>
      <point x="201" y="64"/>
      <point x="179" y="74"/>
      <point x="164" y="101" type="curve" smooth="yes"/>
      <point x="151" y="126"/>
      <point x="153" y="152"/>
      <point x="153" y="198" type="curve" smooth="yes"/>
      <point x="153" y="540" type="line"/>
      <point x="80" y="540" type="line"/>
      <point x="80" y="196" type="line" smooth="yes"/>
      <point x="80" y="140"/>
      <point x="77" y="102"/>
      <point x="98" y="63" type="curve" smooth="yes"/>
      <point x="121" y="20"/>
      <point x="159" y="2"/>
    </contour>
  </outline>
</glyph>
<glyph name="lambda" format="2">
  <advance width="508"/>
  <unicode hex="03BB"/>
  <outline>
    <contour>
      <point x="20" y="0" type="line"/>
      <point x="95" y="0" type="line"/>
      <point x="254" y="444" type="line"/>
      <point x="413" y="0" type="line"/>
      <point x="488" y="0" type="line"/>
      <point x="292" y="540" type="line" smooth="yes"/>
      <point x="260" y="628"/>
      <point x="234" y="713"/>
      <point x="157" y="730" type="curve" smooth="yes"/>
      <point x="137" y="734"/>
      <point x="110" y="735"/>
      <point x="97" y="735" type="curve" smooth="yes"/>
      <point x="64" y="735" type="line"/>
      <point x="64" y="670" type="line"/>
      <point x="90" y="670" type="line" smooth="yes"/>
      <point x="168" y="670"/>
      <point x="182" y="627"/>
      <point x="216" y="540" type="curve"/>
    </contour>
  </outline>
</glyph>
<glyph name="mu" format="2">
  <advance width="604"/>
  <unicode hex="03BC"/>
  <outline>
    <contour>
      <point x="70" y="-240" type="line"/>
      <point x="136" y="-240" type="line"/>
      <point x="136" y="56" type="line"/>
      <point x="169" y="11"/>
      <point x="220" y="-13"/>
      <point x="286" y="-13" type="curve" smooth="yes"/>
      <point x="363" y="-13"/>
      <point x="428" y="16"/>
      <point x="468" y="77" type="curve"/>
      <point x="468" y="0" type="line"/>
      <point x="534" y="0" type="line"/>
      <point x="534" y="540" type="line"/>
      <point x="460" y="540" type="line"/>
      <point x="460" y="252" type="line" smooth="yes"/>
      <point x="460" y="130"/>
      <point x="404" y="57"/>
      <point x="301" y="57" type="curve" smooth="yes"/>
      <point x="187" y="57"/>
      <point x="144" y="145"/>
      <point x="144" y="264" type="curve" smooth="yes"/>
      <point x="144" y="540" type="line"/>
      <point x="70" y="540" type="line"/>
    </contour>
  </outline>
</glyph>
<glyph name="xi" format="2">
  <advance width="567"/>
  <unicode hex="03BE"/>
  <outline>
    <contour>
      <point x="479" y="-120" type="curve"/>
      <point x="546" y="-120" type="line"/>
      <point x="566" y="-6"/>
      <point x="513" y="45"/>
      <point x="448" y="61" type="curve" smooth="yes"/>
      <point x="415" y="68"/>
      <point x="367" y="69"/>
      <point x="346" y="69" type="curve" smooth="yes"/>
      <point x="202" y="70"/>
      <point x="118" y="110"/>
      <point x="118" y="217" type="curve" smooth="yes"/>
      <point x="118" y="316"/>
      <point x="189" y="342"/>
      <point x="293" y="346" type="curve" smooth="yes"/>
      <point x="365" y="349"/>
      <point x="366" y="349"/>
      <point x="375" y="349" type="curve"/>
      <point x="375" y="419" type="line"/>
      <point x="367" y="419"/>
      <point x="318" y="419"/>
      <point x="297" y="420" type="curve" smooth="yes"/>
      <point x="202" y="425"/>
      <point x="143" y="468"/>
      <point x="143" y="545" type="curve" smooth="yes"/>
      <point x="143" y="626"/>
      <point x="207" y="665"/>
      <point x="294" y="665" type="curve" smooth="yes"/>
      <point x="387" y="665"/>
      <point x="441" y="621"/>
      <point x="479" y="551" type="curve"/>
      <point x="540" y="596" type="line"/>
      <point x="492" y="678"/>
      <point x="412" y="735"/>
      <point x="294" y="735" type="curve" smooth="yes"/>
      <point x="175" y="735"/>
      <point x="65" y="677"/>
      <point x="65" y="547" type="curve" smooth="yes"/>
      <point x="65" y="472"/>
      <point x="102" y="416"/>
      <point x="157" y="384" type="curve"/>
      <point x="82" y="361"/>
      <point x="40" y="301"/>
      <point x="40" y="210" type="curve" smooth="yes"/>
      <point x="40" y="86"/>
      <point x="116" y="7"/>
      <point x="319" y="0" type="curve" smooth="yes"/>
      <point x="441" y="-4"/>
      <point x="488" y="-6"/>
    </contour>
  </outline>
</glyph>
<glyph name="pi" format="2">
  <advance width="654"/>
  <unicode hex="03C0"/>
  <outline>
    <contour>
      <point x="133" y="0" type="line"/>
      <point x="207" y="0" type="line"/>
      <point x="207" y="472" type="line"/>
      <point x="447" y="472" type="line"/>
      <point x="447" y="0" type="line"/>
      <point x="521" y="0" type="line"/>
      <point x="521" y="472" type="line"/>
      <point x="627" y="472" type="line"/>
      <point x="627" y="540" type="line"/>
      <point x="27" y="540" type="line"/>
      <point x="27" y="472" type="line"/>
      <point x="133" y="472" type="line"/>
    </contour>
  </outline>
</glyph>
<glyph name="rho" format="2">
  <advance width="598"/>
  <unicode hex="03C1"/>
  <outline>
    <contour>
      <point x="70" y="-240" type="line"/>
      <point x="144" y="-240" type="line"/>
      <point x="144" y="73" type="line"/>
      <point x="177" y="21"/>
      <point x="240" y="-15"/>
      <point x="319" y="-15" type="curve" smooth="yes"/>
      <point x="469" y="-15"/>
      <point x="558" y="108"/>
      <point x="558" y="271" type="curve" smooth="yes"/>
      <point x="558" y="432"/>
      <point x="473" y="555"/>
      <point x="313" y="555" type="curve" smooth="yes"/>
      <point x="172" y="555"/>
      <point x="88" y="459"/>
      <point x="74" y="325" type="curve" smooth="yes"/>
      <point x="71" y="302"/>
      <point x="70" y="273"/>
      <point x="70" y="237" type="curve" smooth="yes"/>
    </contour>
    <contour>
      <point x="311" y="53" type="curve" smooth="yes"/>
      <point x="197" y="53"/>
      <point x="143" y="144"/>
      <point x="143" y="271" type="curve" smooth="yes"/>
      <point x="143" y="398"/>
      <point x="196" y="487"/>
      <point x="311" y="487" type="curve" smooth="yes"/>
      <point x="427" y="487"/>
      <point x="482" y="396"/>
      <point x="482" y="271" type="curve" smooth="yes"/>
      <point x="482" y="146"/>
      <point x="424" y="53"/>
    </contour>
  </outline>
</glyph>
<glyph name="sigmafinal" format="2">
  <advance width="554"/>
  <unicode hex="03C2"/>
  <outline>
    <contour>
      <point x="428" y="-120" type="curve"/>
      <point x="495" y="-120" type="line"/>
      <point x="511" y="-11"/>
      <point x="467" y="44"/>
      <point x="399" y="61" type="curve" smooth="yes"/>
      <point x="365" y="69"/>
      <point x="314" y="69"/>
      <point x="290" y="69" type="curve" smooth="yes"/>
      <point x="144" y="70"/>
      <point x="121" y="188"/>
      <point x="121" y="269" type="curve" smooth="yes"/>
      <point x="122" y="393"/>
      <point x="176" y="485"/>
      <point x="291" y="485" type="curve" smooth="yes"/>
      <point x="366" y="485"/>
      <point x="423" y="447"/>
      <point x="448" y="382" type="curve"/>
      <point x="520" y="406" type="line"/>
      <point x="489" y="500"/>
      <point x="404" y="555"/>
      <point x="292" y="555" type="curve" smooth="yes"/>
      <point x="134" y="555"/>
      <point x="40" y="446"/>
      <point x="40" y="257" type="curve" smooth="yes"/>
      <point x="40" y="145"/>
      <point x="85" y="7"/>
      <point x="272" y="0" type="curve" smooth="yes"/>
      <point x="383" y="-4"/>
      <point x="435" y="-4"/>
    </contour>
  </outline>
</glyph>
<glyph name="sigma" format="2">
  <advance width="602"/>
  <unicode hex="03C3"/>
  <outline>
    <contour>
      <point x="296" y="-15" type="curve" smooth="yes"/>
      <point x="451" y="-15"/>
      <point x="552" y="102"/>
      <point x="552" y="263" type="curve" smooth="yes"/>
      <point x="552" y="366"/>
      <point x="509" y="451"/>
      <point x="444" y="493" type="curve"/>
      <point x="420" y="472" type="line"/>
      <point x="582" y="472" type="line"/>
      <point x="582" y="540" type="line"/>
      <point x="349" y="540" type="line" smooth="yes"/>
      <point x="310" y="540"/>
      <point x="273" y="540"/>
      <point x="244" y="535" type="curve" smooth="yes"/>
      <point x="118" y="513"/>
      <point x="40" y="407"/>
      <point x="40" y="263" type="curve" smooth="yes"/>
      <point x="40" y="103"/>
      <point x="140" y="-15"/>
    </contour>
    <contour>
      <point x="296" y="55" type="curve" smooth="yes"/>
      <point x="182" y="55"/>
      <point x="118" y="138"/>
      <point x="118" y="263" type="curve" smooth="yes"/>
      <point x="118" y="380"/>
      <point x="177" y="470"/>
      <point x="296" y="470" type="curve" smooth="yes"/>
      <point x="412" y="469"/>
      <point x="474" y="384"/>
      <point x="474" y="263" type="curve" smooth="yes"/>
      <point x="474" y="141"/>
      <point x="413" y="55"/>
    </contour>
  </outline>
</glyph>
<glyph name="tau" format="2">
  <advance width="552"/>
  <unicode hex="03C4"/>
  <outline>
    <contour>
      <point x="339" y="-5" type="curve" smooth="yes"/>
      <point x="372" y="-10"/>
      <point x="420" y="-9"/>
      <point x="455" y="0" type="curve"/>
      <point x="455" y="64" type="line"/>
      <point x="428" y="59"/>
      <point x="395" y="58"/>
      <point x="366" y="60" type="curve" smooth="yes"/>
      <point x="338" y="64"/>
      <point x="315" y="74"/>
      <point x="301" y="101" type="curve" smooth="yes"/>
      <point x="287" y="126"/>
      <point x="290" y="152"/>
      <point x="290" y="198" type="curve" smooth="yes"/>
      <point x="290" y="472" type="line"/>
      <point x="482" y="472" type="line"/>
      <point x="482" y="540" type="line"/>
      <point x="25" y="540" type="line"/>
      <point x="25" y="472" type="line"/>
      <point x="217" y="472" type="line"/>
      <point x="217" y="196" type="line" smooth="yes"/>
      <point x="217" y="140"/>
      <point x="214" y="102"/>
      <point x="235" y="63" type="curve" smooth="yes"/>
      <point x="258" y="20"/>
      <point x="295" y="2"/>
    </contour>
  </outline>
</glyph>
<glyph name="upsilon" format="2">
  <advance width="581"/>
  <unicode hex="03C5"/>
  <outline>
    <contour>
      <point x="60" y="246" type="line" smooth="yes"/>
      <point x="60" y="110"/>
      <point x="116" y="-13"/>
      <point x="291" y="-13" type="curve" smooth="yes"/>
      <point x="466" y="-13"/>
      <point x="521" y="110"/>
      <point x="521" y="246" type="curve" smooth="yes"/>
      <point x="521" y="540" type="line"/>
      <point x="447" y="540" type="line"/>
      <point x="447" y="264" type="line" smooth="yes"/>
      <point x="447" y="145"/>
      <point x="404" y="57"/>
      <point x="291" y="57" type="curve" smooth="yes"/>
      <point x="177" y="57"/>
      <point x="134" y="145"/>
      <point x="134" y="264" type="curve" smooth="yes"/>
      <point x="134" y="540" type="line"/>
      <point x="60" y="540" type="line"/>
    </contour>
  </outline>
</glyph>
<glyph name="psi" format="2">
  <advance width="655"/>
  <unicode hex="03C8"/>
  <outline>
    <contour>
      <point x="292" y="-225" type="line"/>
      <point x="363" y="-225" type="line"/>
      <point x="363" y="-20" type="line"/>
      <point x="481" y="-16"/>
      <point x="568" y="48"/>
      <point x="600" y="146" type="curve" smooth="yes"/>
      <point x="615" y="186"/>
      <point x="615" y="220"/>
      <point x="615" y="240" type="curve" smooth="yes"/>
      <point x="615" y="540" type="line"/>
      <point x="545" y="540" type="line"/>
      <point x="545" y="279" type="line" smooth="yes"/>
      <point x="545" y="262"/>
      <point x="545" y="224"/>
      <point x="537" y="190" type="curve" smooth="yes"/>
      <point x="517" y="104"/>
      <point x="446" y="50"/>
      <point x="363" y="49" type="curve"/>
      <point x="363" y="540" type="line"/>
      <point x="292" y="540" type="line"/>
      <point x="292" y="49" type="line"/>
      <point x="210" y="50"/>
      <point x="140" y="101"/>
      <point x="119" y="187" type="curve" smooth="yes"/>
      <point x="110" y="222"/>
      <point x="110" y="261"/>
      <point x="110" y="279" type="curve" smooth="yes"/>
      <point x="110" y="540" type="line"/>
      <point x="40" y="540" type="line"/>
      <point x="40" y="240" type="line" smooth="yes"/>
      <point x="40" y="221"/>
      <point x="41" y="185"/>
      <point x="55" y="146" type="curve" smooth="yes"/>
      <point x="88" y="45"/>
      <point x="176" y="-16"/>
      <point x="292" y="-20" type="curve"/>
    </contour>
  </outline>
</glyph>
<glyph name="omega" format="2">
  <advance width="776"/>
  <unicode hex="03C9"/>
  <outline>
    <contour>
      <point x="242" y="-16" type="curve" smooth="yes"/>
      <point x="316" y="-16"/>
      <point x="379" y="21"/>
      <point x="397" y="108" type="curve"/>
      <point x="380" y="108" type="line"/>
      <point x="397" y="21"/>
      <point x="461" y="-16"/>
      <point x="535" y="-16" type="curve" smooth="yes"/>
      <point x="668" y="-16"/>
      <point x="736" y="92"/>
      <point x="736" y="243" type="curve" smooth="yes"/>
      <point x="736" y="381"/>
      <point x="683" y="488"/>
      <point x="561" y="555" type="curve"/>
      <point x="515" y="493" type="line"/>
      <point x="615" y="435"/>
      <point x="658" y="362"/>
      <point x="658" y="247" type="curve" smooth="yes"/>
      <point x="658" y="141"/>
      <point x="617" y="55"/>
      <point x="527" y="55" type="curve" smooth="yes"/>
      <point x="436" y="55"/>
      <point x="423" y="139"/>
      <point x="423" y="235" type="curve" smooth="yes"/>
      <point x="423" y="343" type="line"/>
      <point x="353" y="343" type="line"/>
      <point x="353" y="235" type="line" smooth="yes"/>
      <point x="353" y="138"/>
      <point x="340" y="55"/>
      <point x="249" y="55" type="curve" smooth="yes"/>
      <point x="161" y="55"/>
      <point x="118" y="138"/>
      <point x="118" y="247" type="curve" smooth="yes"/>
      <point x="118" y="359"/>
      <point x="159" y="433"/>
      <point x="262" y="493" type="curve"/>
      <point x="216" y="555" type="line"/>
      <point x="96" y="489"/>
      <point x="40" y="383"/>
      <point x="40" y="243" type="curve" smooth="yes"/>
      <point x="40" y="94"/>
      <point x="107" y="-16"/>
    </contour>
  </outline>
</glyph>
<glyph name="Dje-cy" format="2">
  <advance width="646"/>
  <unicode hex="0402"/>
  <outline>
    <contour>
      <point x="73" y="0" type="line"/>
      <point x="147" y="0" type="line"/>
      <point x="147" y="245" type="line" smooth="yes"/>
      <point x="147" y="284"/>
      <point x="148" y="329"/>
      <point x="159" y="367" type="curve" smooth="yes"/>
      <point x="182" y="446"/>
      <point x="245" y="483"/>
      <point x="342" y="483" type="curve" smooth="yes"/>
      <point x="463" y="483"/>
      <point x="532" y="426"/>
      <point x="532" y="287" type="curve" smooth="yes"/>
      <point x="532" y="155"/>
      <point x="472" y="74"/>
      <point x="353" y="74" type="curve"/>
      <point x="353" y="0" type="line"/>
      <point x="526" y="0"/>
      <point x="606" y="113"/>
      <point x="606" y="282" type="curve" smooth="yes"/>
      <point x="606" y="464"/>
      <point x="513" y="555"/>
      <point x="349" y="555" type="curve" smooth="yes"/>
      <point x="256" y="555"/>
      <point x="182" y="526"/>
      <point x="139" y="464" type="curve"/>
      <point x="139" y="652" type="line"/>
      <point x="300" y="652" type="line"/>
      <point x="300" y="720" type="line"/>
      <point x="0" y="720" type="line"/>
      <point x="0" y="652" type="line"/>
      <point x="73" y="652" type="line"/>
    </contour>
  </outline>
</glyph>
<glyph name="Kje-cy" format="2">
  <advance width="594"/>
  <unicode hex="040C"/>
  <outline>
    <contour>
      <point x="70" y="0" type="line"/>
      <point x="143" y="0" type="line"/>
      <point x="143" y="360" type="line"/>
      <point x="498" y="0" type="line"/>
      <point x="594" y="0" type="line"/>
      <point x="230" y="372" type="line"/>
      <point x="566" y="720" type="line"/>
      <point x="472" y="720" type="line"/>
      <point x="143" y="380" type="line"/>
      <point x="143" y="720" type="line"/>
      <point x="70" y="720" type="line"/>
    </contour>
    <component base="acutecomb" xOffset="82"/>
  </outline>
</glyph>
<glyph name="Iigrave-cy" format="2">
  <advance width="684"/>
  <unicode hex="040D"/>
  <outline>
    <contour>
      <point x="70" y="0" type="line"/>
      <point x="144" y="0" type="line"/>
      <point x="540" y="591" type="line"/>
      <point x="540" y="0" type="line"/>
      <point x="614" y="0" type="line"/>
      <point x="614" y="720" type="line"/>
      <point x="540" y="720" type="line"/>
      <point x="144" y="130" type="line"/>
      <point x="144" y="720" type="line"/>
      <point x="70" y="720" type="line"/>
    </contour>
    <component base="gravecomb" xOffset="98"/>
  </outline>
</glyph>
<glyph name="Dzhe-cy" format="2">
  <advance width="733"/>
  <unicode hex="040F"/>
  <outline>
    <contour>
      <point x="330" y="-120" type="line"/>
      <point x="403" y="-120" type="line"/>
      <point x="403" y="0" type="line"/>
      <point x="663" y="0" type="line"/>
      <point x="663" y="720" type="line"/>
      <point x="590" y="720" type="line"/>
      <point x="590" y="70" type="line"/>
      <point x="143" y="70" type="line"/>
      <point x="143" y="720" type="line"/>
      <point x="70" y="720" type="line"/>
      <point x="70" y="0" type="line"/>
      <point x="330" y="0" type="line"/>
    </contour>
  </outline>
</glyph>
<glyph name="Be-cy" format="2">
  <advance width="604"/>
  <unicode hex="0411"/>
  <outline>
    <contour>
      <point x="70" y="0" type="line"/>
      <point x="348" y="0" type="line" smooth="yes"/>
      <point x="362" y="0"/>
      <point x="380" y="1"/>
      <point x="399" y="4" type="curve" smooth="yes"/>
      <point x="510" y="19"/>
      <point x="574" y="110"/>
      <point x="574" y="220" type="curve" smooth="yes"/>
      <point x="574" y="330"/>
      <point x="509" y="421"/>
      <point x="399" y="436" type="curve" smooth="yes"/>
      <point x="380" y="439"/>
      <point x="362" y="440"/>
      <point x="348" y="440" type="curve" smooth="yes"/>
      <point x="143" y="440" type="line"/>
      <point x="143" y="650" type="line"/>
      <point x="515" y="650" type="line"/>
      <point x="515" y="720" type="line"/>
      <point x="70" y="720" type="line"/>
    </contour>
    <contour>
      <point x="143" y="70" type="line"/>
      <point x="143" y="370" type="line"/>
      <point x="346" y="370" type="line" smooth="yes"/>
      <point x="358" y="370"/>
      <point x="375" y="369"/>
      <point x="391" y="366" type="curve" smooth="yes"/>
      <point x="464" y="351"/>
      <point x="498" y="287"/>
      <point x="498" y="220" type="curve" smooth="yes"/>
      <point x="498" y="153"/>
      <point x="464" y="89"/>
      <point x="391" y="74" type="curve" smooth="yes"/>
      <point x="375" y="71"/>
      <point x="358" y="70"/>
      <point x="346" y="70" type="curve" smooth="yes"/>
    </contour>
  </outline>
</glyph>
<glyph name="De-cy" format="2">
  <advance width="738"/>
  <unicode hex="0414"/>
  <outline>
    <contour>
      <point x="37" y="-120" type="line"/>
      <point x="110" y="-120" type="line"/>
      <point x="110" y="0" type="line"/>
      <point x="624" y="0" type="line"/>
      <point x="624" y="-120" type="line"/>
      <point x="698" y="-120" type="line"/>
      <point x="698" y="70" type="line"/>
      <point x="646" y="70" type="line"/>
      <point x="646" y="720" type="line"/>
      <point x="202" y="720" type="line"/>
      <point x="193" y="562"/>
      <point x="189" y="451"/>
      <point x="175" y="318" type="curve" smooth="yes"/>
      <point x="162" y="196"/>
      <point x="148" y="70"/>
      <point x="37" y="70" type="curve"/>
    </contour>
    <contour>
      <point x="177" y="70" type="line"/>
      <point x="223" y="112"/>
      <point x="236" y="181"/>
      <point x="247" y="296" type="curve" smooth="yes"/>
      <point x="260" y="422"/>
      <point x="264" y="528"/>
      <point x="271" y="650" type="curve"/>
      <point x="573" y="650" type="line"/>
      <point x="573" y="70" type="line"/>
    </contour>
  </outline>
</glyph>
<glyph name="Zhe-cy" format="2">
  <advance width="891"/>
  <unicode hex="0416"/>
  <outline>
    <contour>
      <point x="10" y="0" type="line"/>
      <point x="104" y="0" type="line"/>
      <point x="409" y="357" type="line"/>
      <point x="409" y="0" type="line"/>
      <point x="482" y="0" type="line"/>
      <point x="482" y="357" type="line"/>
      <point x="786" y="0" type="line"/>
      <point x="881" y="0" type="line"/>
      <point x="562" y="372" type="line"/>
      <point x="853" y="720" type="line"/>
      <point x="761" y="720" type="line"/>
      <point x="482" y="383" type="line"/>
      <point x="482" y="720" type="line"/>
      <point x="409" y="720" type="line"/>
      <point x="409" y="383" type="line"/>
      <point x="130" y="720" type="line"/>
      <point x="38" y="720" type="line"/>
      <point x="329" y="372" type="line"/>
    </contour>
  </outline>
</glyph>
<glyph name="Ze-cy" format="2">
  <advance width="596"/>
  <unicode hex="0417"/>
  <outline>
    <contour>
      <point x="300" y="-15" type="curve" smooth="yes"/>
      <point x="459" y="-15"/>
      <point x="563" y="70"/>
      <point x="563" y="203" type="curve" smooth="yes"/>
      <point x="563" y="291"/>
      <point x="518" y="347"/>
      <point x="446" y="369" type="curve"/>
      <point x="499" y="398"/>
      <point x="538" y="459"/>
      <point x="538" y="537" type="curve" smooth="yes"/>
      <point x="538" y="669"/>
      <point x="428" y="735"/>
      <point x="307" y="735" type="curve" smooth="yes"/>
      <point x="193" y="735"/>
      <point x="109" y="677"/>
      <point x="63" y="596" type="curve"/>
      <point x="124" y="551" type="line"/>
      <point x="160" y="620"/>
      <point x="218" y="665"/>
      <point x="305" y="665" type="curve" smooth="yes"/>
      <point x="396" y="665"/>
      <point x="460" y="617"/>
      <point x="460" y="535" type="curve" smooth="yes"/>
      <point x="460" y="458"/>
      <point x="401" y="410"/>
      <point x="306" y="405" type="curve" smooth="yes"/>
      <point x="286" y="404"/>
      <point x="236" y="404"/>
      <point x="228" y="404" type="curve"/>
      <point x="228" y="334" type="line"/>
      <point x="237" y="334"/>
      <point x="238" y="334"/>
      <point x="310" y="331" type="curve" smooth="yes"/>
      <point x="407" y="328"/>
      <point x="485" y="302"/>
      <point x="485" y="204" type="curve" smooth="yes"/>
      <point x="485" y="115"/>
      <point x="420" y="56"/>
      <point x="303" y="56" type="curve" smooth="yes"/>
      <point x="190" y="56"/>
      <point x="124" y="110"/>
      <point x="100" y="178" type="curve"/>
      <point x="33" y="140" type="line"/>
      <point x="67" y="57"/>
      <point x="153" y="-15"/>
    </contour>
  </outline>
</glyph>
<glyph name="Iishort-cy" format="2">
  <advance width="684"/>
  <unicode hex="0419"/>
  <outline>
    <contour>
      <point x="70" y="0" type="line"/>
      <point x="144" y="0" type="line"/>
      <point x="540" y="591" type="line"/>
      <point x="540" y="0" type="line"/>
      <point x="614" y="0" type="line"/>
      <point x="614" y="720" type="line"/>
      <point x="540" y="720" type="line"/>
      <point x="144" y="130" type="line"/>
      <point x="144" y="720" type="line"/>
      <point x="70" y="720" type="line"/>
    </contour>
    <component base="brevecomb" xOffset="99"/>
  </outline>
</glyph>
<glyph name="El-cy" format="2">
  <advance width="699"/>
  <unicode hex="041B"/>
  <outline>
    <contour>
      <point x="20" y="0" type="line"/>
      <point x="155" y="-34"/>
      <point x="182" y="66"/>
      <point x="203" y="194" type="curve" smooth="yes"/>
      <point x="230" y="364"/>
      <point x="237" y="511"/>
      <point x="246" y="650" type="curve"/>
      <point x="556" y="650" type="line"/>
      <point x="556" y="0" type="line"/>
      <point x="629" y="0" type="line"/>
      <point x="629" y="720" type="line"/>
      <point x="175" y="720" type="line"/>
      <point x="167" y="538"/>
      <point x="157" y="385"/>
      <point x="131" y="229" type="curve" smooth="yes"/>
      <point x="109" y="82"/>
      <point x="94" y="58"/>
      <point x="20" y="66" type="curve"/>
    </contour>
  </outline>
</glyph>
<glyph name="U-cy" format="2">
  <advance width="623"/>
  <unicode hex="0423"/>
  <outline>
    <contour>
      <point x="191" y="0" type="line"/>
      <point x="272" y="0" type="line"/>
      <point x="606" y="720" type="line"/>
      <point x="528" y="720" type="line"/>
      <point x="311" y="250" type="line"/>
      <point x="98" y="720" type="line"/>
      <point x="17" y="720" type="line"/>
      <point x="273" y="171" type="line"/>
    </contour>
  </outline>
</glyph>
<glyph name="Ef-cy" format="2">
  <advance width="711"/>
  <unicode hex="0424"/>
  <outline>
    <contour>
      <point x="319" y="0" type="line"/>
      <point x="392" y="0" type="line"/>
      <point x="392" y="96" type="line"/>
      <point x="540" y="71"/>
      <point x="681" y="175"/>
      <point x="681" y="382" type="curve" smooth="yes"/>
      <point x="681" y="589"/>
      <point x="540" y="695"/>
      <point x="392" y="670" type="curve"/>
      <point x="392" y="720" type="line"/>
      <point x="319" y="720" type="line"/>
      <point x="319" y="670" type="line"/>
      <point x="171" y="695"/>
      <point x="30" y="589"/>
      <point x="30" y="382" type="curve" smooth="yes"/>
      <point x="30" y="175"/>
      <point x="171" y="71"/>
      <point x="319" y="96" type="curve"/>
    </contour>
    <contour>
      <point x="319" y="166" type="line"/>
      <point x="191" y="148"/>
      <point x="106" y="242"/>
      <point x="106" y="382" type="curve" smooth="yes"/>
      <point x="106" y="522"/>
      <point x="191" y="619"/>
      <point x="319" y="601" type="curve"/>
    </contour>
    <contour>
      <point x="392" y="166" type="curve"/>
      <point x="392" y="601" type="line"/>
      <point x="519" y="619"/>
      <point x="605" y="519"/>
      <point x="605" y="381" type="curve" smooth="yes"/>
      <point x="605" y="242"/>
      <point x="519" y="148"/>
    </contour>
  </outline>
</glyph>
<glyph name="Tse-cy" format="2">
  <advance width="716"/>
  <unicode hex="0426"/>
  <outline>
    <contour>
      <point x="633" y="-93" type="line"/>
      <point x="706" y="-93" type="line"/>
      <point x="706" y="68" type="line"/>
      <point x="630" y="68" type="line"/>
      <point x="630" y="713" type="line"/>
      <point x="557" y="713" type="line"/>
      <point x="557" y="68" type="line"/>
      <point x="143" y="68" type="line"/>
      <point x="143" y="720" type="line"/>
      <point x="70" y="720" type="line"/>
      <point x="70" y="0" type="line"/>
      <point x="633" y="0" type="line"/>
    </contour>
  </outline>
</glyph>
<glyph name="Che-cy" format="2">
  <advance width="647"/>
  <unicode hex="0427"/>
  <outline>
    <contour>
      <point x="503" y="0" type="line"/>
      <point x="577" y="0" type="line"/>
      <point x="577" y="720" type="line"/>
      <point x="503" y="720" type="line"/>
      <point x="503" y="328" type="line"/>
      <point x="519" y="387" type="line"/>
      <point x="488" y="356"/>
      <point x="422" y="323"/>
      <point x="333" y="323" type="curve" smooth="yes"/>
      <point x="190" y="323"/>
      <point x="144" y="412"/>
      <point x="144" y="546" type="curve" smooth="yes"/>
      <point x="144" y="720" type="line"/>
      <point x="70" y="720" type="line"/>
      <point x="70" y="520" type="line" smooth="yes"/>
      <point x="70" y="364"/>
      <point x="139" y="251"/>
      <point x="326" y="251" type="curve" smooth="yes"/>
      <point x="410" y="251"/>
      <point x="478" y="273"/>
      <point x="523" y="306" type="curve"/>
      <point x="503" y="338" type="line"/>
    </contour>
  </outline>
</glyph>
<glyph name="Sha-cy" format="2">
  <advance width="907"/>
  <unicode hex="0428"/>
  <outline>
    <contour>
      <point x="70" y="0" type="line"/>
      <point x="837" y="0" type="line"/>
      <point x="837" y="720" type="line"/>
      <point x="763" y="720" type="line"/>
      <point x="763" y="70" type="line"/>
      <point x="490" y="70" type="line"/>
      <point x="490" y="720" type="line"/>
      <point x="417" y="720" type="line"/>
      <point x="417" y="70" type="line"/>
      <point x="143" y="70" type="line"/>
      <point x="143" y="720" type="line"/>
      <point x="70" y="720" type="line"/>
    </contour>
  </outline>
</glyph>
<glyph name="Shcha-cy" format="2">
  <advance width="923"/>
  <unicode hex="0429"/>
  <outline>
    <contour>
      <point x="840" y="-93" type="line"/>
      <point x="913" y="-93" type="line"/>
      <point x="913" y="68" type="line"/>
      <point x="770" y="68" type="line"/>
      <point x="770" y="0" type="line"/>
      <point x="840" y="0" type="line"/>
    </contour>
    <component base="Sha-cy"/>
  </outline>
</glyph>
<glyph name="Hardsign-cy" format="2">
  <advance width="618"/>
  <unicode hex="042A"/>
  <outline>
    <contour>
      <point x="87" y="0" type="line"/>
      <point x="365" y="0" type="line" smooth="yes"/>
      <point x="379" y="0"/>
      <point x="397" y="1"/>
      <point x="415" y="4" type="curve" smooth="yes"/>
      <point x="528" y="21"/>
      <point x="591" y="111"/>
      <point x="591" y="223" type="curve" smooth="yes"/>
      <point x="591" y="336"/>
      <point x="527" y="425"/>
      <point x="415" y="443" type="curve" smooth="yes"/>
      <point x="397" y="446"/>
      <point x="378" y="447"/>
      <point x="365" y="447" type="curve" smooth="yes"/>
      <point x="160" y="447" type="line"/>
      <point x="160" y="720" type="line"/>
      <point x="-7" y="720" type="line"/>
      <point x="-7" y="657" type="line"/>
      <point x="87" y="657" type="line"/>
    </contour>
    <contour>
      <point x="160" y="70" type="line"/>
      <point x="160" y="376" type="line"/>
      <point x="363" y="376" type="line" smooth="yes"/>
      <point x="375" y="376"/>
      <point x="392" y="375"/>
      <point x="407" y="372" type="curve" smooth="yes"/>
      <point x="481" y="356"/>
      <point x="515" y="290"/>
      <point x="515" y="223" type="curve" smooth="yes"/>
      <point x="515" y="156"/>
      <point x="481" y="90"/>
      <point x="407" y="75" type="curve" smooth="yes"/>
      <point x="392" y="71"/>
      <point x="375" y="70"/>
      <point x="363" y="70" type="curve" smooth="yes"/>
    </contour>
  </outline>
</glyph>
<glyph name="Softsign-cy" format="2">
  <advance width="614"/>
  <unicode hex="042C"/>
  <outline>
    <contour>
      <point x="70" y="0" type="line"/>
      <point x="348" y="0" type="line" smooth="yes"/>
      <point x="362" y="0"/>
      <point x="380" y="1"/>
      <point x="399" y="4" type="curve" smooth="yes"/>
      <point x="511" y="21"/>
      <point x="574" y="111"/>
      <point x="574" y="223" type="curve" smooth="yes"/>
      <point x="574" y="336"/>
      <point x="511" y="425"/>
      <point x="399" y="443" type="curve" smooth="yes"/>
      <point x="380" y="446"/>
      <point x="362" y="447"/>
      <point x="348" y="447" type="curve" smooth="yes"/>
      <point x="143" y="447" type="line"/>
      <point x="143" y="720" type="line"/>
      <point x="70" y="720" type="line"/>
    </contour>
    <contour>
      <point x="143" y="70" type="line"/>
      <point x="143" y="376" type="line"/>
      <point x="346" y="376" type="line" smooth="yes"/>
      <point x="358" y="376"/>
      <point x="375" y="375"/>
      <point x="391" y="372" type="curve" smooth="yes"/>
      <point x="464" y="356"/>
      <point x="498" y="290"/>
      <point x="498" y="223" type="curve" smooth="yes"/>
      <point x="498" y="156"/>
      <point x="464" y="90"/>
      <point x="391" y="75" type="curve" smooth="yes"/>
      <point x="375" y="71"/>
      <point x="358" y="70"/>
      <point x="346" y="70" type="curve" smooth="yes"/>
    </contour>
  </outline>
</glyph>
<glyph name="Ereversed-cy" format="2">
  <advance width="703"/>
  <unicode hex="042D"/>
  <outline>
    <contour>
      <point x="344" y="-15" type="curve" smooth="yes"/>
      <point x="558" y="-15"/>
      <point x="676" y="150"/>
      <point x="673" y="360" type="curve" smooth="yes"/>
      <point x="670" y="584"/>
      <point x="554" y="735"/>
      <point x="344" y="735" type="curve" smooth="yes"/>
      <point x="182" y="735"/>
      <point x="66" y="644"/>
      <point x="30" y="487" type="curve"/>
      <point x="105" y="476" type="line"/>
      <point x="131" y="591"/>
      <point x="218" y="662"/>
      <point x="341" y="664" type="curve" smooth="yes"/>
      <point x="497" y="666"/>
      <point x="583" y="554"/>
      <point x="594" y="395" type="curve"/>
      <point x="330" y="395" type="line"/>
      <point x="330" y="325" type="line"/>
      <point x="594" y="325" type="line"/>
      <point x="590" y="261"/>
      <point x="577" y="200"/>
      <point x="535" y="144" type="curve" smooth="yes"/>
      <point x="490" y="84"/>
      <point x="419" y="57"/>
      <point x="341" y="56" type="curve" smooth="yes"/>
      <point x="227" y="54"/>
      <point x="139" y="123"/>
      <point x="107" y="234" type="curve"/>
      <point x="35" y="215" type="line"/>
      <point x="73" y="68"/>
      <point x="188" y="-15"/>
    </contour>
  </outline>
</glyph>
<glyph name="Iu-cy" format="2">
  <advance width="917"/>
  <unicode hex="042E"/>
  <outline>
    <contour>
      <point x="70" y="0" type="line"/>
      <point x="143" y="0" type="line"/>
      <point x="143" y="323" type="line"/>
      <point x="339" y="323" type="line"/>
      <point x="339" y="397" type="line"/>
      <point x="143" y="397" type="line"/>
      <point x="143" y="720" type="line"/>
      <point x="70" y="720" type="line"/>
    </contour>
    <component base="Oval-condensed" xOffset="280"/>
  </outline>
</glyph>
<glyph name="be-cy" format="2">
  <advance width="583"/>
  <unicode hex="0431"/>
  <outline>
    <contour>
      <point x="287" y="-15" type="curve" smooth="yes"/>
      <point x="444" y="-16"/>
      <point x="543" y="89"/>
      <point x="543" y="250" type="curve" smooth="yes"/>
      <point x="543" y="405"/>
      <point x="453" y="514"/>
      <point x="308" y="514" type="curve" smooth="yes"/>
      <point x="228" y="514"/>
      <point x="155" y="481"/>
      <point x="114" y="416" type="curve"/>
      <point x="121" y="501"/>
      <point x="149" y="571"/>
      <point x="203" y="604" type="curve" smooth="yes"/>
      <point x="274" y="649"/>
      <point x="416" y="654"/>
      <point x="489" y="668" type="curve"/>
      <point x="481" y="735" type="line"/>
      <point x="384" y="716"/>
      <point x="248" y="716"/>
      <point x="166" y="660" type="curve" smooth="yes"/>
      <point x="123" y="632"/>
      <point x="89" y="587"/>
      <point x="72" y="538" type="curve" smooth="yes"/>
      <point x="52" y="481"/>
      <point x="38" y="361"/>
      <point x="41" y="276" type="curve" smooth="yes"/>
      <point x="46" y="82"/>
      <point x="135" y="-15"/>
    </contour>
    <contour>
      <point x="292" y="55" type="curve" smooth="yes"/>
      <point x="180" y="55"/>
      <point x="119" y="129"/>
      <point x="119" y="249" type="curve" smooth="yes"/>
      <point x="119" y="369"/>
      <point x="180" y="443"/>
      <point x="291" y="443" type="curve" smooth="yes"/>
      <point x="402" y="443"/>
      <point x="466" y="369"/>
      <point x="466" y="249" type="curve" smooth="yes"/>
      <point x="466" y="132"/>
      <point x="406" y="55"/>
    </contour>
  </outline>
</glyph>
<glyph name="ve-cy" format="2">
  <advance width="536"/>
  <unicode hex="0432"/>
  <outline>
    <contour>
      <point x="70" y="0" type="line"/>
      <point x="321" y="0" type="line" smooth="yes"/>
      <point x="348" y="0"/>
      <point x="382" y="1"/>
      <point x="408" y="9" type="curve" smooth="yes"/>
      <point x="468" y="25"/>
      <point x="506" y="73"/>
      <point x="506" y="147" type="curve" smooth="yes"/>
      <point x="506" y="201"/>
      <point x="485" y="240"/>
      <point x="447" y="262" type="curve" smooth="yes"/>
      <point x="435" y="269"/>
      <point x="423" y="275"/>
      <point x="412" y="277" type="curve"/>
      <point x="424" y="282"/>
      <point x="436" y="290"/>
      <point x="446" y="301" type="curve" smooth="yes"/>
      <point x="467" y="324"/>
      <point x="480" y="354"/>
      <point x="480" y="392" type="curve" smooth="yes"/>
      <point x="480" y="462"/>
      <point x="439" y="514"/>
      <point x="379" y="530" type="curve" smooth="yes"/>
      <point x="351" y="538"/>
      <point x="315" y="540"/>
      <point x="292" y="540" type="curve" smooth="yes"/>
      <point x="70" y="540" type="line"/>
    </contour>
    <contour>
      <point x="144" y="62" type="line"/>
      <point x="144" y="238" type="line"/>
      <point x="307" y="238" type="line" smooth="yes"/>
      <point x="320" y="238"/>
      <point x="339" y="238"/>
      <point x="354" y="235" type="curve" smooth="yes"/>
      <point x="399" y="228"/>
      <point x="430" y="196"/>
      <point x="430" y="149" type="curve" smooth="yes"/>
      <point x="430" y="113"/>
      <point x="412" y="79"/>
      <point x="373" y="69" type="curve" smooth="yes"/>
      <point x="356" y="65"/>
      <point x="332" y="62"/>
      <point x="318" y="62" type="curve" smooth="yes"/>
    </contour>
    <contour>
      <point x="144" y="301" type="line"/>
      <point x="144" y="477" type="line"/>
      <point x="285" y="477" type="line" smooth="yes"/>
      <point x="292" y="477"/>
      <point x="326" y="477"/>
      <point x="350" y="469" type="curve" smooth="yes"/>
      <point x="385" y="457"/>
      <point x="403" y="426"/>
      <point x="403" y="388" type="curve" smooth="yes"/>
      <point x="403" y="354"/>
      <point x="387" y="321"/>
      <point x="352" y="309" type="curve" smooth="yes"/>
      <point x="336" y="303"/>
      <point x="312" y="301"/>
      <point x="295" y="301" type="curve" smooth="yes"/>
    </contour>
  </outline>
</glyph>
<glyph name="ge-cy" format="2">
  <advance width="465"/>
  <unicode hex="0433"/>
  <outline>
    <contour>
      <point x="70" y="0" type="line"/>
      <point x="143" y="0" type="line"/>
      <point x="143" y="470" type="line"/>
      <point x="440" y="470" type="line"/>
      <point x="440" y="540" type="line"/>
      <point x="70" y="540" type="line"/>
    </contour>
  </outline>
</glyph>
<glyph name="de-cy" format="2">
  <advance width="598"/>
  <unicode hex="0434"/>
  <outline>
    <contour>
      <point x="30" y="-120" type="line"/>
      <point x="101" y="-120" type="line"/>
      <point x="101" y="0" type="line"/>
      <point x="498" y="0" type="line"/>
      <point x="498" y="-120" type="line"/>
      <point x="568" y="-120" type="line"/>
      <point x="568" y="63" type="line"/>
      <point x="517" y="63" type="line"/>
      <point x="517" y="540" type="line"/>
      <point x="160" y="540" type="line"/>
      <point x="152" y="370"/>
      <point x="145" y="273"/>
      <point x="129" y="188" type="curve" smooth="yes"/>
      <point x="112" y="100"/>
      <point x="91" y="63"/>
      <point x="30" y="63" type="curve"/>
    </contour>
    <contour>
      <point x="155" y="63" type="line"/>
      <point x="178" y="85"/>
      <point x="187" y="119"/>
      <point x="197" y="166" type="curve" smooth="yes"/>
      <point x="214" y="241"/>
      <point x="222" y="375"/>
      <point x="228" y="477" type="curve"/>
      <point x="443" y="477" type="line"/>
      <point x="443" y="63" type="line"/>
    </contour>
  </outline>
</glyph>
<glyph name="zhe-cy" format="2">
  <advance width="699"/>
  <unicode hex="0436"/>
  <outline>
    <contour>
      <point x="10" y="0" type="line"/>
      <point x="96" y="0" type="line"/>
      <point x="315" y="267" type="line"/>
      <point x="315" y="0" type="line"/>
      <point x="383" y="0" type="line"/>
      <point x="383" y="267" type="line"/>
      <point x="603" y="0" type="line"/>
      <point x="689" y="0" type="line"/>
      <point x="461" y="270" type="line"/>
      <point x="679" y="540" type="line"/>
      <point x="596" y="540" type="line"/>
      <point x="383" y="273" type="line"/>
      <point x="383" y="540" type="line"/>
      <point x="315" y="540" type="line"/>
      <point x="315" y="273" type="line"/>
      <point x="102" y="540" type="line"/>
      <point x="20" y="540" type="line"/>
      <point x="238" y="270" type="line"/>
    </contour>
  </outline>
</glyph>
<glyph name="ze-cy" format="2">
  <advance width="506"/>
  <unicode hex="0437"/>
  <outline>
    <contour>
      <point x="264" y="-15" type="curve" smooth="yes"/>
      <point x="378" y="-15"/>
      <point x="466" y="49"/>
      <point x="466" y="151" type="curve" smooth="yes"/>
      <point x="466" y="214"/>
      <point x="434" y="279"/>
      <point x="363" y="292" type="curve"/>
      <point x="368" y="264" type="line"/>
      <point x="421" y="294"/>
      <point x="452" y="338"/>
      <point x="452" y="399" type="curve" smooth="yes"/>
      <point x="452" y="498"/>
      <point x="370" y="555"/>
      <point x="266" y="555" type="curve" smooth="yes"/>
      <point x="178" y="555"/>
      <point x="105" y="523"/>
      <point x="52" y="464" type="curve"/>
      <point x="99" y="414" type="line"/>
      <point x="137" y="456"/>
      <point x="197" y="485"/>
      <point x="261" y="485" type="curve" smooth="yes"/>
      <point x="324" y="485"/>
      <point x="377" y="456"/>
      <point x="377" y="394" type="curve" smooth="yes"/>
      <point x="377" y="336"/>
      <point x="327" y="310"/>
      <point x="253" y="310" type="curve" smooth="yes"/>
      <point x="189" y="310" type="line"/>
      <point x="189" y="248" type="line"/>
      <point x="253" y="248" type="line" smooth="yes"/>
      <point x="345" y="248"/>
      <point x="391" y="225"/>
      <point x="391" y="159" type="curve" smooth="yes"/>
      <point x="391" y="94"/>
      <point x="339" y="55"/>
      <point x="260" y="55" type="curve" smooth="yes"/>
      <point x="184" y="55"/>
      <point x="125" y="91"/>
      <point x="86" y="157" type="curve"/>
      <point x="27" y="120" type="line"/>
      <point x="73" y="35"/>
      <point x="155" y="-15"/>
    </contour>
  </outline>
</glyph>
<glyph name="ii-cy" format="2">
  <advance width="569"/>
  <unicode hex="0438"/>
  <outline>
    <contour>
      <point x="499" y="540" type="line"/>
      <point x="438" y="540" type="line"/>
      <point x="141" y="123" type="line"/>
      <point x="141" y="540" type="line"/>
      <point x="70" y="540" type="line"/>
      <point x="70" y="0" type="line"/>
      <point x="132" y="0" type="line"/>
      <point x="428" y="421" type="line"/>
      <point x="428" y="0" type="line"/>
      <point x="499" y="0" type="line"/>
    </contour>
  </outline>
</glyph>
<glyph name="el-cy" format="2">
  <advance width="576"/>
  <unicode hex="043B"/>
  <outline>
    <contour>
      <point x="20" y="0" type="line"/>
      <point x="122" y="-20"/>
      <point x="150" y="16"/>
      <point x="167" y="105" type="curve" smooth="yes"/>
      <point x="183" y="183"/>
      <point x="197" y="328"/>
      <point x="207" y="470" type="curve"/>
      <point x="432" y="470" type="line"/>
      <point x="432" y="0" type="line"/>
      <point x="506" y="0" type="line"/>
      <point x="506" y="540" type="line"/>
      <point x="138" y="540" type="line"/>
      <point x="128" y="368"/>
      <point x="118" y="242"/>
      <point x="101" y="145" type="curve" smooth="yes"/>
      <point x="91" y="86"/>
      <point x="80" y="53"/>
      <point x="20" y="64" type="curve"/>
    </contour>
  </outline>
</glyph>
<glyph name="em-cy" format="2">
  <advance width="692"/>
  <unicode hex="043C"/>
  <outline>
    <contour>
      <point x="70" y="0" type="line"/>
      <point x="141" y="0" type="line"/>
      <point x="141" y="383" type="line"/>
      <point x="323" y="0" type="line"/>
      <point x="369" y="0" type="line"/>
      <point x="551" y="383" type="line"/>
      <point x="551" y="0" type="line"/>
      <point x="622" y="0" type="line"/>
      <point x="622" y="540" type="line"/>
      <point x="557" y="540" type="line"/>
      <point x="346" y="98" type="line"/>
      <point x="135" y="540" type="line"/>
      <point x="70" y="540" type="line"/>
    </contour>
  </outline>
</glyph>
<glyph name="pe-cy" format="2">
  <advance width="569"/>
  <unicode hex="043F"/>
  <outline>
    <contour>
      <point x="70" y="0" type="line"/>
      <point x="143" y="0" type="line"/>
      <point x="143" y="470" type="line"/>
      <point x="426" y="470" type="line"/>
      <point x="426" y="0" type="line"/>
      <point x="499" y="0" type="line"/>
      <point x="499" y="540" type="line"/>
      <point x="70" y="540" type="line"/>
    </contour>
  </outline>
</glyph>
<glyph name="te-cy" format="2">
  <advance width="507"/>
  <unicode hex="0442"/>
  <outline>
    <contour>
      <point x="217" y="0" type="line"/>
      <point x="290" y="0" type="line"/>
      <point x="290" y="472" type="line"/>
      <point x="482" y="472" type="line"/>
      <point x="482" y="540" type="line"/>
      <point x="25" y="540" type="line"/>
      <point x="25" y="472" type="line"/>
      <point x="217" y="472" type="line"/>
    </contour>
  </outline>
</glyph>
<glyph name="ef-cy" format="2">
  <advance width="720"/>
  <unicode hex="0444"/>
  <outline>
    <contour>
      <point x="326" y="-225" type="line"/>
      <point x="394" y="-225" type="line"/>
      <point x="394" y="-10" type="line"/>
      <point x="552" y="-35"/>
      <point x="680" y="71"/>
      <point x="680" y="269" type="curve" smooth="yes"/>
      <point x="680" y="467"/>
      <point x="552" y="575"/>
      <point x="394" y="550" type="curve"/>
      <point x="394" y="716" type="line"/>
      <point x="326" y="716" type="line"/>
      <point x="326" y="550" type="line"/>
      <point x="168" y="575"/>
      <point x="40" y="467"/>
      <point x="40" y="269" type="curve" smooth="yes"/>
      <point x="40" y="71"/>
      <point x="168" y="-35"/>
      <point x="326" y="-10" type="curve"/>
    </contour>
    <contour>
      <point x="326" y="58" type="line"/>
      <point x="220" y="40"/>
      <point x="116" y="105"/>
      <point x="116" y="269" type="curve" smooth="yes"/>
      <point x="116" y="434"/>
      <point x="218" y="500"/>
      <point x="326" y="482" type="curve"/>
    </contour>
    <contour>
      <point x="394" y="58" type="curve"/>
      <point x="394" y="482" type="line"/>
      <point x="502" y="500"/>
      <point x="604" y="435"/>
      <point x="604" y="269" type="curve" smooth="yes"/>
      <point x="604" y="104"/>
      <point x="500" y="40"/>
    </contour>
  </outline>
</glyph>
<glyph name="tse-cy" format="2">
  <advance width="618"/>
  <unicode hex="0446"/>
  <outline>
    <contour>
      <point x="534" y="-93" type="line"/>
      <point x="608" y="-93" type="line"/>
      <point x="608" y="68" type="line"/>
      <point x="499" y="68" type="line"/>
      <point x="499" y="540" type="line"/>
      <point x="426" y="540" type="line"/>
      <point x="426" y="70" type="line"/>
      <point x="143" y="70" type="line"/>
      <point x="143" y="540" type="line"/>
      <point x="70" y="540" type="line"/>
      <point x="70" y="0" type="line"/>
      <point x="534" y="0" type="line"/>
    </contour>
  </outline>
</glyph>
<glyph name="che-cy" format="2">
  <advance width="544"/>
  <unicode hex="0447"/>
  <outline>
    <contour>
      <point x="400" y="0" type="line"/>
      <point x="474" y="0" type="line"/>
      <point x="474" y="540" type="line"/>
      <point x="400" y="540" type="line"/>
      <point x="400" y="270" type="line"/>
      <point x="367" y="247"/>
      <point x="317" y="232"/>
      <point x="264" y="232" type="curve" smooth="yes"/>
      <point x="179" y="232"/>
      <point x="133" y="270"/>
      <point x="120" y="343" type="curve" smooth="yes"/>
      <point x="115" y="369"/>
      <point x="114" y="399"/>
      <point x="114" y="421" type="curve" smooth="yes"/>
      <point x="114" y="540" type="line"/>
      <point x="40" y="540" type="line"/>
      <point x="40" y="421" type="line" smooth="yes"/>
      <point x="40" y="405"/>
      <point x="40" y="351"/>
      <point x="49" y="309" type="curve" smooth="yes"/>
      <point x="70" y="217"/>
      <point x="140" y="167"/>
      <point x="249" y="167" type="curve" smooth="yes"/>
      <point x="309" y="167"/>
      <point x="364" y="183"/>
      <point x="400" y="201" type="curve"/>
    </contour>
  </outline>
</glyph>
<glyph name="sha-cy" format="2">
  <advance width="759"/>
  <unicode hex="0448"/>
  <outline>
    <contour>
      <point x="70" y="0" type="line"/>
      <point x="689" y="0" type="line"/>
      <point x="689" y="540" type="line"/>
      <point x="617" y="540" type="line"/>
      <point x="617" y="68" type="line"/>
      <point x="415" y="68" type="line"/>
      <point x="415" y="540" type="line"/>
      <point x="344" y="540" type="line"/>
      <point x="344" y="68" type="line"/>
      <point x="141" y="68" type="line"/>
      <point x="141" y="540" type="line"/>
      <point x="70" y="540" type="line"/>
    </contour>
  </outline>
</glyph>
<glyph name="shcha-cy" format="2">
  <advance width="765"/>
  <unicode hex="0449"/>
  <outline>
    <contour>
      <point x="682" y="-93" type="line"/>
      <point x="755" y="-93" type="line"/>
      <point x="755" y="68" type="line"/>
      <point x="689" y="68" type="line"/>
      <point x="689" y="540" type="line"/>
      <point x="617" y="540" type="line"/>
      <point x="617" y="68" type="line"/>
      <point x="415" y="68" type="line"/>
      <point x="415" y="540" type="line"/>
      <point x="344" y="540" type="line"/>
      <point x="344" y="68" type="line"/>
      <point x="141" y="68" type="line"/>
      <point x="141" y="540" type="line"/>
      <point x="70" y="540" type="line"/>
      <point x="70" y="0" type="line"/>
      <point x="682" y="0" type="line"/>
    </contour>
  </outline>
</glyph>
<glyph name="hardsign-cy" format="2">
  <advance width="558"/>
  <unicode hex="044A"/>
  <outline>
    <contour>
      <point x="94" y="0" type="line"/>
      <point x="300" y="0" type="line" smooth="yes"/>
      <point x="331" y="0"/>
      <point x="365" y="1"/>
      <point x="392" y="7" type="curve" smooth="yes"/>
      <point x="465" y="23"/>
      <point x="518" y="76"/>
      <point x="518" y="168" type="curve" smooth="yes"/>
      <point x="518" y="270"/>
      <point x="460" y="316"/>
      <point x="380" y="331" type="curve" smooth="yes"/>
      <point x="356" y="336"/>
      <point x="325" y="337"/>
      <point x="294" y="337" type="curve" smooth="yes"/>
      <point x="167" y="337" type="line"/>
      <point x="167" y="540" type="line"/>
      <point x="20" y="540" type="line"/>
      <point x="20" y="477" type="line"/>
      <point x="93" y="477" type="line"/>
    </contour>
    <contour>
      <point x="167" y="63" type="line"/>
      <point x="167" y="274" type="line"/>
      <point x="297" y="274" type="line" smooth="yes"/>
      <point x="319" y="274"/>
      <point x="344" y="273"/>
      <point x="365" y="268" type="curve" smooth="yes"/>
      <point x="412" y="258"/>
      <point x="442" y="229"/>
      <point x="442" y="168" type="curve" smooth="yes"/>
      <point x="442" y="107"/>
      <point x="407" y="79"/>
      <point x="372" y="69" type="curve" smooth="yes"/>
      <point x="350" y="63"/>
      <point x="319" y="63"/>
      <point x="297" y="63" type="curve" smooth="yes"/>
    </contour>
  </outline>
</glyph>
<glyph name="yeru-cy" format="2">
  <advance width="670"/>
  <unicode hex="044B"/>
  <outline>
    <contour>
      <point x="71" y="0" type="line"/>
      <point x="244" y="0" type="line" smooth="yes"/>
      <point x="275" y="0"/>
      <point x="309" y="1"/>
      <point x="336" y="7" type="curve" smooth="yes"/>
      <point x="409" y="23"/>
      <point x="462" y="76"/>
      <point x="462" y="168" type="curve" smooth="yes"/>
      <point x="462" y="270"/>
      <point x="404" y="316"/>
      <point x="324" y="331" type="curve" smooth="yes"/>
      <point x="300" y="336"/>
      <point x="269" y="337"/>
      <point x="238" y="337" type="curve" smooth="yes"/>
      <point x="144" y="337" type="line"/>
      <point x="144" y="540" type="line"/>
      <point x="70" y="540" type="line"/>
    </contour>
    <contour>
      <point x="144" y="63" type="line"/>
      <point x="144" y="274" type="line"/>
      <point x="241" y="274" type="line" smooth="yes"/>
      <point x="263" y="274"/>
      <point x="288" y="273"/>
      <point x="309" y="268" type="curve" smooth="yes"/>
      <point x="356" y="258"/>
      <point x="386" y="229"/>
      <point x="386" y="168" type="curve" smooth="yes"/>
      <point x="386" y="107"/>
      <point x="351" y="79"/>
      <point x="316" y="69" type="curve" smooth="yes"/>
      <point x="294" y="63"/>
      <point x="263" y="63"/>
      <point x="241" y="63" type="curve" smooth="yes"/>
    </contour>
    <component base="idotless" xOffset="447"/>
  </outline>
</glyph>
<glyph name="softsign-cy" format="2">
  <advance width="535"/>
  <unicode hex="044C"/>
  <outline>
    <contour>
      <point x="71" y="0" type="line"/>
      <point x="277" y="0" type="line" smooth="yes"/>
      <point x="308" y="0"/>
      <point x="341" y="1"/>
      <point x="369" y="7" type="curve" smooth="yes"/>
      <point x="441" y="23"/>
      <point x="495" y="76"/>
      <point x="495" y="168" type="curve" smooth="yes"/>
      <point x="495" y="270"/>
      <point x="437" y="316"/>
      <point x="357" y="331" type="curve" smooth="yes"/>
      <point x="333" y="336"/>
      <point x="302" y="337"/>
      <point x="270" y="337" type="curve" smooth="yes"/>
      <point x="144" y="337" type="line"/>
      <point x="144" y="540" type="line"/>
      <point x="70" y="540" type="line"/>
    </contour>
    <contour>
      <point x="144" y="63" type="line"/>
      <point x="144" y="274" type="line"/>
      <point x="274" y="274" type="line" smooth="yes"/>
      <point x="296" y="274"/>
      <point x="321" y="273"/>
      <point x="342" y="268" type="curve" smooth="yes"/>
      <point x="388" y="258"/>
      <point x="419" y="229"/>
      <point x="419" y="168" type="curve" smooth="yes"/>
      <point x="419" y="107"/>
      <point x="384" y="79"/>
      <point x="349" y="69" type="curve" smooth="yes"/>
      <point x="327" y="63"/>
      <point x="296" y="63"/>
      <point x="274" y="63" type="curve" smooth="yes"/>
    </contour>
  </outline>
</glyph>
<glyph name="ereversed-cy" format="2">
  <advance width="554"/>
  <unicode hex="044D"/>
  <outline>
    <contour>
      <point x="261" y="-15" type="curve" smooth="yes"/>
      <point x="420" y="-15"/>
      <point x="514" y="99"/>
      <point x="514" y="270" type="curve" smooth="yes"/>
      <point x="514" y="440"/>
      <point x="420" y="555"/>
      <point x="262" y="555" type="curve" smooth="yes"/>
      <point x="150" y="555"/>
      <point x="64" y="498"/>
      <point x="34" y="406" type="curve"/>
      <point x="106" y="382" type="line"/>
      <point x="131" y="448"/>
      <point x="189" y="485"/>
      <point x="261" y="485" type="curve" smooth="yes"/>
      <point x="369" y="485"/>
      <point x="425" y="410"/>
      <point x="434" y="302" type="curve"/>
      <point x="192" y="302" type="line"/>
      <point x="192" y="239" type="line"/>
      <point x="434" y="239" type="line"/>
      <point x="424" y="127"/>
      <point x="367" y="55"/>
      <point x="260" y="55" type="curve" smooth="yes"/>
      <point x="187" y="55"/>
      <point x="135" y="90"/>
      <point x="107" y="154" type="curve"/>
      <point x="34" y="133" type="line"/>
      <point x="74" y="36"/>
      <point x="153" y="-15"/>
    </contour>
  </outline>
</glyph>
<glyph name="iu-cy" format="2">
  <advance width="791"/>
  <unicode hex="044E"/>
  <outline>
    <contour>
      <point x="495" y="-15" type="curve" smooth="yes"/>
      <point x="656" y="-15"/>
      <point x="751" y="101"/>
      <point x="751" y="271" type="curve" smooth="yes"/>
      <point x="751" y="437"/>
      <point x="657" y="555"/>
      <point x="496" y="555" type="curve" smooth="yes"/>
      <point x="354" y="555"/>
      <point x="261" y="460"/>
      <point x="248" y="307" type="curve"/>
      <point x="143" y="307" type="line"/>
      <point x="143" y="540" type="line"/>
      <point x="70" y="540" type="line"/>
      <point x="70" y="0" type="line"/>
      <point x="143" y="0" type="line"/>
      <point x="143" y="233" type="line"/>
      <point x="249" y="233" type="line"/>
      <point x="262" y="83"/>
      <point x="352" y="-15"/>
    </contour>
    <contour>
      <point x="494" y="55" type="curve" smooth="yes"/>
      <point x="378" y="55"/>
      <point x="318" y="140"/>
      <point x="318" y="271" type="curve" smooth="yes"/>
      <point x="318" y="404"/>
      <point x="380" y="485"/>
      <point x="494" y="485" type="curve" smooth="yes"/>
      <point x="613" y="485"/>
      <point x="673" y="402"/>
      <point x="673" y="271" type="curve" smooth="yes"/>
      <point x="673" y="142"/>
      <point x="615" y="55"/>
    </contour>
  </outline>
</glyph>
<glyph name="ia-cy" format="2">
  <advance width="553"/>
  <unicode hex="044F"/>
  <outline>
    <contour>
      <point x="409" y="0" type="line"/>
      <point x="483" y="0" type="line"/>
      <point x="482" y="540" type="line"/>
      <point x="276" y="540" type="line" smooth="yes"/>
      <point x="251" y="540"/>
      <point x="216" y="540"/>
      <point x="184" y="532" type="curve" smooth="yes"/>
      <point x="114" y="515"/>
      <point x="58" y="460"/>
      <point x="58" y="370" type="curve" smooth="yes"/>
      <point x="58" y="276"/>
      <point x="118" y="225"/>
      <point x="194" y="211" type="curve" smooth="yes"/>
      <point x="221" y="206"/>
      <point x="253" y="203"/>
      <point x="282" y="203" type="curve" smooth="yes"/>
      <point x="409" y="203" type="line"/>
    </contour>
    <contour>
      <point x="40" y="0" type="line"/>
      <point x="121" y="0" type="line"/>
      <point x="272" y="227" type="line"/>
      <point x="191" y="227" type="line"/>
    </contour>
    <contour>
      <point x="279" y="266" type="line" smooth="yes"/>
      <point x="261" y="266"/>
      <point x="235" y="267"/>
      <point x="211" y="273" type="curve" smooth="yes"/>
      <point x="167" y="284"/>
      <point x="134" y="317"/>
      <point x="134" y="371" type="curve" smooth="yes"/>
      <point x="134" y="428"/>
      <point x="171" y="459"/>
      <point x="205" y="469" type="curve" smooth="yes"/>
      <point x="230" y="477"/>
      <point x="262" y="477"/>
      <point x="279" y="477" type="curve" smooth="yes"/>
      <point x="409" y="477" type="line"/>
      <point x="409" y="266" type="line"/>
    </contour>
  </outline>
</glyph>
<glyph name="dje-cy" format="2">
  <advance width="594"/>
  <unicode hex="0452"/>
  <outline>
    <contour>
      <point x="464" y="-197" type="curve" smooth="yes"/>
      <point x="508" y="-188"/>
      <point x="534" y="-156"/>
      <point x="534" y="-93" type="curve" smooth="yes"/>
      <point x="534" y="297" type="line" smooth="yes"/>
      <point x="534" y="419"/>
      <point x="479" y="553"/>
      <point x="318" y="553" type="curve" smooth="yes"/>
      <point x="241" y="553"/>
      <point x="176" y="524"/>
      <point x="136" y="463" type="curve"/>
      <point x="136" y="593" type="line"/>
      <point x="257" y="593" type="line"/>
      <point x="257" y="656" type="line"/>
      <point x="136" y="656" type="line"/>
      <point x="136" y="720" type="line"/>
      <point x="70" y="720" type="line"/>
      <point x="70" y="656" type="line"/>
      <point x="6" y="656" type="line"/>
      <point x="6" y="593" type="line"/>
      <point x="70" y="593" type="line"/>
      <point x="70" y="0" type="line"/>
      <point x="144" y="0" type="line"/>
      <point x="144" y="288" type="line" smooth="yes"/>
      <point x="144" y="410"/>
      <point x="200" y="483"/>
      <point x="303" y="483" type="curve" smooth="yes"/>
      <point x="417" y="483"/>
      <point x="460" y="395"/>
      <point x="460" y="276" type="curve" smooth="yes"/>
      <point x="460" y="-59" type="line" smooth="yes"/>
      <point x="460" y="-133"/>
      <point x="433" y="-141"/>
      <point x="379" y="-133" type="curve"/>
      <point x="379" y="-192" type="line"/>
      <point x="400" y="-198"/>
      <point x="436" y="-202"/>
    </contour>
  </outline>
</glyph>
<glyph name="lje-cy" format="2">
  <advance width="837"/>
  <unicode hex="0459"/>
  <outline>
    <contour>
      <point x="20" y="0" type="line"/>
      <point x="122" y="-20"/>
      <point x="150" y="16"/>
      <point x="167" y="105" type="curve" smooth="yes"/>
      <point x="183" y="183"/>
      <point x="197" y="328"/>
      <point x="207" y="470" type="curve"/>
      <point x="405" y="470" type="line"/>
      <point x="406" y="0" type="line"/>
      <point x="579" y="0" type="line" smooth="yes"/>
      <point x="599" y="0"/>
      <point x="638" y="0"/>
      <point x="671" y="7" type="curve" smooth="yes"/>
      <point x="741" y="22"/>
      <point x="797" y="73"/>
      <point x="797" y="170" type="curve" smooth="yes"/>
      <point x="797" y="272"/>
      <point x="733" y="318"/>
      <point x="659" y="331" type="curve" smooth="yes"/>
      <point x="630" y="337"/>
      <point x="599" y="337"/>
      <point x="573" y="337" type="curve" smooth="yes"/>
      <point x="479" y="337" type="line"/>
      <point x="479" y="540" type="line"/>
      <point x="138" y="540" type="line"/>
      <point x="128" y="368"/>
      <point x="119" y="242"/>
      <point x="101" y="145" type="curve" smooth="yes"/>
      <point x="91" y="85"/>
      <point x="80" y="53"/>
      <point x="20" y="64" type="curve"/>
    </contour>
    <contour>
      <point x="479" y="63" type="line"/>
      <point x="479" y="274" type="line"/>
      <point x="576" y="274" type="line" smooth="yes"/>
      <point x="590" y="274"/>
      <point x="620" y="273"/>
      <point x="644" y="268" type="curve" smooth="yes"/>
      <point x="690" y="258"/>
      <point x="721" y="229"/>
      <point x="721" y="170" type="curve" smooth="yes"/>
      <point x="721" y="105"/>
      <point x="685" y="79"/>
      <point x="651" y="69" type="curve" smooth="yes"/>
      <point x="628" y="63"/>
      <point x="601" y="63"/>
      <point x="576" y="63" type="curve" smooth="yes"/>
    </contour>
  </outline>
</glyph>
<glyph name="nje-cy" format="2">
  <advance width="805"/>
  <unicode hex="045A"/>
  <outline>
    <contour>
      <point x="70" y="0" type="line"/>
      <point x="143" y="0" type="line"/>
      <point x="143" y="274" type="line"/>
      <point x="372" y="274" type="line"/>
      <point x="373" y="0" type="line"/>
      <point x="547" y="0" type="line" smooth="yes"/>
      <point x="566" y="0"/>
      <point x="606" y="0"/>
      <point x="638" y="7" type="curve" smooth="yes"/>
      <point x="708" y="22"/>
      <point x="765" y="73"/>
      <point x="765" y="170" type="curve" smooth="yes"/>
      <point x="765" y="272"/>
      <point x="700" y="318"/>
      <point x="627" y="331" type="curve" smooth="yes"/>
      <point x="597" y="337"/>
      <point x="566" y="337"/>
      <point x="540" y="337" type="curve" smooth="yes"/>
      <point x="446" y="337" type="line"/>
      <point x="446" y="540" type="line"/>
      <point x="372" y="540" type="line"/>
      <point x="372" y="337" type="line"/>
      <point x="143" y="337" type="line"/>
      <point x="143" y="540" type="line"/>
      <point x="70" y="540" type="line"/>
    </contour>
    <contour>
      <point x="446" y="63" type="line"/>
      <point x="446" y="274" type="line"/>
      <point x="544" y="274" type="line" smooth="yes"/>
      <point x="557" y="274"/>
      <point x="587" y="273"/>
      <point x="612" y="268" type="curve" smooth="yes"/>
      <point x="658" y="258"/>
      <point x="689" y="229"/>
      <point x="689" y="170" type="curve" smooth="yes"/>
      <point x="689" y="105"/>
      <point x="652" y="79"/>
      <point x="618" y="69" type="curve" smooth="yes"/>
      <point x="595" y="63"/>
      <point x="568" y="63"/>
      <point x="544" y="63" type="curve" smooth="yes"/>
    </contour>
  </outline>
</glyph>
<glyph name="dzhe-cy" format="2">
  <advance width="569"/>
  <unicode hex="045F"/>
  <outline>
    <contour>
      <point x="259" y="-120" type="line"/>
      <point x="332" y="-120" type="line"/>
      <point x="332" y="0" type="line"/>
      <point x="499" y="0" type="line"/>
      <point x="499" y="540" type="line"/>
      <point x="426" y="540" type="line"/>
      <point x="426" y="70" type="line"/>
      <point x="143" y="70" type="line"/>
      <point x="143" y="540" type="line"/>
      <point x="70" y="540" type="line"/>
      <point x="70" y="0" type="line"/>
      <point x="259" y="0" type="line"/>
    </contour>
  </outline>
</glyph>
<glyph name="Gheupturn-cy" format="2">
  <advance width="540"/>
  <unicode hex="0490"/>
  <outline>
    <contour>
      <point x="70" y="0" type="line"/>
      <point x="143" y="0" type="line"/>
      <point x="143" y="650" type="line"/>
      <point x="530" y="650" type="line"/>
      <point x="530" y="813" type="line"/>
      <point x="457" y="813" type="line"/>
      <point x="457" y="720" type="line"/>
      <point x="70" y="720" type="line"/>
    </contour>
  </outline>
</glyph>
<glyph name="gheupturn-cy" format="2">
  <advance width="465"/>
  <unicode hex="0491"/>
  <outline>
    <contour>
      <point x="70" y="0" type="line"/>
      <point x="143" y="0" type="line"/>
      <point x="143" y="470" type="line"/>
      <point x="440" y="470" type="line"/>
      <point x="440" y="633" type="line"/>
      <point x="367" y="633" type="line"/>
      <point x="367" y="540" type="line"/>
      <point x="70" y="540" type="line"/>
    </contour>
  </outline>
</glyph>
<glyph name="ustrait-cy" format="2">
  <advance width="508"/>
  <unicode hex="04AF"/>
  <outline>
    <contour>
      <point x="216" y="-180" type="line"/>
      <point x="292" y="-180" type="line"/>
      <point x="292" y="0" type="line"/>
      <point x="488" y="540" type="line"/>
      <point x="413" y="540" type="line"/>
      <point x="254" y="96" type="line"/>
      <point x="95" y="540" type="line"/>
      <point x="20" y="540" type="line"/>
      <point x="216" y="0" type="line"/>
    </contour>
  </outline>
</glyph>
<glyph name="obarred-cy" format="2">
  <advance width="592"/>
  <unicode hex="04E9"/>
  <outline>
    <contour>
      <point x="86" y="239" type="line"/>
      <point x="512" y="239" type="line"/>
      <point x="512" y="302" type="line"/>
      <point x="86" y="302" type="line"/>
    </contour>
    <component base="o"/>
  </outline>
</glyph>
<glyph name="Germandbls" format="2">
  <advance width="599"/>
  <unicode hex="1E9E"/>
  <outline>
    <contour>
      <point x="317" y="-15" type="curve" smooth="yes"/>
      <point x="463" y="-15"/>
      <point x="539" y="75"/>
      <point x="539" y="211" type="curve" smooth="yes"/>
      <point x="539" y="340"/>
      <point x="444" y="431"/>
      <point x="329" y="420" type="curve"/>
      <point x="470" y="566" type="line"/>
      <point x="455" y="665"/>
      <point x="381" y="735"/>
      <point x="272" y="735" type="curve" smooth="yes"/>
      <point x="182" y="735"/>
      <point x="120" y="694"/>
      <point x="88" y="616" type="curve" smooth="yes"/>
      <point x="74" y="582"/>
      <point x="70" y="539"/>
      <point x="70" y="495" type="curve" smooth="yes"/>
      <point x="70" y="0" type="line"/>
      <point x="146" y="0" type="line"/>
      <point x="146" y="482" type="line" smooth="yes"/>
      <point x="146" y="524"/>
      <point x="148" y="562"/>
      <point x="162" y="591" type="curve" smooth="yes"/>
      <point x="184" y="641"/>
      <point x="228" y="665"/>
      <point x="272" y="665" type="curve" smooth="yes"/>
      <point x="330" y="665"/>
      <point x="377" y="632"/>
      <point x="391" y="576" type="curve"/>
      <point x="236" y="412" type="line"/>
      <point x="258" y="345" type="line"/>
      <point x="391" y="380"/>
      <point x="463" y="298"/>
      <point x="463" y="212" type="curve" smooth="yes"/>
      <point x="463" y="114"/>
      <point x="408" y="59"/>
      <point x="311" y="59" type="curve" smooth="yes"/>
      <point x="278" y="59"/>
      <point x="250" y="64"/>
      <point x="221" y="72" type="curve"/>
      <point x="221" y="0" type="line"/>
      <point x="248" y="-9"/>
      <point x="276" y="-15"/>
    </contour>
  </outline>
</glyph>
<glyph name="bullet" format="2">
  <advance width="653"/>
  <unicode hex="2022"/>
  <outline>
    <contour>
      <point x="329" y="198" type="curve" smooth="yes"/>
      <point x="391" y="198"/>
      <point x="443" y="249"/>
      <point x="443" y="315" type="curve" smooth="yes"/>
      <point x="443" y="382"/>
      <point x="391" y="432"/>
      <point x="329" y="432" type="curve" smooth="yes"/>
      <point x="263" y="432"/>
      <point x="210" y="382"/>
      <point x="210" y="315" type="curve" smooth="yes"/>
      <point x="210" y="249"/>
      <point x="263" y="198"/>
    </contour>
  </outline>
</glyph>
<glyph name="fraction" format="2">
  <advance width="213"/>
  <unicode hex="2044"/>
  <outline>
    <contour>
      <point x="-131" y="0" type="line"/>
      <point x="394" y="684" type="line"/>
      <point x="344" y="722" type="line"/>
      <point x="-181" y="39" type="line"/>
    </contour>
  </outline>
</glyph>
<glyph name="zerosuperior" format="2">
  <advance width="445"/>
  <unicode hex="2070"/>
  <outline>
    <contour>
      <point x="223" y="258" type="curve" smooth="yes"/>
      <point x="313" y="258"/>
      <point x="375" y="323"/>
      <point x="375" y="415" type="curve" smooth="yes"/>
      <point x="375" y="573" type="line" smooth="yes"/>
      <point x="375" y="665"/>
      <point x="311" y="729"/>
      <point x="223" y="729" type="curve" smooth="yes"/>
      <point x="134" y="729"/>
      <point x="70" y="664"/>
      <point x="70" y="573" type="curve" smooth="yes"/>
      <point x="70" y="415" type="line" smooth="yes"/>
      <point x="70" y="322"/>
      <point x="134" y="258"/>
    </contour>
    <contour>
      <point x="223" y="312" type="curve" smooth="yes"/>
      <point x="166" y="312"/>
      <point x="127" y="356"/>
      <point x="127" y="414" type="curve" smooth="yes"/>
      <point x="127" y="574" type="line" smooth="yes"/>
      <point x="127" y="633"/>
      <point x="168" y="676"/>
      <point x="223" y="676" type="curve" smooth="yes"/>
      <point x="279" y="676"/>
      <point x="319" y="632"/>
      <point x="319" y="574" type="curve" smooth="yes"/>
      <point x="319" y="414" type="line" smooth="yes"/>
      <point x="319" y="355"/>
      <point x="278" y="312"/>
    </contour>
  </outline>
</glyph>
<glyph name="foursuperior" format="2">
  <advance width="410"/>
  <unicode hex="2074"/>
  <outline>
    <contour>
      <point x="257" y="270" type="line"/>
      <point x="313" y="270" type="line"/>
      <point x="313" y="353" type="line"/>
      <point x="360" y="353" type="line"/>
      <point x="360" y="406" type="line"/>
      <point x="313" y="406" type="line"/>
      <point x="313" y="533" type="line"/>
      <point x="257" y="533" type="line"/>
      <point x="257" y="406" type="line"/>
      <point x="113" y="406" type="line"/>
      <point x="262" y="720" type="line"/>
      <point x="199" y="720" type="line"/>
      <point x="50" y="406" type="line"/>
      <point x="50" y="353" type="line"/>
      <point x="257" y="353" type="line"/>
    </contour>
  </outline>
</glyph>
